<svg xmlns="http://www.w3.org/2000/svg" width="324" height="250" fill="none"><path fill="#E5E5E5" d="M0 0h324v250H0z"/><g clip-path="url(#a)"><path fill="#fff" d="M-558-221H882v938H-558z"/><path fill="#fff" d="M354-19H-30v288h384V-19Z"/><path fill="#FD4300" fill-rule="evenodd" d="m101.25 113.793 3.532 35.665 19.232-10.974v34.202c0 .63-.374 2.794 0 3.339.317.463 2.666.476 3.221.554 3.625.508 7.258.959 10.896 1.361 9.589 1.059 19.853 2.576 29.478 1.359 8.367-1.058 16.479-4.034 24.123-7.497a132.668 132.668 0 0 0 7.928-3.907c.55-.295 2.549-.991 2.849-1.591.244-.49-.33-2.213-.406-2.728l-.969-6.516-4.512-30.333 8.523 8.51c.668.667 1.935 2.56 2.859 2.855.678.217 2.355-.454 3.025-.583l14.477-2.789c1.124-.217 3.658-.209 4.606-.888.51-.366.534-1.11.714-1.816l3.531-13.833c.212-.83 1.395-3.449 1.094-4.286-.108-.299-.63-.504-.949-.7l-21.85-13.346-11.97-7.31c-1.671-1.021-3.725-2.86-5.618-3.432-1.176-.354-2.886-.089-4.103-.123l-7.416-.212c-.387-.011-1.743-.287-2.068-.059-.272.19-.159.454-.248.906-.218 1.105-.219 2.296-.326 3.417-.086.9.085 2.55-.321 3.365-.259.52.07.313-.281.564-.417.3-1.749.203-2.246.26l-7.267.845c-2.88.334-5.792.962-8.686.673-4.387-.438-9.117-.416-13.424-1.34-1.119-.24-1.523-.871-2.386-1.733-1.686-1.683-3.354-3.386-5.058-5.051-.835-.816-.477-.678-1.338-.368-1.079.388-2.173 1.323-3.15 1.918-3.741 2.28-7.483 4.558-11.224 6.837l-22.843 13.914-1.429.871Z" clip-rule="evenodd"/><path fill="#1D1D1D" fill-rule="evenodd" d="M319.731 115.271c-4.709 17.877-14.179 37.369-33.259 43.067-4.638 1.385-9.151 2.431-13.969 1.903-.458-.05-.842.015-1.278.023-.782.015-.107.296-.983.025-.684-.211-1.323-.739-2.035-.972-1.894-.619-3.912-.739-5.836-1.24a150.75 150.75 0 0 1-14.181-4.444c-2.157-.799-4.14-1.911-6.169-2.981-2.062-1.087-4.248-1.762-6.334-2.759-1.648-.789-4.472-1.816-5.631-3.294-1.235-1.577.474-4.934.963-6.61 1.662-5.704 3.641-11.324 4.89-17.141 4.312 4.998 10.298 8.093 16.494 10.089a61.63 61.63 0 0 0 10.318 2.357c3.175.444 6.601.983 9.783.351 2.403-.477 5.419-1.581 7.135-3.415.612-.654 1.347-1.855 1.003-2.806-.435-1.207-1.704-.639-2.391-1.539-.598-.785-.504-2.62-.695-3.576a37.398 37.398 0 0 0-1.366-4.964c-1.098-3.161-2.466-6.329-2.794-9.692-.285-2.918.38-5.678 1.836-8.21.687-1.197 2.415-4.453 4.101-4.318 1.851.149-.645 7.952-.727 9.543-.324 6.31.523 13.034 3.761 18.564 1.239 2.118 3.032 4.584 5.679 4.846 2.804.278 5.066-1.928 6.4-4.16 3.256-5.446 1.615-12.918-.035-18.625-2.022-7.002-7.302-11.829-10.641-18.117 4.985.5 7.654 3.667 10.212 7.684 2.816 4.423 5.008 9.733 6.09 14.88.546 2.6.169 5.21.172 7.836.001.872.001 4.09 1.423 3.964 1.52-.136 2.041-3.765 2.265-4.872.512-2.54 1.067-5.08 1.511-7.632.788-4.515 1.138-9.14 2.081-13.624.159-.758.477-2.86 1.611-2.293.875.437.735 3.69.767 4.446.078 1.863.189 3.726.204 5.591.022 2.764-.529 5.625-.259 8.373.177 1.795 1.14 3.778 2.335 1.357 1.184-2.401 1.426-5.395 2.086-7.977.694-2.711 1.41-5.461 2.882-7.869.409-.668.848-1.728 1.755-1.414.66.228 1.147 1.792 1.351 2.343.919 2.494.763 5.266.705 7.876-.071 3.198-.414 6.325-1.23 9.426Zm-91.819 4.639c-.252-.081-1.321-.183-1.586-.206-.31-.027.042-.599-.71-.436.145.359.403.599.774.72-1.131.382-1.965-.562-2.738-.684-.739-.116-.771 0-1.501.781-.791-.964-.643-.363-1.293-.362-.237 0-.247.358-.632.315-.336-.038-.371-.548-.57-.608-1.079-.327-2.19 1.317-3.413-.109-.297 1.483-3.695-.374-5.002-.114-1.37.273-.779.764-1.886-.075-1.056-.8-.761-.269-1.989.386.029-.016-.693.472-.626.48-.849-.1-.801-.978-1.877-.932-1.139.05-1.625.943-2.667-.156-.227.823-.274.468-.808.676-.294.07-.551-.008-.771-.232a.56.56 0 0 1-.441.416c-.582.052-1.674.133-2.202-.147-.793-.42-.155-.582-.705-1.055-.247 1.304-.787 1.027-1.926 1.149-.869.093-1.06-.174-1.89-.303-.818-.128-1.874.189-2.672.324-.329.057-.77.286-1.105.205-.302-.072-.431-.307-.612-.368-.219-.074-.172-.265-.55-.358-.261-.064-.729.181-.989.223-1.859.302-3.645.305-5.418-.426.873 1.535-2.042.706-2.562.071-.649 1.017-1.435.299-2.744.378-1.261.077-3.157.463-3.668-1.107-.1.319-.816 1.245-1.101 1.386-.826.41-.925-.196-1.693-.443-1.046-.336-.828.302-1.476.432-1.095.219-1.687-.552-2.654-.962-.041.637-.062 1.029-.613 1.426-.488-1.777-2.229.145-1.93-2.229-.663.431-1.595.763-1.783 1.635 1.107-.305.118.419.071.443-.146.077-.641-.617-.756-.715l-.093.982c-.442-.22-.856-.615-1.214-.813-.323-.179.14-.55-.406-.575-.287-.014-.587.608-.889.661-.461.081-.239-.58-.432-.558-.294.034-.773.464-.996.456-.729-.028-.236-.367-.792-.522-.994-.279-.93.372-1.645.606-1.635.537-1.471-1.933-3.135-.286-.398.394-.654 1.003-1.199.969-1.13-.071-.733-1.409-.503-2.065.237.117-4.126 2.358-4.092 2.271.028-.538.714-.952.101-1.429-.501 1.075-1.029 1.094-2.185 1.294-.563.098-.673.228-1.275-.006-.383-.148-.64-.759-1.021-.793.051.005-.648.537-.755.585-.631.284-1.03-.038-1.643.079-.523.099-.729.544-1.249.422-.695-.162-.287-.991-1.242-.76-.327.079-.523.708-1.037.838-.802.203-1.785-.175-2.633.022a9.451 9.451 0 0 1-1.76.256c-.475.027-.28-.342-1.155.094l-.371-.935-1.313 1.181a6.259 6.259 0 0 1-.158-1.072c-.654.654-1.476.765-2.354.824-.951.064-1.659.271-2.584.445-.293.055-1.046.142-1.287.04.036.015-.45-.187-.303-.148a6.251 6.251 0 0 1-.176-.392c-.082-.369-.347-.385-.796-.048-.232-.036-.682-.34-.913-.265-.597.193-.516.656-1.11.588-.386-.045-.583-.614-.985-.653-.614-.059-1.147.629-1.701.779 1.684-.457-2.184-.103-.981-.071-.789-.021-1.607-.06-2.336.294-.403-.276.086-.829-.321-1.057-.369-.206-.397.339-.44.351.232-.066.116.398-.117.481-.725.257-1.306-.397-1.344-1.046-.616.929-.789.555-1.696.613-.895.056-1.666.525-2.561.517-1.769-.017-2.97-.632-3.561-2.212 1.886.229 3.784-.983 5.627-.697.607.093.985.549 1.516.468.654-.1 1.111-.813 1.949-.89 1.85-.17 3.674-.005 5.537-.288 2.225-.339 4.546-.54 6.793-.375 1.735.128 3.141-.536 4.901-.664 2.276-.165 4.571-.195 6.851-.314 2.342-.123 4.863-.497 7.199-.377.729.037 1.356.109 2.08.065.306-.018.596-.226.917-.195.419.04.598.468 1.032.453.738-.025 1.526-.632 2.402-.649 1.441-.027 2.876-.024 4.321-.106 1.272-.072 2.635-.369 3.901-.353.893.011 1.114.772 1.634.851.936.141 5.671-2.553 6.08-.135 2.465-1.687 5.771-.259 8.514-.576 3.525-.407 7.115-.044 10.663-.189 3.611-.148 7.326-.011 10.923.33 1.489.141 2.929.273 4.423.187.665-.038 1.435-.208 2.102-.054.161.037 1.396.899 1.243.924.674-.606.218-.695 1.405-.726.915-.024 1.78.174 2.69.228 1.633.096 3.278-.13 4.907-.08 1.361.042 2.691.242 4.058.252 1.475.011 3.215.052 4.282 1.241l-.338-1.119c1.646.128 3.272.716 4.935.441-.42.403-.848.733-1.008 1.324.897-.114 1.504-.74 2.449-.745.793-.005.958.393 1.795-.121l.309 1.889c1.16-.273.399-1.138.484-1.917.943.283 1.741-.042 1.37 1.314-.287 1.045-1.592 1.561-2.574 1.242Zm-1.63 11.646c-.404 1.136-3.903.487-4.73.367-1.069-.155-2.292-.4-3.276-.522a1.739 1.739 0 0 0-.424-.401 1.02 1.02 0 0 1-.47.367c-.452.099-.454.565-1.048.462-.027.691.452.298.82.549-.926.62-.503-.094-1.022-.083a.506.506 0 0 0-.538-.215 2.47 2.47 0 0 0-.809.376c-.232.245-.43.257-.595.038a1.027 1.027 0 0 0-.579-.294c-.912.148-1.167.553-2.194.487-1.467-.095-3.055.292-4.499.088-.895-.126-2.391-1.532-2.798-.161-.619-1.017-1.604-1.708-2.197-2.747 2.76-.159 5.52-.349 8.282-.449 2.419-.087 5.065.185 7.325.071 2.118-.107 4.36-.341 6.522-.534 2.292-.205 3.05.298 2.23 2.601Zm-72.01.168c1.003.277 1.957-.352 2.929-.153.321.066.987.651 1.133.662.268.022 1.054-.553 1.392-.63 2.135-.486 4.721-.434 6.856-.135 1.131.158 1.304-.36 2.292-.611 1.026-.262 2.484-.06 3.565-.133 2.542-.17 5.083-.049 7.608-.235 2.592-.19 5.171-.294 7.764-.427 1.767-.091 6.012-1.099 7.476.213 1.207 1.081-.348 2.958-1.556 3.387-.903.319-1.336-.355-2.006-.29-.763.073-.497.975-1.179.138-.422.832-3.076.478-3.837.533-1.657.119-3.059.452-4.187-1.094l.229 1.337c-1.496-.799-3.102-.543-4.4-.264-.643.138-2.617 1.091-3.314.68-.479-.283.366-.767-.443-1.008-.424-.127-1.156.577-1.674.542-1.433-.099-1.026-1.063-2.434.164-.477-.412-.636-1.113-.573-1.715-1.023.873-.937 2.326-2.765 2.06-.682-.099-.807-.794-1.162-.922-.757-.273-.843.218-1.498.607-.248.146-.55.382-.841.412-.599.06-.694-.215-.776-.206-.398.044-.899.246-1.372.101-.424-.13-.548-.878-1.295-.703-.716.168-.721.653-.592 1.38-.705-.073-1.131-.465-1.659-.891-.533 1.243-1.654.214-2.274 1.262-.808-.965-1.326-.699-2.328-1.641l.147 1.179c-.782-.151-1.13-.702-1.797.027-.648-1.206-2.612.513-3.62-.652-.45 1.476-3.424 1.123-4.681 1.148-1.113.023-1.937-.068-3.025.19-.961.229-2.294.466-3.198.361-.591-.068-1.236-.177-1.972-.097-1.061.116-1.978.665-3.077.405-1.655-.391-2.669-2.565-.826-3.52 1.262-.653 3.534-.411 4.922-.532 2.301-.2 4.879-.619 7.183-.428 1.797.148 3.435-.28 5.268-.461 1.381-.137 3.643-.382 4.543.986.346-.4.31-1.232 1.054-1.026Zm-25.185 18.726c-.248-1.231 10.271-1.908 11.315-1.989 2.192-.168 4.39-.289 6.587-.345 1.806-.046 3.491.299 5.298.022 1.687-.259 3.723-.79 5.192.405.216-1.634 6.547-.838 7.752-.833 5.243.019 10.261.031 15.333-.294 2.898-.185 5.976-.435 8.875-.29 1.308.065 2.361.414 3.661.111.848-.197 1.762-.607 2.574-.027.949.679 1.355 2.985.701 3.948-.477.701-.898.624-1.659.502-1.17-.186-2.039-.456-3.232.019.193-.077-.799.144-.717.138-1.351.101-3.204 1.045-4.369-.043.467.082 1.145-.751.557-.82-.442-.051-.722.422-1.067.581-1.179.542-1.782.373-2.486-.765-1.42 1.229-1.573.889-2.196-.624-.48.369-.583 1.243-.961 1.53-.056.043.176.574-.096.552-.253-.021-.336-.435-.531-.468-.124-.021-.189-.385-.308-.407-.129-.024-.261.208-.407.202-.39-.019-1.506.811-1.106-.354-.591.752-.845.273-1.059-.411l-2.047 1.556c-.318-.882-.864-.642-1.551-.334.207-.613.077-1.193-.442-.766-.301.246-.503 1.029-.811 1.362-1.246-1.262-1.699-.916-3.421-.752-.657.063-1.473.184-2.06-.213-.516-.349-.808-1.629-1.691-.595.197-.23-.111 1.537-.166 1.818a3.836 3.836 0 0 1-.992-.968c-.508 1.006-1.841.104-2.934.309-1.72.324-3.494.868-5.013-.412-.108.414-1.352.94-1.354.956.074-.732.535-.474-.408-.613-.173-.026-.37.286-.534.32-.562.117-1.219.006-1.785-.01-2.357-.068-4.514.455-6.842.644-.784.064-1.715.189-2.451-.107-.759-.305-.738-.651-1.506-.455.243-.062-.48.697-.441.669-.103.075-.533-.296-.686-.268l-.134.486-.555-.069c-.506.068-.963-.444-1.438-.461.087.003-1.283.513-1.221.544-.957-.477-.682-.339-1.896-.048-1.147.274-2.29.21-3.467.382-3.424.497-1.384-1.219-1.805-3.315Zm-3.024 17.119c-.644-.913 1.069-1.229 1.616-1.31.9-.132 2.094.132 2.693-.011.914-.218 1.795-.736 2.823-.877 1.297-.177 2.605-.206 3.908-.317.434-.037.971-.186 1.393-.161.629.037.89.37 1.398.372.865.005 1.932-.541 2.818-.641 1.135-.129 2.281-.189 3.421-.246 2.403-.119 4.781-.07 7.182-.072 1.096-.002 4.012-1.139 4.559.136.759-.966 2.707-.834 3.792-.862 1.913-.049 3.805-.234 5.716-.323 1.636-.076 3.465.274 5.072.029.885-.135 1.178-.419 2.183-.291.746.095 1.883-.299 2.523-.125-.033-.009.799.507.54.523.286-.018.269.182.584.092.414-.116.224-.637 1.083-.822 1.338-.289 3.124.046 4.515-.029a70.932 70.932 0 0 1 4.047-.096c.622.003 1.391-.146 1.996-.025.296.06.926.447 1.177.408.712-.111 1.075-.606 2.037-.575a28.4 28.4 0 0 0 3.157-.064c1.05-.08 1.219-.23 1.74.644.515.867.658 1.995-.292 2.584.617-.04 1.376.786.649 1.243-.449.283-1.35-.355-1.888-.309-.662.057-1.182.407-1.903.429-.759.023-1.528.214-2.276.228-.779.016-1.367-.332-2.106-.184-.65.131-.719.663-1.501.195-.389-.232-.455-1.094-.985-1.102-.711-.011-.428.908-.837 1.333-.109-1.313-1.123.86-1.527-.734-.371.529-1.747 1.27-2.414.844-.607-.387-.406-1.265-.659-1.897-.421 1.136-1.552 2.315-1.449.247-.549.676-2.033.569-1.662 1.752-.447-.009-.553-.648-.929-.696-.325-.041-.583.208-.633.204.178.015-.532.252-.543.254.481-.098-1.388-.264-1.07-.261-.433-.004-.964.351-1.471.35-.461-.001-.921-.183-1.376-.235-1.182-.135-.936.124-1.678.496-.275.137-.344.37-.735.341-.287-.022-.395-.398-.428-.401-.405-.041-.106-.176-.735-.114l-.216.372c-.227.291-.522.364-.883.219-.931.199-4.017 1.064-3.715-.538l-1.418.694c-.203-1.292-2.773.421-3.347.507-.736.111-.804-.172-1.5-.322-.126-.027-.377.387-.671.328-.764-.154-.9-.23-1.031-1.06-.545 1.018-.997.563-1.985.73-.218.038-.358.468-.672.394-.226-.054-.232-.467-.388-.52-.14-.049-.119-.375-.326-.421-.237-.053-1.045.609-1.277.711-.523.231-1.381.612-1.892.498-.631-.141-.35-.609-1.242-.556-1.406.082-1.993 1.279-2.868-.607-.395.756-.345.961-.979 1.21-.469.184-1.657-.008-2.274-.031-2.636-.097-5.227.801-7.842.565-1.149-.103-2.117-.333-3.277-.145-1.218.198-2.41.489-3.646.606-.629.059-1.942.24-2.25-.564-.272-.707.741-1.189.174-1.994Zm5.169 29.002c-3.419 2.287-6.251 5.41-9.39 8.055-3.148 2.652-5.645 5.6-8.476 8.536-2.617 2.714-5.021 5.283-8.185 7.333-2.002 1.299-3.788 2.897-5.845 4.121-1.54.916-3.874 2.122-3.123-.682.77-2.873 2.193-5.778 3.428-8.461 1.755-3.815 3.524-7.594 5.424-11.337.714-1.406 1.113-2.806 2.245-3.926 1.232-1.219 2.094-2.81 3.443-3.962 5.675-4.845 14.226-1.102 20.479.323Zm10.726 1.642c-1.551.813-3.287 1.015-4.931 1.552-1.4.458-2.703 1.273-4.209 1.333 1.371-1.03 2.549-2.429 4.095-3.21 1.739-.879 3.318-.239 5.045.325Zm68.074 6.775c-5.705-1.924-11.016-4.761-16.573-7.044-.959-.394-8.46-2.864-8.308-4.04 5.257-.963 10.671-2.616 15.94-.814 4.794 1.639 8.693 5.571 12.404 8.862.968.859 6.956 4.769 6.42 6.014-.371.863-3.256.628-3.938.451-.88-.229-1.387-.763-2.077-1.35-1.154-.981-2.431-1.594-3.868-2.079Zm-10.531-32.159c.866-.797 1.385-2.007 2.213-2.743 1.063-.946 2.779-.485 3.941.006 3.489 1.474 6.471 3.952 9.938 5.49 3.841 1.705 7.168 3.983 10.633 6.33 3.167 2.146 6.592 3.922 9.826 5.97 3.294 2.087 6.982 3.444 10.322 5.456 3.399 2.049 6.785 4.107 10.051 6.364 5.825 4.026 11.889 8.16 16.198 13.884 2.215 2.942 4.288 6.279 5.914 9.583 1.477 3.003 3.079 7.172 1.165 10.296-1.839 3.001-4.972 5.364-7.625 7.603-1.005.847-1.96 1.877-3.262 2.245-1.584.446-3.432.323-5.06.455-8.709.706-16.822.04-25.404-1.518-8.275-1.501-16.585-2.342-24.923-3.386-4.704-.589-9.408-1.275-14.048-2.255a79.307 79.307 0 0 1-5.943-1.474c-1.695-.499-3.12-1.597-4.863-2.032-7.397-1.847-15.86-2.553-23.183-5.66 6.48-2.693 13.367-4.32 20.009-6.558 6.99-2.355 13.817-4.331 21.185-5.001 3.791-.344 7.185-1.312 10.832-2.326 3.475-.965 7.104-1.261 10.674-1.694 1.587-.193 6.118.096 6.644-1.98.783-3.089-3.668-3.446-5.566-3.169-2.692.392-4.912 1.064-6.972-1.144-2.104-2.256-4.148-4.565-6.29-6.792-3.971-4.128-8.065-8.904-13.678-10.756-6.849-2.26-14.791-.115-21.624 1.17-7.218 1.357-14.424 2.657-21.507 4.63-2.933.817-6.715 2.617-9.759 2.328-3-.286-6.398-.777-9.297-1.642-1.312-.391-2.39-1.116-3.564-1.793-1.526-.879-3.198-1.443-4.818-2.127-3.276-1.382-6.469-2.656-10.002-3.199-2.976-.458-6.136-.729-9.02.314-2.829 1.024-5.336 3.107-7.31 5.334-2.144 2.418-3.917 5.128-5.674 7.83-.844 1.297-1.873 2.429-2.748 3.697-.733 1.065-1.161 2.248-1.938 3.283-1.737 2.315-2.917 5.276-3.97 7.97-1.17 2.991-2.469 6.549-2.19 9.804.106 1.23.216 2.859.692 3.999.605 1.451 1.468 1.414 2.712 1.961 2.137.94 2.737 3.538 5.498 3.032 2.591-.475 4.837-2.61 6.727-4.311 2.464-2.217 4.821-4.555 7.179-6.885 2.418-2.39 4.802-5.042 6.726-7.854.758-1.107 1.348-2.358 2.243-3.366 1.14-1.284 2.42-1.439 3.968-1.95 13.537-4.473 27.14-8.787 41.099-11.74 3.345-.708 6.716-1.62 10.002-2.562 3.484-.999 5.289.057 8.164 1.958 6.008 3.972 13.11 6.77 19.8 9.362 2.107.816 5.46.868 7.107 2.477-9.761 1.488-19.063 4.351-28.478 7.202-4.641 1.405-9.336 2.624-13.996 3.968-4.661 1.345-9.145 3.087-13.742 4.603-4.575 1.508-9.41 2.124-14.029 3.515-4.716 1.421-9.412 2.398-14.252 3.261-4.887.873-9.741 1.879-14.645 2.66-2.245.357-4.49.728-6.711 1.219-2.173.482-4.272 1.634-6.456 1.901-9.752 1.194-19.312 3.852-29.026 5.355-7.253 1.122-19.871 2.687-24.575-4.59-4.73-7.318 1.073-15.854 6.25-21.087 3.218-3.252 6.834-6.114 10.627-8.66 4.06-2.725 7.965-5.667 12.026-8.388 9.189-6.158 19.153-11.18 29.025-16.127 4.739-2.375 9.317-4.922 13.927-7.528 2.287-1.294 3.554.793 5.362 2.212 1.422 1.116 4.034 3.867 6.024 2.595l.23 1.374 1.749-.797c.392 1.027.346 1.665 1.44 2.204.672.332 2.105.73 2.746.147l.392 1.216c.559-.043.668-1.644.773-2.02.96 1.402 2.287 2.573 3.973 2.969.008-.092-.274-1.243-.262-1.25.533-.327 1.207 1.072 1.489 1.372.938.992 1.498.839 2.534.037.075.082.426.997.477.981.224-.071.65-.883.696-.956-.064 1.066 1.995 1.281 2.722 1.052l-.489-.937c2.533-.338 3.527 2.353 5.958 2.216 1.798-.101.356-.494 1.373-1.264.889-.673 1.047.799 1.134.752.17-.178.301-.382.395-.612.328 1.26 2.947 2.39 2.676.318 1.03.412 1.761 1.096 2.901 1.241 1.386.175 2.866-.119 4.248-.234 2.979-.247 5.786-.855 8.471-2.219 1.592-.809 3.286-1.543 4.782-2.519 1.252-.817 3.628-3.297 5.295-2.229-.427-1.26 1.583-.093 1.647-1.715l.968.73c.194-.424.14-1.093.399-1.463.357-.508.53-.209.834-.495.34-.32.636-1.176 1.043-1.42.42-.251.914.048 1.366-.171.687-.334 3.645-3.596 3.144-.801 1.272-.432.291-.827.45-1.675.319-1.698 1.096-.476 1.87-.328 1.266.243 1.241-.804 1.947-1.565.645-.695 1.858-1.007 1.44-2.214.477.257.578.761.634 1.25Zm-76.357-36.273c-.998 1.111-1.745.636-2.854.473-.119-.398-.322-.453-.609-.165a3.048 3.048 0 0 1-1.06.372c-.91.225-1.855.129-2.745.469.026-.298.339-.828.138-1.131-.936.647-1.516 1.059-2.665 1.072-.932.009-2.566-.702-3.339.148l-.072-.992a3.234 3.234 0 0 0-.988.757c-.053-.49-.083-.861-.407-1.258-.615 1.266-1.289 1.296-2.484.812.167.068-1.197-.732-1.145-.51-.431-1.817 6.376-1.667 7.091-1.739 1.784-.18 3.569-.285 5.356-.449 1.695-.156 2.96-.42 4.133.994-.523-2.043 4.423-1.941 1.65 1.147Zm-78.042-31.679c.187 3.089.875 6.371-.326 9.343-.966 2.389-2.891 5.088-4.966 6.647-4.247 3.192-7.847-.714-8.439-5.007-.616-4.478.606-9.949 4.461-12.71 2.304-1.65 4.535-1.536 7.188-.993.622.127 1.634.078 1.99.697.084.145.009 2.021.092 2.023Zm56.413 41.145c-.733.371-1.501.588-2.148 1.092-.225.175-.301.573-.54.721-.433.268-1.054.09-1.506.311-.748.366-1.285.89-2.175 1.227-1.32.5-2.48 1.187-3.728 1.838-2.08 1.085-4.313 2.016-6.488 2.899-1.098.446-4.135 1.315-4.03 2.922-.245.067-.496-.471-1.01-.428-.703.059-1.633.873-2.364 1.073-1.367.374-2.426.407-2.426 2.15-.435-.295-.545-1.019-1.124-1.115-.652-.108-.926.595-1.447.814-.614.258-1.378.011-1.986.285a4.765 4.765 0 0 1-.886.736 3.37 3.37 0 0 1-.987-.031c-1.291.274-2.479.759-3.773 1.012-1.26.246-2.124.335-1.594 1.826-1.348.264-1.678-1.167-3.2-.643a42.049 42.049 0 0 1-5.555 1.494c-.993.2-2.03.645-3.031.75-.714.074-1.38-.181-2.082-.102-.847.095-1.528.488-2.404.502-.831.015-1.704-.134-2.52-.281.115.329.26.644.433.946-.565-.118-.825-.797-1.304-.897-.502-.105-.952.413-1.37.298-.178-.049-.06-.598-.378-.703-.29-.095-.413.017-.7-.028-.097-.015-1.301-.08-1.493.021-.335.178.004.511-.063.561-1.132.838-1.146.385-1.65-.49-.742-1.285-1.636-.474-2.984-.699-1.501-.251-2.684.412-4.163.318-1.594-.102-3.467-1.295-4.877-1.992-3.043-1.504-6.011-2.928-8.567-5.206-4.997-4.454-9.062-9.931-11.459-16.201-2.575-6.737-3.063-13.763-2.856-20.909.124-4.298.468-8.594 1.145-12.842.467-2.922.564-8.114 3.859-9.445.566 6.842-1.221 13.813-.094 20.61.34 2.048 1.167 4.776 2.733 6.292 2.32 2.245 2.862-1 3.072-2.792.39-3.329 1.116-6.639 1.629-9.952.513-3.312.875-6.66 1.59-9.937.26-1.194 2.357-9.944 3.897-9.53-.312 6.365-1.14 12.621-1.172 19.009-.013 2.562-.242 5.269.128 7.814.19 1.31 1.383 5.154 3.435 4.833 1.898-.296-.19-3.004-.366-4.048-.47-2.763.129-6.202.567-8.945.828-5.192 2.676-10.509 5.698-14.847 2.706-3.884 6.872-7.582 11.891-6.898 2.145.293 3.818.826 4.895 2.784.846 1.537 4.176 3.283 2.246 5.207-1.757 1.752-4.599.35-6.552-.068-2.391-.511-4.954.104-6.954 1.505-3.43 2.404-5.386 6.701-6.025 10.732-.86 5.434 1.44 19.658 9.91 16.471 5.626-2.119 9.863-9.737 9.391-15.57-.19-2.335-1.102-6.767 2.128-7.397 4.139-.808 4.723 3.754 4.304 6.719-.61 4.312-2.888 8.322-5.496 11.731-2.272 2.972-4.915 4.83-7.65 7.284-.81.727-2.874 2.36-2.528 3.712.38 1.481 3.626 1.902 4.925 2.145 6.429 1.204 13.679.096 20.096-.744 13.19-1.727 26.207-5.981 37.023-13.803.437 4.84.988 9.663 1.19 14.52.099 2.358.124 4.75.393 7.094.166 1.443.766 3.458-.873 4.285Zm-36.574 16.863c-.517.271.042-1.367-.102-.825.774.277.808.552.102.825Zm54.717-58.566c.822-.906 3.068-3.062 3.781-1.016.265-.872.299-2.163 1.323-.986.408-1.446 4.904-1.311 6.018-1.375 3.566-.204 7.147-.313 10.7-.667 7.303-.728 14.732-.353 22.061-.376 1.587-.005 3.17-.091 4.745.139 1.521.222 3.119.845 4.668.617 1.378-.202 2.281-.582 3.699-.419 1.697.194 3.344.332 5.056.326 7.572-.028 15.14.279 22.714.291 1.476.002 3.244-.286 4.629.341.513.232 1.074 1.006 1.466 1.09.449.098.182-.603.783-.287.805.424.182 1.726-.35 1.933.319-.124-.575-.246-.485-.25-.425.022-.786.347-1.242.327-.693-.03-1.274-.453-1.833-.825-.009.152.298 1.165-.053 1.216-.301.045-.584-.955-.614-1.187-1.695 1.494-3.49.661-5.592.85-1.491.135-4.601 1.129-5.641-.427-.043.331-.176.62-.398.869-.298.453-.555.414-.772-.117-.073.004-.798.161-.812.16-.51-.04-1.171-.223-1.689-.268-.803-.068-.655.516-1.294.526-.35.005-1.24-.5-1.849-.531-1.054-.055-2.131.392-3.172.257-.716-.093-1.363-.676-2.066-.699-.875-.029-1.159.639-1.853-.299-.142-.039-.23.513-.287.523.014-.003-.66.097-.74.128-.138.053-.677.3-.841.302-.354.007-.546-.247-.921-.252-.621-.011-2.604.536-2.549-.613-2.216.821-4.107.501-6.382.695-1.043.09-1.699-.05-2.692-.242-1.243-.24-2.069.062-3.309.123-1.192.058-1.568-.446-2.574-.901-.397-.18-.659-.417-1.145-.317-.278.057-.08.524-.162.556-.428.165-.727-.01-1.313.03-1.082.074-1.513.979-2.625.13.369-.045.739-.091 1.109-.135-1.064-.451-2.468-.681-2.21.961-.907-.128-.122-.745-.568-.967-.446-.22-.945.149-1.507.332-1.483.481-2.72.242-4.267.156-1.757-.098-5.868 1.336-7.127-.526-.038.392-.459 1.485-1.019 1.434-.183-.017.326-1.177.384-1.3-.289.615-1.606.731-2.255 1.05l.218-.99c-.603.641-.896.25-1.605.464-.31.094-.758.733-1.024.772a1.276 1.276 0 0 0-1.164-.462 2.353 2.353 0 0 0-.933-.046c-1.245.09-2.38.782-3.618.311-1.071-.408-1.486-1.458-2.125.212l-.504-.89-.623.966c-.81-.531-.86-.838-1.793-.643a.803.803 0 0 1-.674-.037l-.165.49c-.022.412-.144.547-.366.408a1.51 1.51 0 0 1-.505-.306c-.618.047-1.406.21-2.069.12-.256-.034-1.859-.881-1.978-.749Zm18.892-11.056.218.334c-1.002.53-1.238.226-1.342-.837.49.01.573.87 1.124.503Zm.621-.624c.482.213 1.036.631 1.49.07.306.89-1.966 2.104-1.49-.07Zm3.117.393c1.013.685-1.418.134-1.414.135.437-.403.908-.448 1.414-.135Zm8.715-3.819c.347 1.753 1.306 1.704 2.853.889 2.256-1.19 2.637-3.136 2.794-5.46.151-2.23.424-3.093 2.722-2.627 1.604.325 2.961.052 4.579.007 1.726-.047 2.334.216 2.472 1.992.14 1.778.456 3.129 1.747 4.482 1.312 1.376 3.061 2.197 4.766 2.967.877.396 1.7.821 2.67.907.376.033 2.332-.214 2.373.405.031.465-2.678 1.778-2.966 1.934-1.256.684-2.509 1.297-3.882 1.71-3.157.953-6.505 1.01-9.776.952-5.273-.093-12.561-2.323-15.714-7.002l5.362-1.156Zm-.473-15.184c-.835-.7-1.375-1.758-2.068-2.587-.349-.418-.606-.551-.938-.76-.351-.22-.548.091-.84-.427-.755-1.339 1.575-3.223-.896-3.738-.836-.175-2.849.488-3.093-.71-.345-1.694 2.888-1.805 3.649-2.665 1.512-1.709.486-4.607 1.407-6.579.872-1.867 3.123-2.2 4.9-2.76 2.475-.782 4.981-1.235 7.495-1.86 1.757-.438 4.677-2.195 6.307-.643-2.515.559-1.053 1.436.624 1.93 1.899.561 3.911.78 5.879.936 2.026.16 4.09.192 6.091-.212 1.851-.374 3.918-1.982 5.859-1.57-1.077 1.872-4.285 2.895-6.234 3.385-.993.25-1.629.172-1.496 1.41.13 1.2 1.173 2.404 1.409 3.654.311 1.654.039 3.175-.55 4.73-.579 1.532-.715 1.731-.208 3.194.789 2.278-.907 4.796-2.474 6.45-6.338 6.689-18.468 4.155-24.823-1.178Zm16.105-39.974c.025.068.004.042 0 0Zm1.974 16.88c-.263.196-1.776.607-1.713.016.085-.793 1.448-.506 1.713-.017Zm3.449-16.01c-.355-.266-1.349-.157-.622-1.16l.622 1.16Zm-23.871-6.344c.453-1.176.954-2.27 1.158-3.523.126-.771-.124-1.652.954-1.773-1.374-.6-1.388-2.965-1.469-4.19-.112-1.69-.645-3.95.097-5.522.762-1.615 1.79-1.588 2.1.335.121.752-.343.996-.431 1.52-.173 1.037.171.81.84.02.276.803.382 2.01 1.507 1.959-.075-.217-.506-.696-.362-.966.221-.415 1.301.219 1.438.314.986.69 1.2 1.32.496 2.19.974.104.157.957.785 1.179.959.339.316-1.267.212-1.55.584.228.779.488 1.149.95.217.317.415.648.593.99.198.623.607.78 1.227.469 1.242.39 2.956.328 4.069 1.01.509.31.692.99 1.117 1.25.478.29 1.118.158 1.631.341-.187.427-.035.657.456.694.382.035.751.12 1.108.257.268-.201.559-.36.872-.476.212.372.51.464.896.276 1.145.215 1.695.648 2.423 1.296.653.58.121.628.837.576.288-.02.792-.508 1.45-.413.378.074.743.19 1.095.35.38.325.784.366 1.21.123.694.339.762.94 1.608 1.021.935.091.634-1.074 1.276.57.865-1.743 1.182 1.034 2.074 1.258.925.232 1.025-.517 1.817.302.237.245.224.651.49.911.437.427 1.027.341 1.406.922-.211-.324.05 1.15.046 1.101.059.65-.519 1.38.665 1.324-.013.068-.582.897-.693.803a3.126 3.126 0 0 1-.068-.287c-.127.055-.184.844-.16.984.1.016.141-.06.123-.224-.195.61.099.996-.275 1.574-.24.37-.894.647-1.243.875a74.374 74.374 0 0 0-2.48 1.69c-1.91 1.366-4.049 3.014-6.454 3.3 1.208-1.187 8.159-5.676 4.672-6.964-.646-.239-1.823-.465-2.5-.516-.841-.062-1.71.42-2.638.12-1.119-.363-.697-1.415-1.381-1.793-1.452-.8-1.109 1.083-1.566 1.576-.48-.504-.377-.749-1.135-.794-.77-.047-.953.664-1.851.221-1.237-.61-.583-1.827-2.338-1.855.03-.267.284-1.014-.051-1.222-.451.586-.102 1.24-.521 1.804-.209.283-.665.508-.997.6-.778.214-.889.623-.762-.549-.577 1.04-2.345.612-3.397.507-1.71-.17-3.527-.493-5.166-1.042-1.516-.507-2.326-1.379-3.577-2.172-.472-.3-.698-.185-1.376-.371-.669-.184-1.321-.54-1.006-1.36Zm3.608-18.393c.258-.156.444 2.165.131 2.598-.573-.906-1.588-2.235-.131-2.598Zm.825-.926c.83-.752.253 1.189.101 1.515l-.923-.592c.393-.24.491-.624.822-.923Zm31.32-3.128c7.669 1.61 15.269 4.618 21.42 9.57 5.603 4.509 9.558 10.907 11.775 17.713 2.301 7.064 1.528 14.902-3.947 20.308-2.884 2.848-6.693 4.566-10.324 6.243-1.739.803-3.53 1.472-5.276 2.257-1.254.563-2.785 1.465-4.216 1.309.73-.768 1.789-.784 2.673-1.254 1.067-.568 1.939-1.657 2.859-2.436.914-.773 2.941-3.207 4.344-2.617-.194-1.297 1.283-1.899 1.949-2.754.704-.904.754-1.962 2.051-2.258-1.393-1.09-.966-3.147-.663-4.631.388-1.898.567-3.64.72-5.572.275-3.483.497-7.919-1.427-10.98-.624-.994-1.419-1.908-1.976-2.94-.672-1.245-.523-2.34-.523-3.704-1.228.825-1.487-.857-2.005-1.677-.389-.615-.9-.958-1.026-1.732-.091-.563.52-.658.185-1.249-.411.31-.575.791-.783 1.238-.379-.152.068-.68-.149-.852-.007-.004-.738-.322-.702-.276-.47-.597-.622-1.587-.852-2.297-.863.437-.701.386-1.663-.344-.17-.129-1.016-.719-1.096-.911-.372-.902.28-.368.098-.928-.524-1.607-3.463-1.303-3.696-3.712-1.434.91-1.98-.38-2.827-1.296-.869-.94-2.325-1.301-2.247-2.791l-1.353.462c.234-1.375-1.809-1.288-2.548-1.985.41.005.819.037 1.225.096Zm1.168 85.163c.711-.636.495.21.952.113.391-.083.469-.378.844-.47 1.545-.373 3.855.097 5.48.016 1.883-.093 5.109.298 6.006 2.5.54 1.326-.284.875-1.193.776-.704-.076-1.33.067-2.027.06a3.04 3.04 0 0 1-1.03-.016.65.65 0 0 1-.297-.465c-.969-.147-1.999.427-3.073.456-1.434.038-2.708-.237-3.797-1.204-.433.645-.728.965-1.507 1.037-.02.002-.781-.304-.898-.335-.156-.04-.55.287-.851.193.533-.849.611-1.964 1.391-2.661Zm97.899 7.663c.253-.88.465-1.771.695-2.657 3.539 4.028 6.635 9.42 8.028 14.585.905 3.357 2.314 9.44-2.001 11.171-3.515 1.41-5.475-3.645-6.364-6.135-1.963-5.497-1.963-11.371-.358-16.964ZM124.706 35.846c.045-.01-2.291 1.349-1.521.249.309-.442 1.481-.753 2.002-.753l-.481.504Zm-2.247.575c-.271.228-.544.452-.819.674l-.793-1.254c.521-.22 2.734-.385 1.612.58Zm-1.647 42.24c-.488-.332-.876-.156-1.023.4 0-.553.288-1.838.731-1.988.286-.097-.951-1.56-.603-1.942.884.506.354.99.613 1.644.117.295.468.574.545.8.13.385.658 1.708-.263 1.085Zm-2.394-3.293c-.501.128.376.955.375 1.32-.001.276-.332.488-.469.866-.297.819.214 1.372-.627 1.996 0-1.794-1.204-6.547 1.11-7.422-1.128-.888-.202-1.914.683-.85.85 1.022.309 3.737-1.072 4.09Zm-1.206-7.08c-.454-1.612-1.823-2.176-3.388-2.08.06-.826.686-2.017 1.138-.528.186-.44.314-1.014.738-1.306.713 2.238 4.271 3.474 2.056 5.898-.181-.662-.357-1.324-.544-1.984Zm-4.133-1.96c-8.238.597-19.803 2.306-26.395-4.008-4.298-4.117-4.069-10.529-.595-15.103 1.982-2.61 4.688-4.448 7.406-6.2 1.048-.675 1.936-1.121 3.088-1.51a.801.801 0 0 1 .526.125.904.904 0 0 1 .47-.618c.445-.238 1.078-.323 1.334-.817-.273.928-.413 1.883-.514 2.843l-.665-.775c-.185 1.748-2.007.69-3.094.908.716.991 1.228 1.352 1.29 2.662-.533-.985-1.649-1.633-2.686-1.95.563 1.666.961 2.655.394 4.482-.685-.392-.731-1.33-1.562-1.556-.22 1.09-.258 2.298-.539 3.356-2.128-.97-1.92 1.643-1.066 2.936.454.688.678 1.485 1.083 2.145.994 1.62.239-.802 1.344-.687-.248 1.709-.334 1.879.916 3.13 1.22 1.22 1.854 2.913 3.16 4.06.377-.483-.217-.989-.27-1.451 1.215.204 1.784 1.422 2.952.343.509.992 1.06 2.085 2.28 2.289-.806-1.532 1.548-.493 2.152-.276.458.165 1.278.297 1.455.36.995.36.313-.285.917.892.886-.267 1.221-1.003 2.281-.381.862.505.864 1.37 1.061 2.258.206-.58.413-1.16.64-1.732.232.097 1.203 1.165 1.097 1.17 2.272-.111 2.191 1.3 1.54 3.105Zm-11.566-28.92c.456-.32 1.013.106 1.525-.009.709-.158 1.112-.766 1.905-.83-.221.704-.635.638-.985 1.191-.119.189-.057.641-.163.75-.888.91-1.195.167-2.101-.522.079.83.238 1.093-.544 1.316-.708.201-1.877-.542-2.234-1.112.301-.603 2.051-.4 2.597-.784Zm5.652-1.298c.769.074-.157 2.343-1.26.142a6.17 6.17 0 0 1 1.26-.142Zm3.955-.438c1.213-.248 5.259-1.401 5.71.487.08-.047.381-1.113.521-.983.561.521.623 1.212.581 1.936-.678-1.41-.437-.172-.896-.268-.12-.026-.303.198-.606.106-.398-.122-.683-.968-.934-1.255-.419.597-.937 1.366-1.774 1.314-.593-.036-1.548-1.563-.781.108-.45-.149-.972-.486-1.474-.418-.562.076-.854.63-1.381.72-1.169.198-1.345-.926-2.103-1.536 1.046-.061 2.104-.001 3.137-.212Zm7.339-.019c.086-.387 1.147-.543 1.417-.42.66.3.416.695.295 1.353l-1.469-.695c.731 1.177-.593 1.348-.243-.238Zm205.477 68.924c-.086-2.82-.168-5.689-.883-8.434-.501-1.921-1.73-5.366-4.054-5.7-3.506-.503-5.447 6.426-6.43 8.804-.196-2.8-.024-5.78-1.082-8.438-.847-2.13-2.986-4.147-4.829-1.755-1.639 2.128-1.954 5.27-2.386 7.832-.559 3.319-.895 6.663-1.303 10.001-1.602-3.094-1.881-6.636-3.147-9.852-1.194-3.035-3.074-5.933-4.884-8.633-1.478-2.205-3.277-4.278-5.593-5.626-2.016-1.173-5.541-2.442-7.462-.493-1.603 1.625-1.352 3.8-1.269 5.852.038.914.181 1.54-.622 2-.395.227-1.012.11-1.446.23-.699.196-1.235.526-1.826.966-4.146 3.081-6.057 8.634-6.649 13.585-.748 6.273 1.697 11.651 3.801 17.39.335.915 1.401 2.855 1.253 3.877-.161 1.119-1.565 1.148-2.513 1.171-2.862.07-5.853-.143-8.701-.409-6.78-.635-13.554-3.899-19.625-6.813-1.108-.532-2.675-.836-3.579-1.674-.85-.787-1.074-2.048-1.807-2.951-1.801-2.215-2.948-4.106-5.599-5.445-2.7-1.362-5.455-2.622-8.089-4.115-3.257-1.846-6.267-4.186-9.388-6.253-5.801-3.842-11.563-8.054-17.714-11.32-2.858-1.52-6.051-1.765-9.019-3.008-2.889-1.21-6.436-1.212-9.451-.448-1.469.373-2.469 1.256-3.82 1.832-1.583.675-2.874-.07-4.267-.876-2.129-1.232-4.239-3.239-1.208-4.568 1.029-.45 2.317-.621 3.215-1.33.958-.755 1.726-2.149 2.505-3.095 1.73-2.103 2.764-4.524 5.297-5.832 2.802-1.447 6.122-1.84 9.109-2.786 3.236-1.023 6.405-2.241 9.581-3.437 5.722-2.153 11.671-4.479 15.783-9.22 3.546-4.09 5.092-9.37 4.948-14.733-.292-10.962-6.164-22.088-14.59-28.942C195.861 3.526 182.718.724 169.667.87c-6.125.069-13.434.87-18.545 4.591-4.414 3.215-5.148 8.836-4.491 13.911.266 2.06 1.177 4.777-.276 6.592-.813 1.015-2.272 1.267-3.367 1.9-1.376.795-2.589 1.558-4.148 1.978-6.62 1.788-13.593 1.165-20.361 1.067-11.276-.166-22.833 2.887-31.245 10.832-6.792 6.416-8.83 18.514-.545 24.768 6.693 5.053 17.192 4.497 25.084 3.616 2.448-.274 4.13-.671 4.136 2.323.006 3.27-.535 6.69.299 9.9 1.314 5.057 6.173 5.178 10.47 4.089 2.267-.575 4.458-1.439 6.611-2.344 3.157-1.327 6.051-3.278 9.169-4.603 2.114-.898 3.697 2.005 5.572-.007.347-.372.411-.927.933-1.117.819-.298 2.193.747 2.911 1.078 1.076.495 2.16.86 2.589 2.052.403 1.115.226 2.889-.159 3.989-.836 2.392-3.089 1.919-5.146 1.76-3.588-.28-7.151-.872-10.737-1.12-3.218-.224-6.231.738-9.006 2.325-5.829 3.332-10.598 8.632-15.652 12.991-2.601 2.244-5.115 4.667-7.944 6.621-1.23.849-2.562 1.63-3.631 2.686-1.061 1.047-1.177 1.999-1.54 3.392-.646 2.481-3.855 3.694-5.86 5.003-2.836 1.851-5.843 3.157-9.022 4.293-6.734 2.405-13.52 4.084-20.56 5.326-3.446.608-6.864 1.007-10.344 1.335-3 .283-6.19 1.207-9.186.469.863-1.4 2.392-2.24 3.583-3.322 1.535-1.395 2.841-3.048 4.003-4.76 2.262-3.334 3.848-6.912 4.213-10.957.328-3.64-.048-7.994-2.245-11.069-.758-1.062-2.26-1.351-2.938-2.308-.675-.951-.418-2.589-.788-3.698-.94-2.82-3.733-6.316-6.19-7.954-2.667-1.778-6.567-2.431-9.648-1.505-5.706 1.717-9.21 7.814-11.821 12.743-1.427-3.001.962-7.454-1.825-9.912-2.35-2.073-4.215 1.943-5.001 3.661-3.69 8.066-4.528 16.621-6.074 25.251-.63-.621-.307-2.215-.248-2.955.11-1.379.1-2.732.103-4.117.008-3.498.658-7.012.36-10.507-.172-2.02-.816-6.28-3.752-5.61-2.49.57-4.048 4.07-4.83 6.21-1.129 3.088-1.39 6.144-1.319 9.405.078 3.603-.609 7.147-.775 10.745-.323 6.989-.004 13.917 2.001 20.662 3.284 11.045 10.834 20.222 20.91 25.764 5.553 3.054 11.712 4.986 18.044 5.401 3.432.225 6.745-.183 10.147-.538 3.357-.35 6.732-.512 10.084-.923 7.464-.915 14.737-3.279 21.522-6.458 3.57-1.674 6.929-3.729 10.442-5.514 1.41-.715 2.362-1.611 3.564-2.607 1.193-.986 1.523-1.064 2.879-1.064-.397-1.064.764-1.392 1.28-2.065l-.087.979c.394-.854.761-.846 1.1.025.335-.975.584-1.978.989-2.928 1.548.783 1.418 2.646 3.488 1.286 1.705-1.12 3.273-2.44 5.011-3.537 3.96-2.499 7.374-5.751 11.345-8.222 0 2.406.17 4.834-.152 7.228-.306 2.276-1.156 4.404-1.832 6.583-1.246 4.021-1.333 8.318-2.714 12.299-.572 1.648-2.06 3.027-2.487 4.631-.435 1.637.57 2.949-1.115 4.024-1.188.758-2.672 1.078-3.988 1.536-2.006.699-3.911 1.686-5.864 2.523-9.161 3.926-18.097 7.924-26.585 13.202-8.055 5.008-16.233 10.181-23.632 16.13-6.422 5.162-12.914 11.837-14.477 20.259-1.517 8.169 2.525 16.937 10.64 19.627 4.22 1.399 8.99 1.226 13.384 1.286 4.729.066 9.74-1.074 14.388-1.899 4.91-.87 9.735-2.233 14.659-3.011 4.724-.746 9.057-2.414 13.704-3.441 4.949-1.095 10.026-1.689 15.002-2.673 2.241-.444 4.436-1.098 6.682-1.508 2.46-.449 4.946-.618 7.382-1.213 4.724-1.155 9.248-3.016 13.992-4.09 2.134-.483 4.234-1.13 6.368-1.581 1.965-.416 3.496-1.52 5.465-.613 1.591.733 2.86 1.989 4.365 2.864 1.953 1.135 4.012 2.152 6.047 3.129 4.091 1.963 8.334 3.319 12.61 4.793 4.493 1.548 8.905 3.314 13.559 4.336 4.772 1.048 9.64 1.34 14.444 2.169 9.84 1.697 19.596 2.459 29.584 2.521 5.049.032 10.097-.567 15.133-.496 4.459.063 8.336 1.068 12.413-1.303 6.515-3.788 14.072-9.493 13.912-17.78-.146-7.506-4.648-14.677-8.871-20.597-5.129-7.189-12.441-12.251-19.607-17.211-7.638-5.284-16.217-8.936-24.245-13.549-4.105-2.359-7.891-4.898-12.349-6.574-2.128-.8-4.204-1.728-6.307-2.59-1.692-.693-4.136-1.076-5.584-2.226-.904-.718-.991-1.804-1.229-2.872-.529-2.361-1.359-4.6-2.164-6.877-1.554-4.397-2.587-8.876-3.255-13.488-.637-4.396-2.05-8.968-1.318-13.436 4.814 4.657 9.762 9.134 14.688 13.668 1.846 1.699 3.658 3.434 5.514 5.123 1.393 1.268 3.135 3.151 5.077 3.527 2.48.481 1.574-2.263 3.277-2.688 1.041-.26 4.18 2.385 5.003 2.907 5.216 3.311 10.991 5.41 16.728 7.664 6.015 2.363 12.202 4.462 18.675 5.057 5.979.55 12.093-.156 17.862-1.785 11.491-3.244 19.946-10.941 26.152-20.918 7.07-11.369 12.215-24.687 11.799-38.259Z" clip-rule="evenodd"/><path fill="#1D1D1D" fill-rule="evenodd" d="m148.32 79.792-.019.04c.022-.014.028-.028.019-.04Z" clip-rule="evenodd"/><path fill="#1D1D1D" fill-rule="evenodd" d="M148.875 79.939a4.03 4.03 0 0 0-.279-1.064c-.38.603-.72.861-.221 1.5l.5-.436ZM175.372 166.129c.425-.452-.319-.623-.602-.629.028.486-.212 1.65.452 1.875a1.327 1.327 0 0 1 .15-1.246ZM164.147 71.391c-.731 1.412.884 1.85 1.82 1.168.703-.513 1.119-1.82 1.235-2.66.374-2.714-1.526-5.297-2.473-7.706-.244-.622-.58-2.758-1.368-2.816-.905-.068-.972 1.899-.984 2.406-.035 1.53.37 3.089.845 4.533.512 1.557 1.78 3.426.925 5.075ZM167.625 65.728c2.811 2.502 5.059-1.666 4.863-4.132-.049-.61-.461-2.863-1.62-2.044-.582.412-.086 1.75-.363 2.338-1.345 2.849-2.639-1.57-3.544-1.917-1.102-.422-1.213 1.025-1.211 1.798.003 1.536.733 2.94 1.875 3.957ZM157.422 66.116c.662-1.042 1.476-2.44 1.566-3.69.14-1.94-.991-1.779-1.922-.424-.658.956-1.151 2.58-2.603 2.176-1.793-.497-1.245-2.908-2.249-4.053-2.534 3.404 2.262 10.63 5.208 5.991ZM161.22 76.532c1.048.227 3.781.143 2.834-1.462-1.194-2.021-5.165.958-2.834 1.462ZM197.937 16.25c.191-.571-.072-.675-.529-1.125-.434.4.121.82.529 1.125ZM217.485 119.731c.692.11.914-.256.668-1.097-1.091-.071-1.313.295-.668 1.097ZM179.729 31.456c.762.349.47 1.064.457 1.669.393-.427 1.187-1.207.863-1.82-.497-.946-1.798-.067-1.32.151ZM153.75 19.555l-.349-.68c-.473.38-1.205 1.385-.452 1.875.309-.375.576-.773.801-1.195ZM162.901 26.226c.949.745.494-1.54.465-1.726-.141.268-.944 1.35-.465 1.726ZM162.375 25.067l-.218-.567c-.384.356-.856 1.083-.22 1.5.174-.292.32-.603.438-.933ZM168.402 32.91l.232.215c.313-.631-.043-1.106-.634-1.125.042.355.176.658.402.91ZM142.974 103.938a6.125 6.125 0 0 0 1.026-.877c-1.114-.681-.446.795-1.788-.111-.289.399.183 1.293.762.988ZM189.788 165.875c.424-.65.5-.632-.078-1.125-.483.803-.433.597.078 1.125ZM101.25 62.404l.692.721c.108-.315.695-1.204.296-1.5l-.988.779ZM109.453 64.783c-.369-.061-1.249-.33-1.453.013.539.441 1.754.038 1.453-.013Z" clip-rule="evenodd"/></g><defs><clipPath id="a"><path fill="#fff" d="M-558-221H882v938H-558z"/></clipPath></defs></svg>