<svg width="324" height="250" viewBox="0 0 324 250" fill="none" xmlns="http://www.w3.org/2000/svg">
<rect width="324" height="250" fill="#E5E5E5"/>
<g clip-path="url(#clip0_0_1)">
<rect width="1440" height="938" transform="translate(-558 -221)" fill="white"/>
<path d="M354 -19H-30V269H354V-19Z" fill="white"/>
<path fill-rule="evenodd" clip-rule="evenodd" d="M101.25 113.793C102.427 125.681 103.605 137.57 104.782 149.458C111.193 145.8 117.603 142.142 124.014 138.484V165.567V172.686C124.014 173.316 123.64 175.48 124.014 176.025C124.331 176.488 126.68 176.501 127.235 176.579C130.86 177.087 134.493 177.538 138.131 177.94C147.72 178.999 157.984 180.516 167.609 179.299C175.976 178.241 184.088 175.265 191.732 171.802C194.416 170.587 197.063 169.286 199.66 167.895C200.21 167.6 202.209 166.904 202.509 166.304C202.753 165.814 202.179 164.091 202.103 163.576C201.78 161.404 201.457 159.232 201.134 157.06L196.622 126.727L205.145 135.237C205.813 135.904 207.08 137.797 208.004 138.092C208.682 138.309 210.359 137.638 211.029 137.509C215.854 136.579 220.68 135.649 225.506 134.72C226.63 134.503 229.164 134.511 230.112 133.832C230.622 133.466 230.646 132.722 230.826 132.016C232.003 127.405 233.18 122.794 234.357 118.183C234.569 117.353 235.752 114.734 235.451 113.897C235.343 113.598 234.821 113.393 234.502 113.197C227.219 108.749 219.935 104.3 212.652 99.8514C208.662 97.4145 204.672 94.9775 200.682 92.5406C199.011 91.5196 196.957 89.6803 195.064 89.1093C193.888 88.7546 192.178 89.0203 190.961 88.9855C188.489 88.9149 186.017 88.8444 183.545 88.7738C183.158 88.7629 181.802 88.4869 181.477 88.715C181.205 88.9047 181.318 89.1693 181.229 89.6215C181.011 90.726 181.01 91.917 180.903 93.0383C180.817 93.9382 180.988 95.5881 180.582 96.4025C180.323 96.923 180.652 96.7157 180.301 96.9673C179.884 97.2667 178.552 97.1703 178.055 97.2279C175.633 97.5093 173.21 97.7907 170.788 98.0721C167.908 98.4064 164.996 99.0343 162.102 98.7451C157.715 98.3073 152.985 98.3288 148.678 97.4047C147.559 97.1644 147.155 96.5338 146.292 95.6716C144.606 93.9887 142.938 92.2862 141.234 90.6209C140.399 89.805 140.757 89.9433 139.896 90.2529C138.817 90.6405 137.723 91.5764 136.746 92.1714C133.005 94.4504 129.263 96.7294 125.522 99.0084L102.679 112.922C102.203 113.213 101.726 113.503 101.25 113.793Z" fill="#FD4300"/>
<path fill-rule="evenodd" clip-rule="evenodd" d="M319.731 115.271C315.022 133.148 305.552 152.64 286.472 158.338C281.834 159.723 277.321 160.769 272.503 160.241C272.045 160.191 271.661 160.256 271.225 160.264C270.443 160.279 271.118 160.56 270.242 160.289C269.558 160.078 268.919 159.55 268.207 159.317C266.313 158.698 264.295 158.578 262.371 158.077C257.643 156.847 252.771 155.329 248.19 153.633C246.033 152.834 244.05 151.722 242.021 150.652C239.959 149.565 237.773 148.89 235.687 147.893C234.039 147.104 231.215 146.077 230.056 144.599C228.821 143.022 230.53 139.665 231.019 137.989C232.681 132.285 234.66 126.665 235.909 120.848C240.221 125.846 246.207 128.941 252.403 130.937C255.766 132.02 259.224 132.803 262.721 133.294C265.896 133.738 269.322 134.277 272.504 133.645C274.907 133.168 277.923 132.064 279.639 130.23C280.251 129.576 280.986 128.375 280.642 127.424C280.207 126.217 278.938 126.785 278.251 125.885C277.653 125.1 277.747 123.265 277.556 122.309C277.219 120.618 276.755 118.973 276.19 117.345C275.092 114.184 273.724 111.016 273.396 107.653C273.111 104.735 273.776 101.975 275.232 99.4434C275.919 98.2463 277.647 94.9901 279.333 95.1252C281.184 95.2736 278.688 103.077 278.606 104.668C278.282 110.978 279.129 117.702 282.367 123.232C283.606 125.35 285.399 127.816 288.046 128.078C290.85 128.356 293.112 126.15 294.446 123.918C297.702 118.472 296.061 111 294.411 105.293C292.389 98.2907 287.109 93.4642 283.77 87.1756C288.755 87.6768 291.424 90.8431 293.982 94.8604C296.798 99.2831 298.99 104.593 300.072 109.74C300.618 112.34 300.241 114.95 300.244 117.576C300.245 118.448 300.245 121.666 301.667 121.54C303.187 121.404 303.708 117.775 303.932 116.668C304.444 114.128 304.999 111.588 305.443 109.036C306.231 104.521 306.581 99.8962 307.524 95.4122C307.683 94.6542 308.001 92.5511 309.135 93.119C310.01 93.5561 309.87 96.8088 309.902 97.5649C309.98 99.4281 310.091 101.291 310.106 103.156C310.128 105.92 309.577 108.781 309.847 111.529C310.024 113.324 310.987 115.307 312.182 112.886C313.366 110.485 313.608 107.491 314.268 104.909C314.962 102.198 315.678 99.4477 317.15 97.0402C317.559 96.3721 317.998 95.3117 318.905 95.6259C319.565 95.8545 320.052 97.4176 320.256 97.9694C321.175 100.463 321.019 103.235 320.961 105.845C320.89 109.043 320.547 112.17 319.731 115.271ZM227.912 119.91C227.66 119.829 226.591 119.727 226.326 119.704C226.016 119.677 226.368 119.105 225.616 119.268C225.761 119.627 226.019 119.867 226.39 119.988C225.259 120.37 224.425 119.426 223.652 119.304C222.913 119.188 222.881 119.304 222.151 120.085C221.36 119.121 221.508 119.722 220.858 119.723C220.621 119.723 220.611 120.081 220.226 120.038C219.89 120 219.855 119.49 219.656 119.43C218.577 119.103 217.466 120.747 216.243 119.321C215.946 120.804 212.548 118.947 211.241 119.207C209.871 119.48 210.462 119.971 209.355 119.132C208.299 118.332 208.594 118.863 207.366 119.518C207.395 119.502 206.673 119.99 206.74 119.998C205.891 119.898 205.939 119.02 204.863 119.066C203.724 119.116 203.238 120.009 202.196 118.91C201.969 119.733 201.922 119.378 201.388 119.586C201.094 119.656 200.837 119.578 200.617 119.354C200.55 119.581 200.403 119.719 200.176 119.77C199.594 119.822 198.502 119.903 197.974 119.623C197.181 119.203 197.819 119.041 197.269 118.568C197.022 119.872 196.482 119.595 195.343 119.717C194.474 119.81 194.283 119.543 193.453 119.414C192.635 119.286 191.579 119.603 190.781 119.738C190.452 119.795 190.011 120.024 189.676 119.943C189.374 119.871 189.245 119.636 189.064 119.575C188.845 119.501 188.892 119.31 188.514 119.217C188.253 119.153 187.785 119.398 187.525 119.44C185.666 119.742 183.88 119.745 182.107 119.014C182.98 120.549 180.065 119.72 179.545 119.085C178.896 120.102 178.11 119.384 176.801 119.463C175.54 119.54 173.644 119.926 173.133 118.356C173.033 118.675 172.317 119.601 172.032 119.742C171.206 120.152 171.107 119.546 170.339 119.299C169.293 118.963 169.511 119.601 168.863 119.731C167.768 119.95 167.176 119.179 166.209 118.769C166.168 119.406 166.147 119.798 165.596 120.195C165.108 118.418 163.367 120.34 163.666 117.966C163.003 118.397 162.071 118.729 161.883 119.601C162.99 119.296 162.001 120.02 161.954 120.044C161.808 120.121 161.313 119.427 161.198 119.329C161.167 119.656 161.136 119.984 161.105 120.311C160.663 120.091 160.249 119.696 159.891 119.498C159.568 119.319 160.031 118.948 159.485 118.923C159.198 118.909 158.898 119.531 158.596 119.584C158.135 119.665 158.357 119.004 158.164 119.026C157.87 119.06 157.391 119.49 157.168 119.482C156.439 119.454 156.932 119.115 156.376 118.96C155.382 118.681 155.446 119.332 154.731 119.566C153.096 120.103 153.26 117.633 151.596 119.28C151.198 119.674 150.942 120.283 150.397 120.249C149.267 120.178 149.664 118.84 149.894 118.184C150.131 118.301 145.768 120.542 145.802 120.455C145.83 119.917 146.516 119.503 145.903 119.026C145.402 120.101 144.874 120.12 143.718 120.32C143.155 120.418 143.045 120.548 142.443 120.314C142.06 120.166 141.803 119.555 141.422 119.521C141.473 119.526 140.774 120.058 140.667 120.106C140.036 120.39 139.637 120.068 139.024 120.185C138.501 120.284 138.295 120.729 137.775 120.607C137.08 120.445 137.488 119.616 136.533 119.847C136.206 119.926 136.01 120.555 135.496 120.685C134.694 120.888 133.711 120.51 132.863 120.707C132.191 120.864 131.691 120.931 131.103 120.963C130.628 120.99 130.823 120.621 129.948 121.057L129.577 120.122C129.14 120.516 128.701 120.909 128.264 121.303C128.18 120.95 128.128 120.593 128.106 120.231C127.452 120.885 126.63 120.996 125.752 121.055C124.801 121.119 124.093 121.326 123.168 121.5C122.875 121.555 122.122 121.642 121.881 121.54C121.917 121.555 121.431 121.353 121.578 121.392C121.515 121.263 121.456 121.133 121.402 121C121.32 120.631 121.055 120.615 120.606 120.952C120.374 120.916 119.924 120.612 119.693 120.687C119.096 120.88 119.177 121.343 118.583 121.275C118.197 121.23 118 120.661 117.598 120.622C116.984 120.563 116.451 121.251 115.897 121.401C117.581 120.944 113.713 121.298 114.916 121.33C114.127 121.309 113.309 121.27 112.58 121.624C112.177 121.348 112.666 120.795 112.259 120.567C111.89 120.361 111.862 120.906 111.819 120.918C112.051 120.852 111.935 121.316 111.702 121.399C110.977 121.656 110.396 121.002 110.358 120.353C109.742 121.282 109.569 120.908 108.662 120.966C107.767 121.022 106.996 121.491 106.101 121.483C104.332 121.466 103.131 120.851 102.54 119.271C104.426 119.5 106.324 118.288 108.167 118.574C108.774 118.667 109.152 119.123 109.683 119.042C110.337 118.942 110.794 118.229 111.632 118.152C113.482 117.982 115.306 118.147 117.169 117.864C119.394 117.525 121.715 117.324 123.962 117.489C125.697 117.617 127.103 116.953 128.863 116.825C131.139 116.66 133.434 116.63 135.714 116.511C138.056 116.388 140.577 116.014 142.913 116.134C143.642 116.171 144.269 116.243 144.993 116.199C145.299 116.181 145.589 115.973 145.91 116.004C146.329 116.044 146.508 116.472 146.942 116.457C147.68 116.432 148.468 115.825 149.344 115.808C150.785 115.781 152.22 115.784 153.665 115.702C154.937 115.63 156.3 115.333 157.566 115.349C158.459 115.36 158.68 116.121 159.2 116.2C160.136 116.341 164.871 113.647 165.28 116.065C167.745 114.378 171.051 115.806 173.794 115.489C177.319 115.082 180.909 115.445 184.457 115.3C188.068 115.152 191.783 115.289 195.38 115.63C196.869 115.771 198.309 115.903 199.803 115.817C200.468 115.779 201.238 115.609 201.905 115.763C202.066 115.8 203.301 116.662 203.148 116.687C203.822 116.081 203.366 115.992 204.553 115.961C205.468 115.937 206.333 116.135 207.243 116.189C208.876 116.285 210.521 116.059 212.15 116.109C213.511 116.151 214.841 116.351 216.208 116.361C217.683 116.372 219.423 116.413 220.49 117.602C220.377 117.229 220.265 116.856 220.152 116.483C221.798 116.611 223.424 117.199 225.087 116.924C224.667 117.327 224.239 117.657 224.079 118.248C224.976 118.134 225.583 117.508 226.528 117.503C227.321 117.498 227.486 117.896 228.323 117.382C228.427 118.012 228.529 118.642 228.632 119.271C229.792 118.998 229.031 118.133 229.116 117.354C230.059 117.637 230.857 117.312 230.486 118.668C230.199 119.713 228.894 120.229 227.912 119.91ZM226.282 131.556C225.878 132.692 222.379 132.043 221.552 131.923C220.483 131.768 219.26 131.523 218.276 131.401C218.158 131.244 218.016 131.11 217.852 131C217.728 131.172 217.571 131.295 217.382 131.367C216.93 131.466 216.928 131.932 216.334 131.829C216.307 132.52 216.786 132.127 217.154 132.378C216.228 132.998 216.651 132.284 216.132 132.295C216.003 132.113 215.824 132.041 215.594 132.08C215.301 132.156 215.032 132.282 214.785 132.456C214.553 132.701 214.355 132.713 214.19 132.494C214.032 132.335 213.839 132.237 213.611 132.2C212.699 132.348 212.444 132.753 211.417 132.687C209.95 132.592 208.362 132.979 206.918 132.775C206.023 132.649 204.527 131.243 204.12 132.614C203.501 131.597 202.516 130.906 201.923 129.867C204.683 129.708 207.443 129.518 210.205 129.418C212.624 129.331 215.27 129.603 217.53 129.489C219.648 129.382 221.89 129.148 224.052 128.955C226.344 128.75 227.102 129.253 226.282 131.556ZM154.272 131.724C155.275 132.001 156.229 131.372 157.201 131.571C157.522 131.637 158.188 132.222 158.334 132.233C158.602 132.255 159.388 131.68 159.726 131.603C161.861 131.117 164.447 131.169 166.582 131.468C167.713 131.626 167.886 131.108 168.874 130.857C169.9 130.595 171.358 130.797 172.439 130.724C174.981 130.554 177.522 130.675 180.047 130.489C182.639 130.299 185.218 130.195 187.811 130.062C189.578 129.971 193.823 128.963 195.287 130.275C196.494 131.356 194.939 133.233 193.731 133.662C192.828 133.981 192.395 133.307 191.725 133.372C190.962 133.445 191.228 134.347 190.546 133.51C190.124 134.342 187.47 133.988 186.709 134.043C185.052 134.162 183.65 134.495 182.522 132.949C182.598 133.395 182.675 133.841 182.751 134.286C181.255 133.487 179.649 133.743 178.351 134.022C177.708 134.16 175.734 135.113 175.037 134.702C174.558 134.419 175.403 133.935 174.594 133.694C174.17 133.567 173.438 134.271 172.92 134.236C171.487 134.137 171.894 133.173 170.486 134.4C170.009 133.988 169.85 133.287 169.913 132.685C168.89 133.558 168.976 135.011 167.148 134.745C166.466 134.646 166.341 133.951 165.986 133.823C165.229 133.55 165.143 134.041 164.488 134.43C164.24 134.576 163.938 134.812 163.647 134.842C163.048 134.902 162.953 134.627 162.871 134.636C162.473 134.68 161.972 134.882 161.499 134.737C161.075 134.607 160.951 133.859 160.204 134.034C159.488 134.202 159.483 134.687 159.612 135.414C158.907 135.341 158.481 134.949 157.953 134.523C157.42 135.766 156.299 134.737 155.679 135.785C154.871 134.82 154.353 135.086 153.351 134.144C153.4 134.537 153.449 134.93 153.498 135.323C152.716 135.172 152.368 134.621 151.701 135.35C151.053 134.144 149.089 135.863 148.081 134.698C147.631 136.174 144.657 135.821 143.4 135.846C142.287 135.869 141.463 135.778 140.375 136.036C139.414 136.265 138.081 136.502 137.177 136.397C136.586 136.329 135.941 136.22 135.205 136.3C134.144 136.416 133.227 136.965 132.128 136.705C130.473 136.314 129.459 134.14 131.302 133.185C132.564 132.532 134.836 132.774 136.224 132.653C138.525 132.453 141.103 132.034 143.407 132.225C145.204 132.373 146.842 131.945 148.675 131.764C150.056 131.627 152.318 131.382 153.218 132.75C153.564 132.35 153.528 131.518 154.272 131.724ZM129.087 150.45C128.839 149.219 139.358 148.542 140.402 148.461C142.594 148.293 144.792 148.172 146.989 148.116C148.795 148.07 150.48 148.415 152.287 148.138C153.974 147.879 156.01 147.348 157.479 148.543C157.695 146.909 164.026 147.705 165.231 147.71C170.474 147.729 175.492 147.741 180.564 147.416C183.462 147.231 186.54 146.981 189.439 147.126C190.747 147.191 191.8 147.54 193.1 147.237C193.948 147.04 194.862 146.63 195.674 147.21C196.623 147.889 197.029 150.195 196.375 151.158C195.898 151.859 195.477 151.782 194.716 151.66C193.546 151.474 192.677 151.204 191.484 151.679C191.677 151.602 190.685 151.823 190.767 151.817C189.416 151.918 187.563 152.862 186.398 151.774C186.865 151.856 187.543 151.023 186.955 150.954C186.513 150.903 186.233 151.376 185.888 151.535C184.709 152.077 184.106 151.908 183.402 150.77C181.982 151.999 181.829 151.659 181.206 150.146C180.726 150.515 180.623 151.389 180.245 151.676C180.189 151.719 180.421 152.25 180.149 152.228C179.896 152.207 179.813 151.793 179.618 151.76C179.494 151.739 179.429 151.375 179.31 151.353C179.181 151.329 179.049 151.561 178.903 151.555C178.513 151.536 177.397 152.366 177.797 151.201C177.206 151.953 176.952 151.474 176.738 150.79C176.056 151.308 175.374 151.827 174.691 152.346C174.373 151.464 173.827 151.704 173.14 152.012C173.347 151.399 173.217 150.819 172.698 151.246C172.397 151.492 172.195 152.275 171.887 152.608C170.641 151.346 170.188 151.692 168.466 151.856C167.809 151.919 166.993 152.04 166.406 151.643C165.89 151.294 165.598 150.014 164.715 151.048C164.912 150.818 164.604 152.585 164.549 152.866C164.16 152.604 163.829 152.281 163.557 151.898C163.049 152.904 161.716 152.002 160.623 152.207C158.903 152.531 157.129 153.075 155.61 151.795C155.502 152.209 154.258 152.735 154.256 152.751C154.33 152.019 154.791 152.277 153.848 152.138C153.675 152.112 153.478 152.424 153.314 152.458C152.752 152.575 152.095 152.464 151.529 152.448C149.172 152.38 147.015 152.903 144.687 153.092C143.903 153.156 142.972 153.281 142.236 152.985C141.477 152.68 141.498 152.334 140.73 152.53C140.973 152.468 140.25 153.227 140.289 153.199C140.186 153.274 139.756 152.903 139.603 152.931C139.558 153.093 139.514 153.255 139.469 153.417C139.284 153.394 139.099 153.371 138.914 153.348C138.408 153.416 137.951 152.904 137.476 152.887C137.563 152.89 136.193 153.4 136.255 153.431C135.298 152.954 135.573 153.092 134.359 153.383C133.212 153.657 132.069 153.593 130.892 153.765C127.468 154.262 129.508 152.546 129.087 150.45ZM126.063 167.569C125.419 166.656 127.132 166.34 127.679 166.259C128.579 166.127 129.773 166.391 130.372 166.248C131.286 166.03 132.167 165.512 133.195 165.371C134.492 165.194 135.8 165.165 137.103 165.054C137.537 165.017 138.074 164.868 138.496 164.893C139.125 164.93 139.386 165.263 139.894 165.265C140.759 165.27 141.826 164.724 142.712 164.624C143.847 164.495 144.993 164.435 146.133 164.378C148.536 164.259 150.914 164.308 153.315 164.306C154.411 164.304 157.327 163.167 157.874 164.442C158.633 163.476 160.581 163.608 161.666 163.58C163.579 163.531 165.471 163.346 167.382 163.257C169.018 163.181 170.847 163.531 172.454 163.286C173.339 163.151 173.632 162.867 174.637 162.995C175.383 163.09 176.52 162.696 177.16 162.87C177.127 162.861 177.959 163.377 177.7 163.393C177.986 163.375 177.969 163.575 178.284 163.485C178.698 163.369 178.508 162.848 179.367 162.663C180.705 162.374 182.491 162.709 183.882 162.634C185.231 162.563 186.578 162.532 187.929 162.538C188.551 162.541 189.32 162.392 189.925 162.513C190.221 162.573 190.851 162.96 191.102 162.921C191.814 162.81 192.177 162.315 193.139 162.346C194.23 162.38 195.212 162.365 196.296 162.282C197.346 162.202 197.515 162.052 198.036 162.926C198.551 163.793 198.694 164.921 197.744 165.51C198.361 165.47 199.12 166.296 198.393 166.753C197.944 167.036 197.043 166.398 196.505 166.444C195.843 166.501 195.323 166.851 194.602 166.873C193.843 166.896 193.074 167.087 192.326 167.101C191.547 167.117 190.959 166.769 190.22 166.917C189.57 167.048 189.501 167.58 188.719 167.112C188.33 166.88 188.264 166.018 187.734 166.01C187.023 165.999 187.306 166.918 186.897 167.343C186.788 166.03 185.774 168.203 185.37 166.609C184.999 167.138 183.623 167.879 182.956 167.453C182.349 167.066 182.55 166.188 182.297 165.556C181.876 166.692 180.745 167.871 180.848 165.803C180.299 166.479 178.815 166.372 179.186 167.555C178.739 167.546 178.633 166.907 178.257 166.859C177.932 166.818 177.674 167.067 177.624 167.063C177.802 167.078 177.092 167.315 177.081 167.317C177.562 167.219 175.693 167.053 176.011 167.056C175.578 167.052 175.047 167.407 174.54 167.406C174.079 167.405 173.619 167.223 173.164 167.171C171.982 167.036 172.228 167.295 171.486 167.667C171.211 167.804 171.142 168.037 170.751 168.008C170.464 167.986 170.356 167.61 170.323 167.607C169.918 167.566 170.217 167.431 169.588 167.493C169.516 167.618 169.444 167.741 169.372 167.865C169.145 168.156 168.85 168.229 168.489 168.084C167.558 168.283 164.472 169.148 164.774 167.546C164.301 167.777 163.829 168.009 163.356 168.24C163.153 166.948 160.583 168.661 160.009 168.747C159.273 168.858 159.205 168.575 158.509 168.425C158.383 168.398 158.132 168.812 157.838 168.753C157.074 168.599 156.938 168.523 156.807 167.693C156.262 168.711 155.81 168.256 154.822 168.423C154.604 168.461 154.464 168.891 154.15 168.817C153.924 168.763 153.918 168.35 153.762 168.297C153.622 168.248 153.643 167.922 153.436 167.876C153.199 167.823 152.391 168.485 152.159 168.587C151.636 168.818 150.778 169.199 150.267 169.085C149.636 168.944 149.917 168.476 149.025 168.529C147.619 168.611 147.032 169.808 146.157 167.922C145.762 168.678 145.812 168.883 145.178 169.132C144.709 169.316 143.521 169.124 142.904 169.101C140.268 169.004 137.677 169.902 135.062 169.666C133.913 169.563 132.945 169.333 131.785 169.521C130.567 169.719 129.375 170.01 128.139 170.127C127.51 170.186 126.197 170.367 125.889 169.563C125.617 168.856 126.63 168.374 126.063 167.569ZM131.232 196.571C127.813 198.858 124.981 201.981 121.842 204.626C118.694 207.278 116.197 210.226 113.366 213.162C110.749 215.876 108.345 218.445 105.181 220.495C103.179 221.794 101.393 223.392 99.3358 224.616C97.7954 225.532 95.4617 226.738 96.2133 223.934C96.9838 221.061 98.4058 218.156 99.6406 215.473C101.396 211.658 103.165 207.879 105.065 204.136C105.779 202.73 106.178 201.33 107.31 200.21C108.542 198.991 109.404 197.4 110.753 196.248C116.428 191.403 124.979 195.146 131.232 196.571ZM141.958 198.213C140.407 199.026 138.671 199.228 137.027 199.765C135.627 200.223 134.324 201.038 132.818 201.098C134.189 200.068 135.367 198.669 136.913 197.888C138.652 197.009 140.231 197.649 141.958 198.213ZM210.032 204.988C204.327 203.064 199.016 200.227 193.459 197.944C192.5 197.55 184.999 195.08 185.151 193.904C190.408 192.941 195.822 191.288 201.091 193.09C205.885 194.729 209.784 198.661 213.495 201.952C214.463 202.811 220.451 206.721 219.915 207.966C219.544 208.829 216.659 208.594 215.977 208.417C215.097 208.188 214.59 207.654 213.9 207.067C212.746 206.086 211.469 205.473 210.032 204.988ZM199.501 172.829C200.367 172.032 200.886 170.822 201.714 170.086C202.777 169.14 204.493 169.601 205.655 170.092C209.144 171.566 212.126 174.044 215.593 175.582C219.434 177.287 222.761 179.565 226.226 181.912C229.393 184.058 232.818 185.834 236.052 187.882C239.346 189.969 243.034 191.326 246.374 193.338C249.773 195.387 253.159 197.445 256.425 199.702C262.25 203.728 268.314 207.862 272.623 213.586C274.838 216.528 276.911 219.865 278.537 223.169C280.014 226.172 281.616 230.341 279.702 233.465C277.863 236.466 274.73 238.829 272.077 241.068C271.072 241.915 270.117 242.945 268.815 243.313C267.231 243.759 265.383 243.636 263.755 243.768C255.046 244.474 246.933 243.808 238.351 242.25C230.076 240.749 221.766 239.908 213.428 238.864C208.724 238.275 204.02 237.589 199.38 236.609C197.397 236.19 195.378 235.706 193.437 235.135C191.742 234.636 190.317 233.538 188.574 233.103C181.177 231.256 172.714 230.55 165.391 227.443C171.871 224.75 178.758 223.123 185.4 220.885C192.39 218.53 199.217 216.554 206.585 215.884C210.376 215.54 213.77 214.572 217.417 213.558C220.892 212.593 224.521 212.297 228.091 211.864C229.678 211.671 234.209 211.96 234.735 209.884C235.518 206.795 231.067 206.438 229.169 206.715C226.477 207.107 224.257 207.779 222.197 205.571C220.093 203.315 218.049 201.006 215.907 198.779C211.936 194.651 207.842 189.875 202.229 188.023C195.38 185.763 187.438 187.908 180.605 189.193C173.387 190.55 166.181 191.85 159.098 193.823C156.165 194.64 152.383 196.44 149.339 196.151C146.339 195.865 142.941 195.374 140.042 194.509C138.73 194.118 137.652 193.393 136.478 192.716C134.952 191.837 133.28 191.273 131.66 190.589C128.384 189.207 125.191 187.933 121.658 187.39C118.682 186.932 115.522 186.661 112.638 187.704C109.809 188.728 107.302 190.811 105.328 193.038C103.184 195.456 101.411 198.166 99.654 200.868C98.8102 202.165 97.7805 203.297 96.9065 204.565C96.1729 205.63 95.7446 206.813 94.9683 207.848C93.2309 210.163 92.0513 213.124 90.9985 215.818C89.8287 218.809 88.5291 222.367 88.8084 225.622C88.9139 226.852 89.0242 228.481 89.5 229.621C90.1053 231.072 90.9683 231.035 92.2122 231.582C94.3493 232.522 94.9487 235.12 97.7103 234.614C100.301 234.139 102.547 232.004 104.437 230.303C106.901 228.086 109.258 225.748 111.616 223.418C114.034 221.028 116.418 218.376 118.342 215.564C119.1 214.457 119.69 213.206 120.585 212.198C121.725 210.914 123.005 210.759 124.553 210.248C138.09 205.775 151.693 201.461 165.652 198.508C168.997 197.8 172.368 196.888 175.654 195.946C179.138 194.947 180.943 196.003 183.818 197.904C189.826 201.876 196.928 204.674 203.618 207.266C205.725 208.082 209.078 208.134 210.725 209.743C200.964 211.231 191.662 214.094 182.247 216.945C177.606 218.35 172.911 219.569 168.251 220.913C163.59 222.258 159.106 224 154.509 225.516C149.934 227.024 145.099 227.64 140.48 229.031C135.764 230.452 131.068 231.429 126.228 232.292C121.341 233.165 116.487 234.171 111.583 234.952C109.338 235.309 107.093 235.68 104.872 236.171C102.699 236.653 100.6 237.805 98.4163 238.072C88.6644 239.266 79.104 241.924 69.3901 243.427C62.137 244.549 49.5188 246.114 44.8154 238.837C40.0858 231.519 45.8883 222.983 51.0655 217.75C54.2829 214.498 57.8985 211.636 61.6918 209.09C65.7514 206.365 69.6573 203.423 73.7177 200.702C82.9067 194.544 92.8708 189.522 102.743 184.575C107.482 182.2 112.06 179.653 116.67 177.047C118.957 175.753 120.224 177.84 122.032 179.259C123.454 180.375 126.066 183.126 128.056 181.854C128.133 182.312 128.21 182.77 128.286 183.228C128.869 182.962 129.453 182.697 130.035 182.431C130.427 183.458 130.381 184.096 131.475 184.635C132.147 184.967 133.58 185.365 134.221 184.782C134.351 185.187 134.482 185.593 134.613 185.998C135.172 185.955 135.281 184.354 135.386 183.978C136.346 185.38 137.673 186.551 139.359 186.947C139.367 186.855 139.085 185.704 139.097 185.697C139.63 185.37 140.304 186.769 140.586 187.069C141.524 188.061 142.084 187.908 143.12 187.106C143.195 187.188 143.546 188.103 143.597 188.087C143.821 188.016 144.247 187.204 144.293 187.131C144.229 188.197 146.288 188.412 147.015 188.183C146.852 187.871 146.689 187.558 146.526 187.246C149.059 186.908 150.053 189.599 152.484 189.462C154.282 189.361 152.84 188.968 153.857 188.198C154.746 187.525 154.904 188.997 154.991 188.95C155.161 188.772 155.292 188.568 155.386 188.338C155.714 189.598 158.333 190.728 158.062 188.656C159.092 189.068 159.823 189.752 160.963 189.897C162.349 190.072 163.829 189.778 165.211 189.663C168.19 189.416 170.997 188.808 173.682 187.444C175.274 186.635 176.968 185.901 178.464 184.925C179.716 184.108 182.092 181.628 183.759 182.696C183.332 181.436 185.342 182.603 185.406 180.981C185.729 181.225 186.052 181.468 186.374 181.711C186.568 181.287 186.514 180.618 186.773 180.248C187.13 179.74 187.303 180.039 187.607 179.753C187.947 179.433 188.243 178.577 188.65 178.333C189.07 178.082 189.564 178.381 190.016 178.162C190.703 177.828 193.661 174.566 193.16 177.361C194.432 176.929 193.451 176.534 193.61 175.686C193.929 173.988 194.706 175.21 195.48 175.358C196.746 175.601 196.721 174.554 197.427 173.793C198.072 173.098 199.285 172.786 198.867 171.579C199.344 171.836 199.445 172.34 199.501 172.829ZM123.144 136.556C122.146 137.667 121.399 137.192 120.29 137.029C120.171 136.631 119.968 136.576 119.681 136.864C119.353 137.053 118.999 137.177 118.621 137.236C117.711 137.461 116.766 137.365 115.876 137.705C115.902 137.407 116.215 136.877 116.014 136.574C115.078 137.221 114.498 137.633 113.349 137.646C112.417 137.655 110.783 136.944 110.01 137.794C109.986 137.463 109.962 137.133 109.938 136.802C109.56 136.99 109.23 137.243 108.95 137.559C108.897 137.069 108.867 136.698 108.543 136.301C107.928 137.567 107.254 137.597 106.059 137.113C106.226 137.181 104.862 136.381 104.914 136.603C104.483 134.786 111.29 134.936 112.005 134.864C113.789 134.684 115.574 134.579 117.361 134.415C119.056 134.259 120.321 133.995 121.494 135.409C120.971 133.366 125.917 133.468 123.144 136.556ZM45.1018 104.877C45.2893 107.966 45.9765 111.248 44.7758 114.22C43.8104 116.609 41.8847 119.308 39.8104 120.867C35.5629 124.059 31.9626 120.153 31.3714 115.86C30.7552 111.382 31.9767 105.911 35.8324 103.15C38.1362 101.5 40.367 101.614 43.0196 102.157C43.6425 102.284 44.6538 102.235 45.01 102.854C45.0935 102.999 45.0186 104.875 45.1018 104.877ZM101.515 146.022C100.782 146.393 100.014 146.61 99.3672 147.114C99.1424 147.289 99.066 147.687 98.8274 147.835C98.3936 148.103 97.7734 147.925 97.3211 148.146C96.5727 148.512 96.036 149.036 95.1464 149.373C93.8252 149.873 92.6668 150.56 91.4182 151.211C89.3376 152.296 87.1048 153.227 84.9296 154.11C83.8316 154.556 80.7951 155.425 80.9002 157.032C80.6546 157.099 80.4036 156.561 79.8909 156.604C79.1867 156.663 78.2567 157.477 77.5259 157.677C76.1588 158.051 75.1004 158.084 75.1004 159.827C74.6654 159.532 74.5548 158.808 73.9758 158.712C73.3242 158.604 73.05 159.307 72.5287 159.526C71.9148 159.784 71.1514 159.537 70.5434 159.811C70.2774 160.092 69.9821 160.338 69.6569 160.547C69.3262 160.585 68.9971 160.575 68.6695 160.516C67.3789 160.79 66.1911 161.275 64.8974 161.528C63.6367 161.774 62.7733 161.863 63.3032 163.354C61.9546 163.618 61.6251 162.187 60.1035 162.711C58.2382 163.352 56.4949 163.814 54.5477 164.205C53.5549 164.405 52.5173 164.85 51.517 164.955C50.8035 165.029 50.1374 164.774 49.4348 164.853C48.5879 164.948 47.9073 165.341 47.031 165.355C46.1997 165.37 45.3269 165.221 44.5106 165.074C44.6259 165.403 44.7703 165.718 44.9437 166.02C44.3792 165.902 44.1187 165.223 43.6402 165.123C43.1381 165.018 42.6881 165.536 42.27 165.421C42.0919 165.372 42.2103 164.823 41.8918 164.718C41.6015 164.623 41.4791 164.735 41.1912 164.69C41.0951 164.675 39.8908 164.61 39.699 164.711C39.3636 164.889 39.7029 165.222 39.6362 165.272C38.5037 166.11 38.49 165.657 37.9852 164.782C37.2438 163.497 36.3498 164.308 35.0023 164.083C33.5007 163.832 32.3176 164.495 30.8395 164.401C29.2453 164.299 27.3718 163.106 25.9624 162.409C22.9188 160.905 19.9508 159.481 17.3948 157.203C12.398 152.749 8.33287 147.272 5.93609 141.002C3.36082 134.265 2.87283 127.239 3.07956 120.093C3.20391 115.795 3.54793 111.499 4.22539 107.251C4.6918 104.329 4.78947 99.1366 8.08378 97.806C8.65022 104.648 6.86303 111.619 7.99003 118.416C8.32934 120.464 9.15704 123.192 10.7234 124.708C13.0425 126.953 13.585 123.708 13.7949 121.916C14.1852 118.587 14.9105 115.277 15.424 111.964C15.9371 108.652 16.2995 105.304 17.0131 102.027C17.2732 100.833 19.371 92.0833 20.9107 92.4977C20.5992 98.8625 19.7719 105.118 19.7394 111.506C19.7264 114.068 19.497 116.775 19.8669 119.32C20.0571 120.63 21.25 124.474 23.3016 124.153C25.2002 123.857 23.1129 121.149 22.9356 120.105C22.4661 117.342 23.0647 113.903 23.5025 111.16C24.3309 105.968 26.1793 100.651 29.2006 96.3132C31.9065 92.4286 36.0728 88.7305 41.092 89.4154C43.2365 89.7084 44.9096 90.241 45.9871 92.1992C46.8325 93.736 50.1629 95.4822 48.2329 97.4062C46.4759 99.1578 43.6343 97.7558 41.6812 97.3383C39.2899 96.8269 36.7271 97.442 34.7273 98.8433C31.2961 101.247 29.3406 105.544 28.7024 109.575C27.8422 115.009 30.1417 129.233 38.6112 126.046C44.2376 123.927 48.4753 116.309 48.003 110.476C47.8136 108.141 46.9007 103.709 50.1311 103.079C54.2696 102.271 54.8541 106.833 54.4351 109.798C53.8259 114.11 51.5468 118.12 48.9394 121.529C46.6669 124.501 44.0238 126.359 41.2893 128.813C40.4796 129.54 38.4147 131.173 38.7615 132.525C39.1416 134.006 42.3869 134.427 43.6865 134.67C50.115 135.874 57.3646 134.766 63.7822 133.926C76.9724 132.199 89.9892 127.945 100.805 120.123C101.242 124.963 101.793 129.786 101.995 134.643C102.094 137.001 102.119 139.393 102.388 141.737C102.554 143.18 103.154 145.195 101.515 146.022ZM64.9414 162.885C64.4236 163.156 64.9833 161.518 64.8394 162.06C65.6129 162.337 65.6471 162.612 64.9414 162.885ZM119.658 104.319C120.48 103.413 122.726 101.257 123.439 103.303C123.704 102.431 123.738 101.14 124.762 102.317C125.17 100.871 129.666 101.006 130.78 100.942C134.346 100.738 137.927 100.629 141.48 100.275C148.783 99.5471 156.212 99.9225 163.541 99.8986C165.128 99.8935 166.711 99.8075 168.286 100.038C169.807 100.26 171.405 100.883 172.954 100.655C174.332 100.453 175.235 100.073 176.653 100.236C178.35 100.43 179.997 100.568 181.709 100.562C189.281 100.534 196.849 100.841 204.423 100.853C205.899 100.855 207.667 100.567 209.052 101.194C209.565 101.426 210.126 102.2 210.518 102.284C210.967 102.382 210.7 101.681 211.301 101.997C212.106 102.421 211.483 103.723 210.951 103.93C211.27 103.806 210.376 103.684 210.466 103.68C210.041 103.702 209.68 104.027 209.224 104.007C208.531 103.977 207.95 103.554 207.391 103.182C207.382 103.334 207.689 104.347 207.338 104.398C207.037 104.443 206.754 103.443 206.724 103.211C205.029 104.705 203.234 103.872 201.132 104.061C199.641 104.196 196.531 105.19 195.491 103.634C195.448 103.965 195.315 104.254 195.093 104.503C194.795 104.956 194.538 104.917 194.321 104.386C194.248 104.39 193.523 104.547 193.509 104.546C192.999 104.506 192.338 104.323 191.82 104.278C191.017 104.21 191.165 104.794 190.526 104.804C190.176 104.809 189.286 104.304 188.677 104.273C187.623 104.218 186.546 104.665 185.505 104.53C184.789 104.437 184.142 103.854 183.439 103.831C182.564 103.802 182.28 104.47 181.586 103.532C181.444 103.493 181.356 104.045 181.299 104.055C181.313 104.052 180.639 104.152 180.559 104.183C180.421 104.236 179.882 104.483 179.718 104.485C179.364 104.492 179.172 104.238 178.797 104.233C178.176 104.222 176.193 104.769 176.248 103.62C174.032 104.441 172.141 104.121 169.866 104.315C168.823 104.405 168.167 104.265 167.174 104.073C165.931 103.833 165.105 104.135 163.865 104.196C162.673 104.254 162.297 103.75 161.291 103.295C160.894 103.115 160.632 102.878 160.146 102.978C159.868 103.035 160.066 103.502 159.984 103.534C159.556 103.699 159.257 103.524 158.671 103.564C157.589 103.638 157.158 104.543 156.046 103.694C156.415 103.649 156.785 103.603 157.155 103.559C156.091 103.108 154.687 102.878 154.945 104.52C154.038 104.392 154.823 103.775 154.377 103.553C153.931 103.333 153.432 103.702 152.87 103.885C151.387 104.366 150.15 104.127 148.603 104.041C146.846 103.943 142.735 105.377 141.476 103.515C141.438 103.907 141.017 105 140.457 104.949C140.274 104.932 140.783 103.772 140.841 103.649C140.552 104.264 139.235 104.38 138.586 104.699C138.659 104.369 138.731 104.038 138.804 103.709C138.201 104.35 137.908 103.959 137.199 104.173C136.889 104.267 136.441 104.906 136.175 104.945C135.867 104.587 135.478 104.433 135.011 104.483C134.7 104.405 134.389 104.39 134.078 104.437C132.833 104.527 131.698 105.219 130.46 104.748C129.389 104.34 128.974 103.29 128.335 104.96C128.167 104.663 127.999 104.366 127.831 104.07C127.623 104.392 127.416 104.714 127.208 105.036C126.398 104.505 126.348 104.198 125.415 104.393C125.196 104.48 124.971 104.468 124.741 104.356C124.686 104.52 124.631 104.683 124.576 104.846C124.554 105.258 124.432 105.393 124.21 105.254C124.024 105.186 123.855 105.085 123.705 104.948C123.087 104.995 122.299 105.158 121.636 105.068C121.38 105.034 119.777 104.187 119.658 104.319ZM138.55 93.2628C138.622 93.3743 138.695 93.4858 138.768 93.5974C137.766 94.1268 137.53 93.8228 137.426 92.76C137.916 92.7695 137.999 93.6308 138.55 93.2628ZM139.171 92.6391C139.653 92.8519 140.207 93.2702 140.661 92.7098C140.967 93.5993 138.695 94.8133 139.171 92.6391ZM142.288 93.0318C143.301 93.7168 140.87 93.1661 140.874 93.1673C141.311 92.764 141.782 92.7188 142.288 93.0318ZM151.003 89.2132C151.35 90.9664 152.309 90.9165 153.856 90.1016C156.112 88.9127 156.493 86.9659 156.65 84.6412C156.801 82.4124 157.074 81.5495 159.372 82.015C160.976 82.3398 162.333 82.0668 163.951 82.022C165.677 81.9745 166.285 82.238 166.423 84.014C166.563 85.7924 166.879 87.1426 168.17 88.496C169.482 89.8718 171.231 90.6934 172.936 91.4632C173.813 91.8587 174.636 92.2844 175.606 92.3701C175.982 92.4034 177.938 92.156 177.979 92.775C178.01 93.2404 175.301 94.5529 175.013 94.7092C173.757 95.3926 172.504 96.0057 171.131 96.4196C167.974 97.3724 164.626 97.4286 161.355 97.3709C156.082 97.2782 148.794 95.0478 145.641 90.3694C147.428 89.9841 149.216 89.5985 151.003 89.2132ZM150.53 74.0293C149.695 73.329 149.155 72.2714 148.462 71.4423C148.113 71.024 147.856 70.8909 147.524 70.6815C147.173 70.4612 146.976 70.773 146.684 70.255C145.929 68.9161 148.259 67.0321 145.788 66.5169C144.952 66.3421 142.939 67.0046 142.695 65.8068C142.35 64.1129 145.583 64.0021 146.344 63.1424C147.856 61.4332 146.83 58.5355 147.751 56.5635C148.623 54.6956 150.874 54.3638 152.651 53.8025C155.126 53.021 157.632 52.5678 160.146 51.9421C161.903 51.505 164.823 49.7482 166.453 51.3004C163.938 51.8588 165.4 52.7355 167.077 53.2303C168.976 53.7912 170.988 54.0099 172.956 54.1662C174.982 54.3269 177.046 54.3575 179.047 53.9537C180.898 53.5802 182.965 51.9716 184.906 52.3836C183.829 54.2558 180.621 55.2785 178.672 55.769C177.679 56.0188 177.043 55.9406 177.176 57.179C177.306 58.3792 178.349 59.5826 178.585 60.8327C178.896 62.4873 178.624 64.0076 178.035 65.5637C177.456 67.0946 177.32 67.2945 177.827 68.7575C178.616 71.0354 176.92 73.5529 175.353 75.2071C169.015 81.8956 156.885 79.362 150.53 74.0293ZM166.635 34.055C166.66 34.1233 166.639 34.0974 166.635 34.055V34.055ZM168.609 50.9343C168.346 51.1307 166.833 51.5423 166.896 50.9508C166.981 50.1583 168.344 50.4446 168.609 50.9343ZM172.058 34.9241C171.703 34.6594 170.709 34.7682 171.436 33.7647C171.673 34.2062 171.866 34.5651 172.058 34.9241ZM148.187 28.5809C148.64 27.4046 149.141 26.3104 149.345 25.0584C149.471 24.287 149.221 23.4061 150.299 23.2851C148.925 22.6858 148.911 20.3203 148.83 19.0941C148.718 17.4053 148.185 15.1443 148.927 13.5725C149.689 11.958 150.717 11.9847 151.027 13.9076C151.148 14.6604 150.684 14.904 150.596 15.4283C150.423 16.4655 150.767 16.2381 151.436 15.4479C151.712 16.2511 151.818 17.458 152.943 17.4069C152.868 17.1897 152.437 16.7106 152.581 16.4408C152.802 16.0264 153.882 16.6595 154.019 16.7553C155.005 17.445 155.219 18.0746 154.515 18.9445C155.489 19.0494 154.672 19.9016 155.3 20.1239C156.259 20.4629 155.616 18.8569 155.512 18.5745C156.096 18.8023 156.291 19.0623 156.661 19.5234C156.878 19.8415 157.076 20.1718 157.254 20.5135C157.452 21.1372 157.861 21.2935 158.481 20.9825C159.723 21.3721 161.437 21.3112 162.55 21.9922C163.059 22.3033 163.242 22.9839 163.667 23.2423C164.145 23.5333 164.785 23.4014 165.298 23.584C165.111 24.0105 165.263 24.2415 165.754 24.2776C166.136 24.3125 166.505 24.3985 166.862 24.5352C167.13 24.3337 167.421 24.1747 167.734 24.0588C167.946 24.4308 168.244 24.5227 168.63 24.3353C169.775 24.5498 170.325 24.983 171.053 25.6306C171.706 26.2119 171.174 26.259 171.89 26.2075C172.178 26.1867 172.682 25.6989 173.34 25.794C173.718 25.8678 174.083 25.9845 174.435 26.1439C174.815 26.4691 175.219 26.5099 175.645 26.2668C176.339 26.6058 176.407 27.2063 177.253 27.2884C178.188 27.3795 177.887 26.2138 178.529 27.8578C179.394 26.1148 179.711 28.8915 180.603 29.1158C181.528 29.3483 181.628 28.5986 182.42 29.4178C182.657 29.6633 182.644 30.069 182.91 30.3294C183.347 30.7555 183.937 30.6703 184.316 31.2515C184.105 30.9271 184.366 32.4011 184.362 32.3524C184.421 33.0028 183.843 33.7313 185.027 33.676C185.014 33.7443 184.445 34.5734 184.334 34.4795C184.307 34.3849 184.284 34.289 184.266 34.192C184.139 34.2466 184.082 35.0364 184.106 35.1759C184.206 35.1916 184.247 35.1169 184.229 34.952C184.034 35.5611 184.328 35.948 183.954 36.5261C183.714 36.8957 183.06 37.1733 182.711 37.4015C181.872 37.9522 181.05 38.5044 180.231 39.0903C178.321 40.4571 176.182 42.105 173.777 42.3902C174.985 41.2041 181.936 36.7154 178.449 35.4268C177.803 35.188 176.626 34.9618 175.949 34.9115C175.108 34.8491 174.239 35.3306 173.311 35.0301C172.192 34.668 172.614 33.6159 171.93 33.2384C170.478 32.4376 170.821 34.3208 170.364 34.8141C169.884 34.3102 169.987 34.0652 169.229 34.0196C168.459 33.9733 168.276 34.6845 167.378 34.2415C166.141 33.6308 166.795 32.4145 165.04 32.3858C165.07 32.1187 165.324 31.3725 164.989 31.1644C164.538 31.7499 164.887 32.4046 164.468 32.9682C164.259 33.251 163.803 33.4764 163.471 33.568C162.693 33.7816 162.582 34.1908 162.709 33.0193C162.132 34.0581 160.364 33.6308 159.312 33.5263C157.602 33.3563 155.785 33.0326 154.146 32.4844C152.63 31.9769 151.82 31.1054 150.569 30.3125C150.097 30.0124 149.871 30.1271 149.193 29.941C148.524 29.7572 147.872 29.4009 148.187 28.5809ZM151.795 10.1875C152.053 10.032 152.239 12.3527 151.926 12.7863C151.353 11.8802 150.338 10.5512 151.795 10.1875ZM152.62 9.26178C153.45 8.51046 152.873 10.451 152.721 10.7766C152.413 10.5794 152.106 10.3823 151.798 10.1851C152.191 9.94437 152.289 9.56145 152.62 9.26178ZM183.94 6.13436C191.609 7.74383 199.209 10.7522 205.36 15.7032C210.963 20.2127 214.918 26.6109 217.135 33.4167C219.436 40.481 218.663 48.3187 213.188 53.7252C210.304 56.573 206.495 58.2912 202.864 59.9678C201.125 60.771 199.334 61.4402 197.588 62.2249C196.334 62.7885 194.803 63.6903 193.372 63.534C194.102 62.7658 195.161 62.75 196.045 62.2803C197.112 61.7124 197.984 60.6225 198.904 59.8441C199.818 59.0712 201.845 56.6374 203.248 57.2265C203.054 55.93 204.531 55.328 205.197 54.473C205.901 53.5685 205.951 52.5108 207.248 52.2147C205.855 51.1244 206.282 49.068 206.585 47.5838C206.973 45.6857 207.152 43.9431 207.305 42.0116C207.58 38.5291 207.802 34.0931 205.878 31.0316C205.254 30.0376 204.459 29.1241 203.902 28.0915C203.23 26.8473 203.379 25.7519 203.379 24.3879C202.151 25.2127 201.892 23.531 201.374 22.7113C200.985 22.0963 200.474 21.7526 200.348 20.9789C200.257 20.4157 200.868 20.3207 200.533 19.7304C200.122 20.0407 199.958 20.5214 199.75 20.9675C199.371 20.8159 199.818 20.2881 199.601 20.1165C199.594 20.1117 198.863 19.794 198.899 19.84C198.429 19.2434 198.277 18.2533 198.047 17.5432C197.184 17.9799 197.346 17.9285 196.384 17.1988C196.214 17.0703 195.368 16.4804 195.288 16.2876C194.916 15.3858 195.568 15.92 195.386 15.3603C194.862 13.7528 191.923 14.0568 191.69 11.6481C190.256 12.5581 189.71 11.2687 188.863 10.3517C187.994 9.41221 186.538 9.05088 186.616 7.56081C186.165 7.71516 185.713 7.86911 185.263 8.02268C185.497 6.64768 183.454 6.73526 182.715 6.03774C183.125 6.04285 183.534 6.07506 183.94 6.13436ZM185.108 91.2967C185.819 90.6608 185.603 91.5068 186.06 91.4102C186.451 91.3273 186.529 91.0316 186.904 90.9409C188.449 90.5674 190.759 91.0367 192.384 90.9562C194.267 90.8631 197.493 91.2539 198.39 93.456C198.93 94.7823 198.106 94.331 197.197 94.2324C196.493 94.1563 195.867 94.2988 195.17 94.2917C194.825 94.3448 194.482 94.3397 194.14 94.2756C193.972 94.1657 193.874 94.0109 193.843 93.8114C192.874 93.6645 191.844 94.2383 190.77 94.267C189.336 94.3051 188.062 94.0302 186.973 93.0625C186.54 93.7077 186.245 94.0278 185.466 94.1001C185.446 94.1021 184.685 93.7957 184.568 93.7651C184.412 93.7246 184.018 94.0518 183.717 93.9583C184.25 93.1092 184.328 91.9938 185.108 91.2967ZM283.007 98.9603C283.26 98.0802 283.472 97.1886 283.702 96.3026C287.241 100.331 290.337 105.723 291.73 110.888C292.635 114.245 294.044 120.328 289.729 122.059C286.214 123.469 284.254 118.414 283.365 115.924C281.402 110.427 281.402 104.553 283.007 98.9603ZM124.706 35.8455C124.751 35.8364 122.415 37.1949 123.185 36.0949C123.494 35.6526 124.666 35.3416 125.187 35.3416L124.706 35.8455ZM122.459 36.4212C122.188 36.6486 121.915 36.8733 121.64 37.0948C121.376 36.6769 121.111 36.259 120.847 35.8412C121.368 35.6212 123.581 35.4563 122.459 36.4212ZM120.812 78.6601C120.324 78.329 119.936 78.505 119.789 79.0607C119.789 78.5077 120.077 77.2231 120.52 77.0734C120.806 76.9764 119.569 75.5135 119.917 75.1305C120.801 75.6368 120.271 76.1218 120.53 76.7753C120.647 77.0703 120.998 77.3491 121.075 77.5758C121.205 77.9603 121.733 79.2826 120.812 78.6601ZM118.418 75.3681C117.917 75.4962 118.794 76.3225 118.793 76.6878C118.792 76.9639 118.461 77.1759 118.324 77.5538C118.027 78.3726 118.538 78.9256 117.697 79.5505C117.697 77.7564 116.493 73.0026 118.807 72.1284C117.679 71.2396 118.605 70.2138 119.49 71.2773C120.34 72.3 119.799 75.0147 118.418 75.3681ZM117.212 68.2885C116.758 66.6759 115.389 66.1119 113.824 66.2074C113.884 65.3818 114.51 64.1914 114.962 65.6795C115.148 65.2397 115.276 64.6659 115.7 64.3744C116.413 66.6115 119.971 67.8475 117.756 70.2715C117.575 69.6105 117.399 68.9483 117.212 68.2885ZM113.079 66.3276C104.841 66.9249 93.276 68.6341 86.6839 62.32C82.3857 58.2028 82.6152 51.7913 86.0888 47.217C88.0709 44.6068 90.7768 42.7688 93.4945 41.0179C94.543 40.342 95.4315 39.8959 96.5829 39.5074C96.7692 39.4874 96.9445 39.529 97.1085 39.6323C97.1732 39.3543 97.3297 39.1485 97.5792 39.0141C98.0237 38.7761 98.6572 38.6913 98.9133 38.1972C98.6399 39.1249 98.4995 40.0801 98.3991 41.0399C98.1771 40.7815 97.9554 40.5231 97.7338 40.2646C97.5486 42.0127 95.7273 40.9547 94.6399 41.1731C95.3562 42.1643 95.8685 42.5245 95.9301 43.8347C95.3966 42.8497 94.281 42.202 93.2438 41.8847C93.8071 43.5507 94.2053 44.5397 93.6381 46.3667C92.9532 45.9755 92.9069 45.0361 92.076 44.8111C91.8568 45.9005 91.8179 47.1094 91.5371 48.1667C89.4094 47.1962 89.6169 49.8099 90.4713 51.1032C90.9255 51.7913 91.1487 52.5878 91.5539 53.2484C92.5483 54.8684 91.7928 52.4456 92.8982 52.5607C92.6499 54.2695 92.5636 54.4396 93.8142 55.6909C95.0346 56.9111 95.6677 58.6042 96.9732 59.7507C97.3509 59.2676 96.7566 58.7621 96.7045 58.2999C97.9193 58.5037 98.4881 59.7216 99.6559 58.6427C100.165 59.6352 100.716 60.7282 101.936 60.932C101.13 59.3995 103.484 60.4387 104.088 60.6563C104.546 60.8213 105.366 60.9525 105.543 61.0161C106.538 61.3754 105.856 60.7306 106.46 61.9084C107.346 61.6409 107.681 60.9053 108.741 61.5267C109.603 62.0321 109.605 62.8977 109.802 63.7845C110.008 63.2045 110.215 62.6248 110.442 62.0525C110.674 62.1499 111.645 63.2182 111.539 63.2233C113.811 63.1118 113.73 64.5225 113.079 66.3276ZM101.513 37.4078C101.969 37.0877 102.526 37.5139 103.038 37.3992C103.747 37.2409 104.15 36.6333 104.943 36.5681C104.722 37.2727 104.308 37.2067 103.958 37.7601C103.839 37.9486 103.901 38.4011 103.795 38.5095C102.907 39.4191 102.6 38.6768 101.694 37.9883C101.773 38.8186 101.932 39.0809 101.15 39.3036C100.442 39.5055 99.2735 38.762 98.9165 38.1917C99.2174 37.5893 100.967 37.7911 101.513 37.4078ZM107.165 36.1102C107.934 36.1836 107.008 38.4529 105.905 36.2516C106.32 36.1612 106.74 36.1141 107.165 36.1102ZM111.12 35.6715C112.333 35.4241 116.379 34.271 116.83 36.1593C116.91 36.1122 117.211 35.0462 117.351 35.1762C117.912 35.6974 117.974 36.3883 117.932 37.1121C117.254 35.7013 117.495 36.9405 117.036 36.8438C116.916 36.8183 116.733 37.0422 116.43 36.9499C116.032 36.8285 115.747 35.9822 115.496 35.6955C115.077 36.2924 114.559 37.061 113.722 37.0092C113.129 36.9727 112.174 35.4465 112.941 37.1172C112.491 36.9683 111.969 36.6314 111.467 36.6989C110.905 36.7747 110.613 37.3297 110.086 37.4192C108.917 37.6171 108.741 36.4931 107.983 35.8828C109.029 35.8219 110.087 35.882 111.12 35.6715ZM118.459 35.6534C118.545 35.2662 119.606 35.1099 119.876 35.2328C120.536 35.5325 120.292 35.928 120.171 36.5862C119.681 36.3545 119.192 36.1232 118.702 35.8914C119.433 37.0681 118.109 37.2389 118.459 35.6534ZM323.936 104.577C323.85 101.757 323.768 98.8884 323.053 96.1431C322.552 94.2218 321.323 90.7767 318.999 90.4432C315.493 89.9401 313.552 96.8689 312.569 99.2474C312.373 96.4471 312.545 93.4666 311.487 90.8089C310.64 88.679 308.501 86.6619 306.658 89.0537C305.019 91.1824 304.704 94.3247 304.272 96.8858C303.713 100.205 303.377 103.549 302.969 106.887C301.367 103.793 301.088 100.251 299.822 97.0347C298.628 93.9999 296.748 91.1015 294.938 88.4022C293.46 86.1973 291.661 84.1244 289.345 82.7765C287.329 81.6034 283.804 80.3344 281.883 82.2828C280.28 83.9084 280.531 86.0838 280.614 88.1351C280.652 89.0486 280.795 89.675 279.992 90.1353C279.597 90.3616 278.98 90.2445 278.546 90.3655C277.847 90.5607 277.311 90.8914 276.72 91.3308C272.574 94.4123 270.663 99.9653 270.071 104.916C269.323 111.189 271.768 116.567 273.872 122.306C274.207 123.221 275.273 125.161 275.125 126.183C274.964 127.302 273.56 127.331 272.612 127.354C269.75 127.424 266.759 127.211 263.911 126.945C257.131 126.31 250.357 123.046 244.286 120.132C243.178 119.6 241.611 119.296 240.707 118.458C239.857 117.671 239.633 116.41 238.9 115.507C237.099 113.292 235.952 111.401 233.301 110.062C230.601 108.7 227.846 107.44 225.212 105.947C221.955 104.101 218.945 101.761 215.824 99.6936C210.023 95.8517 204.261 91.6399 198.11 88.3731C195.252 86.8547 192.059 86.6089 189.091 85.3658C186.202 84.1554 182.655 84.1538 179.64 84.9181C178.171 85.2908 177.171 86.1737 175.82 86.7499C174.237 87.4254 172.946 86.68 171.553 85.8737C169.424 84.642 167.314 82.6351 170.345 81.3064C171.374 80.8556 172.662 80.6847 173.56 79.9758C174.518 79.2206 175.286 77.8271 176.065 76.881C177.795 74.7778 178.829 72.3566 181.362 71.0487C184.164 69.6023 187.484 69.2087 190.471 68.2634C193.707 67.2395 196.876 66.022 200.052 64.8265C205.774 62.6727 211.723 60.3472 215.835 55.606C219.381 51.5156 220.927 46.2359 220.783 40.8734C220.491 29.9107 214.619 18.7851 206.193 11.9309C195.861 3.52614 182.718 0.723519 169.667 0.870406C163.542 0.939529 156.233 1.74112 151.122 5.46237C146.708 8.67659 145.974 14.2983 146.631 19.373C146.897 21.4325 147.808 24.1503 146.355 25.9652C145.542 26.9805 144.083 27.2318 142.988 27.8649C141.612 28.6602 140.399 29.4225 138.84 29.8432C132.22 31.6309 125.247 31.0084 118.479 30.9095C107.203 30.7445 95.6457 33.7973 87.2342 41.7425C80.4416 48.158 78.4046 60.2557 86.689 66.5102C93.3823 71.5628 103.881 71.0071 111.773 70.1258C114.221 69.852 115.903 69.4546 115.909 72.4489C115.915 75.7196 115.374 79.1381 116.208 82.3492C117.522 87.4062 122.381 87.5267 126.678 86.4376C128.945 85.8631 131.136 84.999 133.289 84.0941C136.446 82.7671 139.34 80.8155 142.458 79.4908C144.572 78.593 146.155 81.4965 148.03 79.4837C148.377 79.1118 148.441 78.5572 148.963 78.3667C149.782 78.0687 151.156 79.1141 151.874 79.4448C152.95 79.9401 154.034 80.3042 154.463 81.4965C154.866 82.6119 154.689 84.3856 154.304 85.486C153.468 87.8778 151.215 87.405 149.158 87.2451C145.57 86.9659 142.007 86.374 138.421 86.1254C135.203 85.9023 132.19 86.8638 129.415 88.4505C123.586 91.7829 118.817 97.0834 113.763 101.442C111.162 103.686 108.648 106.109 105.819 108.063C104.589 108.912 103.257 109.693 102.188 110.749C101.127 111.796 101.011 112.748 100.648 114.141C100.002 116.622 96.7935 117.835 94.7878 119.144C91.9517 120.995 88.9449 122.301 85.7656 123.437C79.0322 125.842 72.2459 127.521 65.2065 128.763C61.76 129.371 58.3422 129.77 54.8619 130.098C51.8622 130.381 48.6722 131.305 45.6761 130.567C46.5391 129.167 48.0681 128.327 49.2591 127.245C50.7944 125.85 52.1003 124.197 53.2622 122.485C55.5241 119.151 57.1104 115.573 57.4748 111.528C57.8032 107.888 57.4266 103.534 55.2303 100.459C54.4716 99.3966 52.9708 99.1076 52.2917 98.1509C51.6166 97.1996 51.874 95.5623 51.5044 94.4532C50.5634 91.6325 47.7708 88.137 45.3132 86.4989C42.6469 84.721 38.7466 84.0678 35.6664 84.9943C29.9604 86.7106 26.4555 92.8084 23.8445 97.7369C22.4182 94.7356 24.8068 90.283 22.0204 87.8252C19.6703 85.7519 17.8051 89.7681 17.019 91.4864C13.3293 99.5522 12.4914 108.107 10.9454 116.737C10.3154 116.116 10.6383 114.522 10.6975 113.782C10.8077 112.403 10.7975 111.05 10.8003 109.665C10.8077 106.167 11.4581 102.653 11.16 99.1579C10.9878 97.1376 10.3437 92.8775 7.40829 93.5487C4.91893 94.1182 3.35964 97.6187 2.57745 99.7587C1.44927 102.846 1.1888 105.902 1.25902 109.163C1.33669 112.766 0.650213 116.31 0.48389 119.908C0.160657 126.897 0.479967 133.825 2.48527 140.57C5.76898 151.615 13.3191 160.792 23.3958 166.334C28.9476 169.388 35.1067 171.32 41.4391 171.735C44.8707 171.96 48.1835 171.552 51.5856 171.197C54.9431 170.847 58.3182 170.685 61.6698 170.274C69.134 169.359 76.4071 166.995 83.1915 163.816C86.7627 162.142 90.121 160.087 93.6338 158.302C95.0432 157.587 95.9956 156.691 97.1983 155.695C98.3908 154.709 98.7211 154.631 100.077 154.631C99.6795 153.567 100.841 153.239 101.357 152.566C101.328 152.892 101.299 153.219 101.27 153.545C101.664 152.691 102.031 152.699 102.37 153.57C102.705 152.595 102.954 151.592 103.359 150.642C104.907 151.425 104.777 153.288 106.847 151.928C108.552 150.808 110.12 149.488 111.858 148.391C115.818 145.892 119.232 142.64 123.203 140.169C123.203 142.575 123.373 145.003 123.051 147.397C122.745 149.673 121.895 151.801 121.219 153.98C119.973 158.001 119.886 162.298 118.505 166.279C117.933 167.927 116.445 169.306 116.018 170.91C115.583 172.547 116.588 173.859 114.903 174.934C113.715 175.692 112.231 176.012 110.915 176.47C108.909 177.169 107.004 178.156 105.051 178.993C95.8897 182.919 86.9537 186.917 78.4661 192.195C70.4112 197.203 62.2331 202.376 54.8337 208.325C48.4118 213.487 41.9201 220.162 40.3568 228.584C38.8399 236.753 42.8815 245.521 50.9969 248.211C55.2165 249.61 59.987 249.437 64.3812 249.497C69.1097 249.563 74.1201 248.423 78.769 247.598C83.6787 246.728 88.504 245.365 93.4278 244.587C98.152 243.841 102.485 242.173 107.132 241.146C112.081 240.051 117.158 239.457 122.134 238.473C124.375 238.029 126.57 237.375 128.816 236.965C131.276 236.516 133.762 236.347 136.198 235.752C140.922 234.597 145.446 232.736 150.19 231.662C152.324 231.179 154.424 230.532 156.558 230.081C158.523 229.665 160.054 228.561 162.023 229.468C163.614 230.201 164.883 231.457 166.388 232.332C168.341 233.467 170.4 234.484 172.435 235.461C176.526 237.424 180.769 238.78 185.045 240.254C189.538 241.802 193.95 243.568 198.604 244.59C203.376 245.638 208.244 245.93 213.048 246.759C222.888 248.456 232.644 249.218 242.632 249.28C247.681 249.312 252.729 248.713 257.765 248.784C262.224 248.847 266.101 249.852 270.178 247.481C276.693 243.693 284.25 237.988 284.09 229.701C283.944 222.195 279.442 215.024 275.219 209.104C270.09 201.915 262.778 196.853 255.612 191.893C247.974 186.609 239.395 182.957 231.367 178.344C227.262 175.985 223.476 173.446 219.018 171.77C216.89 170.97 214.814 170.042 212.711 169.18C211.019 168.487 208.575 168.104 207.127 166.954C206.223 166.236 206.136 165.15 205.898 164.082C205.369 161.721 204.539 159.482 203.734 157.205C202.18 152.808 201.147 148.329 200.479 143.717C199.842 139.321 198.429 134.749 199.161 130.281C203.975 134.938 208.923 139.415 213.849 143.949C215.695 145.648 217.507 147.383 219.363 149.072C220.756 150.34 222.498 152.223 224.44 152.599C226.92 153.08 226.014 150.336 227.717 149.911C228.758 149.651 231.897 152.296 232.72 152.818C237.936 156.129 243.711 158.228 249.448 160.482C255.463 162.845 261.65 164.944 268.123 165.539C274.102 166.089 280.216 165.383 285.985 163.754C297.476 160.51 305.931 152.813 312.137 142.836C319.207 131.467 324.352 118.149 323.936 104.577Z" fill="#1D1D1D"/>
<path fill-rule="evenodd" clip-rule="evenodd" d="M148.32 79.7921C148.319 79.7954 148.301 79.8329 148.301 79.8329C148.323 79.8179 148.329 79.8044 148.32 79.7921Z" fill="#1D1D1D"/>
<path fill-rule="evenodd" clip-rule="evenodd" d="M148.875 79.9389C148.832 79.5767 148.739 79.2222 148.596 78.875C148.216 79.4781 147.876 79.7363 148.375 80.375C148.542 80.2296 148.708 80.0843 148.875 79.9389Z" fill="#1D1D1D"/>
<path fill-rule="evenodd" clip-rule="evenodd" d="M175.372 166.129C175.797 165.677 175.053 165.506 174.77 165.5C174.798 165.986 174.558 167.15 175.222 167.375C175.063 166.936 175.113 166.52 175.372 166.129Z" fill="#1D1D1D"/>
<path fill-rule="evenodd" clip-rule="evenodd" d="M164.147 71.3912C163.416 72.8033 165.031 73.2414 165.967 72.5592C166.67 72.0463 167.086 70.7388 167.202 69.8999C167.576 67.1853 165.676 64.6017 164.729 62.1931C164.485 61.5705 164.149 59.4355 163.361 59.3767C162.456 59.3093 162.389 61.2759 162.377 61.7833C162.342 63.3133 162.747 64.8716 163.222 66.3159C163.734 67.873 165.002 69.742 164.147 71.3912Z" fill="#1D1D1D"/>
<path fill-rule="evenodd" clip-rule="evenodd" d="M167.625 65.7275C170.436 68.2303 172.684 64.0618 172.488 61.596C172.439 60.9851 172.027 58.7327 170.868 59.5524C170.286 59.9642 170.782 61.3025 170.505 61.89C169.16 64.7387 167.866 60.3202 166.961 59.9731C165.859 59.5505 165.748 60.9978 165.75 61.7713C165.753 63.3068 166.483 64.7106 167.625 65.7275Z" fill="#1D1D1D"/>
<path fill-rule="evenodd" clip-rule="evenodd" d="M157.422 66.1163C158.084 65.0737 158.898 63.6754 158.988 62.4265C159.128 60.4851 157.997 60.6471 157.066 62.0017C156.408 62.9585 155.915 64.5814 154.463 64.1781C152.67 63.6806 153.218 61.2704 152.214 60.125C149.68 63.5286 154.476 70.7553 157.422 66.1163Z" fill="#1D1D1D"/>
<path fill-rule="evenodd" clip-rule="evenodd" d="M161.22 76.5322C162.268 76.7587 165.001 76.6751 164.054 75.0704C162.86 73.0488 158.889 76.028 161.22 76.5322Z" fill="#1D1D1D"/>
<path fill-rule="evenodd" clip-rule="evenodd" d="M197.937 16.25C198.128 15.6787 197.865 15.5749 197.408 15.125C196.974 15.5248 197.529 15.9455 197.937 16.25Z" fill="#1D1D1D"/>
<path fill-rule="evenodd" clip-rule="evenodd" d="M217.485 119.731C218.177 119.841 218.399 119.475 218.153 118.634C217.062 118.563 216.84 118.929 217.485 119.731Z" fill="#1D1D1D"/>
<path fill-rule="evenodd" clip-rule="evenodd" d="M179.729 31.4562C180.491 31.805 180.199 32.5204 180.186 33.125C180.579 32.6981 181.373 31.9176 181.049 31.3043C180.552 30.3588 179.251 31.2381 179.729 31.4562Z" fill="#1D1D1D"/>
<path fill-rule="evenodd" clip-rule="evenodd" d="M153.75 19.5555C153.634 19.3287 153.518 19.1018 153.401 18.875C152.928 19.2551 152.196 20.2602 152.949 20.75C153.258 20.3755 153.525 19.9774 153.75 19.5555Z" fill="#1D1D1D"/>
<path fill-rule="evenodd" clip-rule="evenodd" d="M162.901 26.2264C163.85 26.9706 163.395 24.6865 163.366 24.5C163.225 24.7679 162.422 25.8505 162.901 26.2264Z" fill="#1D1D1D"/>
<path fill-rule="evenodd" clip-rule="evenodd" d="M162.375 25.0665C162.302 24.8778 162.23 24.6891 162.157 24.5C161.773 24.8561 161.301 25.5834 161.937 26C162.111 25.7082 162.257 25.3972 162.375 25.0665Z" fill="#1D1D1D"/>
<path fill-rule="evenodd" clip-rule="evenodd" d="M168.402 32.91C168.479 32.9816 168.557 33.0531 168.634 33.125C168.947 32.4936 168.591 32.0193 168 32C168.042 32.3545 168.176 32.6578 168.402 32.91Z" fill="#1D1D1D"/>
<path fill-rule="evenodd" clip-rule="evenodd" d="M142.974 103.938C143.351 103.681 143.693 103.389 144 103.061C142.886 102.38 143.554 103.856 142.212 102.95C141.923 103.349 142.395 104.243 142.974 103.938Z" fill="#1D1D1D"/>
<path fill-rule="evenodd" clip-rule="evenodd" d="M189.788 165.875C190.212 165.225 190.288 165.243 189.71 164.75C189.227 165.553 189.277 165.347 189.788 165.875Z" fill="#1D1D1D"/>
<path fill-rule="evenodd" clip-rule="evenodd" d="M101.25 62.4037C101.481 62.6443 101.711 62.8848 101.942 63.125C102.05 62.8103 102.637 61.921 102.238 61.625C101.909 61.8846 101.579 62.1441 101.25 62.4037Z" fill="#1D1D1D"/>
<path fill-rule="evenodd" clip-rule="evenodd" d="M109.453 64.7833C109.084 64.7218 108.204 64.4532 108 64.7955C108.539 65.237 109.754 64.8339 109.453 64.7833Z" fill="#1D1D1D"/>
</g>
<defs>
<clipPath id="clip0_0_1">
<rect width="1440" height="938" fill="white" transform="translate(-558 -221)"/>
</clipPath>
</defs>
</svg>
