<svg xmlns="http://www.w3.org/2000/svg" width="421" height="300" fill="none"><path fill="#FD4300" fill-rule="evenodd" d="M179.014 126.144c-4.539 3.283-3.816 9.743-2.45 14.437 2.012 6.911 6.018 13.308 10.589 18.823 8.109 9.783 21.874 20.768 34.562 12.179 11.3-7.649 18.428-23.083 20.888-36.083.76-4.018 1.773-10.004-1.8-13.025-5.282-4.464-14.599-3.652-20.975-3.077-4.199.378-8.251 1.663-12.4 1.06-9.642-1.403-20.373-.132-28.414 5.686Z" clip-rule="evenodd"/><path fill="#252525" fill-rule="evenodd" d="M374.498 177.339c-9.192 11.638-24.821 13.477-38.701 13.362-8.336-.068-16.687-.695-24.858-2.39a108.828 108.828 0 0 1-13.038-3.579c-2.812-.961-6.998-1.442-8.194-4.448-3.156-7.934-.834-17.882.465-25.934.662-4.096 1.158-8.216 1.801-12.315.411-2.622.608-5.524 1.71-7.978 1.289-2.874 2.918-2.3 5.645-1.506 3.757 1.095 7.615 1.55 11.478 2.139 9.428 1.436 17.653 4.334 26.221 8.44 8.472 4.06 16.69 8.068 24.247 13.714a60.343 60.343 0 0 1 10.202 9.613c2.374 2.817 5.918 7.215 3.022 10.882Zm-40.183 51.691c-.074 1.253-14.481-2.53-16.377-2.954-12.44-2.785-25.126-5.956-36.87-10.987-10.962-4.696-20.62-10.069-29.246-18.413-4.021-3.889-7.637-7.984-11.098-12.346-1.734-2.186-4.104-1.932-6.038-3.781-1.74-1.665-3.074-2.965-2.53-5.453 4.347 1.143 12.374 8.329 16.881 4.7 2.569-2.068-.994-4.229-2.639-5.427-3.091-2.254-5.735-5.035-8.193-7.953 4.22.816 8.148 2.394 11.821 4.589 1.631.976 7.224 4.513 8.526 1.141.801-2.076-2.991-4.684-4.174-5.832-2.903-2.82-6.037-6.111-7.578-9.902 3.811-.882 7.403 2.057 9.998 4.452 2.881 2.658 6.413 5.448 8.828 8.511 1.247 1.58 1.518 3.446 2.491 5.15 1.096 1.917 2.848 3.56 4.523 4.979 3.226 2.733 7 4.746 10.874 6.41 8.851 3.804 18.339 6.496 27.774 8.384 4.629.926 9.143 1.353 13.841 1.51 3.652.123 5.268 1.212 6.662 4.57 3.772 9.085 3.087 19.079 2.524 28.652Zm-108.348-69.225c-2.111 1.972-4.854 3.208-7.06 5.104-1.942 1.667-4.182 3.447-6.349 4.795-2.313 1.439-4.042.43-6.125-.872-2.445-1.528-5.256-2.148-7.775-3.515-8.708-4.73-19.361-16.32-17.736-26.962.689-4.511 3.026-8.949 7.269-10.995 3.853-1.859 9.455-2.89 13.577-1.336 2.326.876 3.99 2.811 5.479 4.713 1.738 2.217 2.403 1.867 4.172-.271 3.167-3.826 8.388-7.182 13.549-7.101 2.565.04 5.113.58 7.424 1.643.313.144.487.58.802.728.386.181 1.02-.196 1.288-.027.677.428 1.352 1.763 1.742 2.441 1.566 2.718 4.386 8.051 1.544 10.34-.001.001.127 3.097.088 3.45-.201 1.847-.841 3.372-1.665 5.061-2.475 5.075-6.13 8.983-10.224 12.804Zm4.209 42.939c-1.999.62-4.153-5.634-2.235-6.633 1.829-.952 4.046 6.072 2.235 6.633Zm-31.409-7.479c-.692 2.363-.985 5.044-2.678 6.967-1.551-1.836-1.704-5.225-.2-7.113.859-1.077 3.636-2.435 2.878.146Zm63.995-41.396c-.011.06 2.406 1.214 1.227 2.476-1.612 1.723-1.39-1.631-1.227-2.476Zm9.991-19.255c-.028 2.389-5.095 1.812-5.059-.591.044-2.957 5.088-1.942 5.059.591Zm-6.049-19.966c.501-2.187 9.315-5.23 9.075-1.418-.12 1.911-10.139 6.068-9.075 1.418Zm-90.358 74.174c-.988 1.185-2.392 1.653-3.576 2.563-1.242.953-2.13 2.191-3.214 3.31-2.979 3.074-6.565 5.6-9.778 8.423-5.909 5.19-11.568 10.77-18.119 15.173-11.705 7.865-25.28 12.167-38.756 15.934-1.116.312-4.332 1.572-5.436.634-1.192-1.012-.586-4.573-.531-5.919.223-5.519.868-11.104.798-16.615-.029-2.264-.693-5.482.49-7.553 1.322-2.313 5.011-2.99 7.294-3.861 6.936-2.645 13.618-7.109 19.745-11.243 7.532-5.082 15.14-10.248 22.891-14.992 7.594-4.648 15.971-7.76 24.442-10.414.392.823-3.65 3.471-4.112 3.843-2.216 1.78-4.627 3.626-6.272 5.977-1.165 1.664-2.359 5.429.857 5.525 1.559.047 3.863-1.458 5.277-1.944a40.523 40.523 0 0 1 7.183-1.736c-2.1 2.307-9.217 6.452-7.922 10.289 1.256 3.723 8.523-.622 11.025-.622-.41 1.299-1.441 2.214-2.286 3.228Zm-85.85 10.392c-4.654 1.634-9.424 2.563-14.227 3.617-4.578 1.005-8.81 1.763-13.499 1.174-6.474-.812-13.639-3.489-14.46-10.831-.973-8.699 5.183-16.693 10.469-22.934 6.433-7.593 13.657-14.382 21.485-20.529a158.794 158.794 0 0 1 25.103-16.125c6.728-3.477 14.325-5.588 21.439-8.198 1.353-.496 5.096-2.24 6.362-.795 1.023 1.169-.37 3.117-.836 4.202-.909 2.116-1.035 4.247-1.269 6.519-1.049 10.146-2.311 20.289-2.892 30.479-.162 2.84-.447 5.811-.281 8.653.092 1.574.912 3.579.366 5.115-1.051 2.955-5.862 4.91-8.412 6.23-4.565 2.362-9.399 4.125-14.011 6.384-5.065 2.482-9.996 5.164-15.337 7.039Zm64.541-65.928c1.278-.174 3.191-.522 4.33.304 1.485 1.077 1.096 2.576-.276 3.357-1.083.617-3.618.786-4.688.226-1.824-.954-1.515-3.591.634-3.887Zm7.075 23.495c-1.032 1.716-4.805 2.841-4.476-.361.281-2.741 6.377-2.798 4.476.361Zm-1.401-48.337c1.66.641 4.671 1.19 5.163 3.321.458 1.983-1.424 1.851-2.783 1.306-1.117-.448-6.095-4.662-2.38-4.627Zm259.994 75.639c-.969-3.764-.231-7.931-.766-11.787-.518-3.737-1.452-7.171-2.792-10.694-2.966-7.797-6.365-14.816-11.173-21.659-9.056-12.887-19.563-24.238-32.251-33.651-12.525-9.293-26.395-16.844-41.088-22.137-15.58-5.613-31.263-7.567-47.693-8.643-4.907-.32-9.808-.701-14.687-1.32-3.566-.452-8.036-1.009-11.561.081-2.215.685-3.453 2.613-1.04 3.878 1.711.897 3.951 1.004 5.84 1.243-2.282 7.236-5.996 14.497-11.881 19.48-5.745 4.864-13.433 6.532-20.684 7.766-3.932.668-8.335 1.186-12.328.897-2.524-.182-4.494-1.348-5.513 1.247-.707 1.803-1.041 3.781-1.973 1.059-1.102-3.219-1.643-3.198-5.071-4.112-7.012-1.87-15.05-3.575-21.167-7.618-6.346-4.194-8.553-10.98-12.096-17.298-.876-1.561-3.519-4.722-2.168-6.512 1.235-1.636 5.251-1.473 7.09-1.644 1.94-.18 3.893-.188 5.84-.263 1.128-.043 3.397.418 2.943-1.264-.684-2.534-8.02-2.21-9.842-2.25-3.388-.076-6.823.002-10.193.374-16.714 1.845-33.578 5.256-49.751 9.804-31.38 8.825-61.77 25.086-84.67 48.512-21.982 22.486-28.946 59.906-15.433 88.618 7.023 14.922 22.264 21.051 37.038 26.002 7.793 2.611 16.045 4.654 24.329 4.161 3.975-.237 7.747-1.305 11.624-2.11 1.69-.351 3.615-.911 5.352-.769 1.314.107 2.577 1.311 3.81.671.876-.454 1.256-1.758 2.326-2.314 1.284-.666 2.841-.907 4.228-1.243 3.856-.935 7.588-2.45 11.357-3.693 3.897-1.285 7.574-2.94 11.313-4.614 1.888-.845 6.257-4.281 7.487-1.769.561 1.146.322 3.358.459 4.56.239 2.103.52 4.202.828 6.296.677 4.611 1.488 9.202 2.318 13.788 1.5 8.274 3.433 16.195 6.664 23.978 2.58 6.214 4.845 13.258 9.636 18.202 2.091 2.158 4.945 3.129 7.944 2.451 3.412-.772 5.111-3.865 7.182-6.366 4.557-5.504 12.081-9.72 19.029-11.238 8.508-1.859 16.795.86 24.916 3.17 8.59 2.445 17.334 4.774 25.766 7.712 7.857 2.739 16.34 6.784 24.861 6.432 7.43-.307 14.371-6.343 19.73-10.943 5.382-4.621 12.112-11.386 19.851-10.842 3.842.27 7.344 2.12 11.087 2.873 4.11.825 8.482.943 12.661 1.25 5.187.382 16.792-.967 18.711-7.195.284-.924.286-2.827-.936-3.196-1.125-.34-1.699.972-2.765.912-2.167-.122-3.861-3.894-5.052-5.354-4.805-5.895-11.397-10.292-16.79-15.618-6.089-6.012-11.287-13.297-15.875-20.483 2.074-.538 4.312.356 6.319.78 2.44.516 4.816 1.139 7.22 1.8 2.65.728 5.337 1.228 8.025 1.783 2.007.413 4.669.538 6.48 1.542 1.581.877 2.463 1.819 4.426 2.073 1.995.259 4.044.041 6.049.028 5.423-.037 10.834-.138 16.231-.71 19.07-2.022 39.285-10.072 50.752-26.049 3.119-4.345 5.632-9.159 7.22-14.268 1.239-3.988 3.376-9.609 2.297-13.797Z" clip-rule="evenodd"/><path fill="#252525" fill-rule="evenodd" d="M241.84.004c5.012.07 9.709 1.554 14.379 3.24 4.107 1.483 8.484 2.854 11.805 5.814 5.973 5.323 7.528 14.137 8.506 21.678 1.219 9.41-2.838 17.305-6.253 25.818-3.193 7.962-9.055 14.412-16.022 19.327-3.65 2.574-7.684 4.128-11.905 5.491-4.288 1.384-8.44 3.238-13.027 3.23-6.966-.01-15.884-3.311-18.851-10.16-1.351-3.12-.036-3.68 2.668-1.984 3.922 2.459 7.702 5.112 12.285 6.203 8.888 2.116 19.533-1.162 27.327-5.488 7.79-4.324 13.021-10.82 16.516-18.909 3.527-8.16 4.897-16.202 3.537-24.999-1.153-7.455-3.445-14.265-10.177-18.312-14.532-8.736-34.112-8.032-47.035 3.32a186.126 186.126 0 0 1-5.35 4.557c-1.162.945-2.529 2.078-2.36 3.712.144 1.399 3.133 6.792-.466 5.135-2.917-1.343-4.503-3.969-8.036-4.294-3.762-.346-8.248 2.538-9.373 6.167-1.074 3.463.84 8.201 3.838 10.187 1.856 1.23 3.898 1.04 6.006.99 1.047-.024 3.959-.363 4.651.74 1.225 1.953-3.097 4.005-4.491 4.437-3.394 1.05-7.405-.186-9.356-3.21-1.983-3.073-3.341-6.63-3.614-10.293-.261-3.508.537-7.06 2.611-9.941 2.206-3.064 6.702-6.499 10.733-5.434 1.75.462 3.156 2.266 4.873 2.608 1.083.216.628.371 1.525-.43.57-.51 1.109-1.448 1.635-2.05 3.025-3.467 6.017-7.167 9.72-9.942 6.639-4.975 15.464-7.325 23.701-7.208Zm-18.36 68.73c.785-1.838 2.228 1.44 2.654 1.988.844 1.084 2.83 1.927 2.744 3.526-.141 2.64-3.746 2.15-4.948.773-1.368-1.568-1.225-4.473-.45-6.287Zm25.611-12.498c1.945 3.025-.425 6.29-1.963 8.967-1.47 2.56-2.835 5.453-4.547 7.86-2.841 3.995-9.022-.327-9.206-4.434-.14-3.143 2.091-1.775 3.523-.6 1.474 1.208 2.172 1.51 3.717.189 3.108-2.658 4.505-7.103 6.654-10.468.426-.667 1.198-1.068 1.822-1.514Zm5.544.973c.502 1.462-.55 5.338 2.374 4.95 1.616-.213 1.961-2.528 2.811-3.538 2.857-3.395 1.981 3.027 1.234 4.634-1.645 3.543-6.251 5.984-8.535 1.49-.85-1.672-.846-3.782-.414-5.58.235-.978 1.605-4.658 2.53-1.956Zm-26.08-6.928c-.259 1.706-1.866 5.107.096 6.328 1.727 1.075 4.734-1.26 6.064-2.234 1.382-1.013 4.513-3.918 4.636-.303.063 1.843-1.786 4.054-3.104 5.116-2.814 2.264-8.661 4.295-10.735.033-1.13-2.321-.512-5.626.235-7.965.605-1.896 3.433-5.098 2.808-.975Zm36.907-9.344c1.145 1.327 3.859 4.3 2.383 6.19-1.725 2.21-4.529-1.844-5.634-2.972-.996-1.016-3.09-3.91-2.197-5.445 1.478-2.54 4.442 1.062 5.448 2.227Zm-17.999-5.715c3.743 2.434-1.178 4.186-3.31 4.404-2.581.263-5.88.437-8.25-.827-3.359-1.791-2.239-4.497 1.017-5.144 3.339-.664 7.638-.322 10.543 1.567Zm-48.661-7.747c2.753.534 5.897 1.23 6.834 4.225.968 3.095-.423 4.122-3.234 3.426-2.601-.645-6.487-1.294-7.958-3.83-1.757-3.03 1.806-4.316 4.358-3.821ZM47.345 93.984c-.923 2.977-5.599 4.952-7.93 6.761-8.155 6.332-16.124 12.925-23.497 20.151-3.827 3.751-6.723 8.288-10.042 12.459-.81 1.018-2.244 3.299-3.832 3.084-1.742-.234-2.094-3.229-2.039-4.536.19-4.46 4.272-8.768 7.183-11.839a159.884 159.884 0 0 1 10.35-9.963c3.935-3.461 8.206-6.437 12.559-9.35 4.274-2.86 8.372-6.165 12.817-8.756 2.094-1.22 5.57-1.685 4.431 1.989ZM332.412 65.71c3.404.107 6.726 1.22 9.936 2.255 7.062 2.276 13.787 5.433 20.419 8.733 11.628 5.784 22.817 12.782 33.074 20.74 2.144 1.662 4.342 3.01 6.673 4.37 1.492.871 3.62 1.934 4.195 3.709 1.46 4.513-5.911-.017-6.957-.665l-1.471-.91c-21.823-13.499-43.62-26.614-68.305-34.355-1.315-.412-1.724-1.583-1.034-2.743.748-1.258 2.205-1.174 3.47-1.134Zm-286.06 9.444c-.158 1.374-1.717 1.687-2.769 2.128-3.924 1.645-7.947 3.048-11.86 4.72-7.265 3.105-13.936 7.61-21.518 9.965-1.732.54-1.988-1.206-1.524-2.394.517-1.325 2.068-2.256 3.19-3.022 3.238-2.214 6.91-3.805 10.505-5.343 3.565-1.525 7.235-2.68 10.89-3.958 3.396-1.189 7.338-3.4 10.986-3.564l.159-.008c1.16-.059 2.125-.137 1.941 1.476ZM338.608 54.28c-3.471-.974-.192-3.167 1.87-3.013 2.301.172 4.525 1.256 6.707 1.91 6.671 2 12.855 4.186 19.087 7.288.93.464 5.025 2.66 2.316 3.632-1.877.674-6.261-2.217-7.873-2.91-7.082-3.048-14.692-4.826-22.107-6.907Z" clip-rule="evenodd"/><path fill="#252525" fill-rule="evenodd" d="M200.262 61.377c.434-1.27 5.799-15.156 3.699-15.574-2.224-.444-5.198 7.612-5.843 9.068-2.383 5.375-3.794 11.144-4.9 16.91-.77 4.015-1.447 8.128-1.177 12.233.207 3.155 1.513 3.632 3.664 5.565 0-9.582 1.459-19.132 4.557-28.202Z" clip-rule="evenodd"/></svg>