<svg width="313" height="200" fill="none" xmlns="http://www.w3.org/2000/svg"><path fill-rule="evenodd" clip-rule="evenodd" d="M153.44 80.11c-12.497-1.001-24.421 3.689-34.409 10.998-12.874 9.422-23.786 22.896-31.172 37.094-.785.609-1.56 1.234-2.328 1.864-4.11 3.373-8.127 6.935-11.686 10.899-1.988 2.213-7.2 7.594-4.938 10.989.48.72 1.27 1.134 2.06 1.419 2.214.799 4.523 1.204 6.708 2.138 2.696 1.153 5.492 2.768 7.22 5.23.491.7.62 1.526 1.28 1.835.7.327 2.02.199 2.787.275l4.617.456c3.616.357 7.396.396 10.933 1.275l16.273 4.047c3.329.827 7.154 1.283 10.311 2.644 4.71 2.03 9.203 5.002 13.71 7.451l6.538 3.554c1.065.578 1.793.586 3.04.683l9.001.697c1.452.112 2.149.701 2.339-.762l2.092-16.086 1.106-8.507c.066-.506.047-3.012.458-3.314.259-.19 1.774.218 2.054.253l4.085.504 8.827 1.088c.239.03 1.562.014 1.71.211.174.231-.157 1.553-.186 1.838l-.937 8.961c-.036.346-.454 1.953-.234 2.237.153.197 1.262.221 1.487.258l8.514 1.4c2.033.334 4.689.317 6.611 1.087 1.103.442 2.195 1.572 3.148 2.278l13.843 10.258c2.099 1.556 4.929 1.16 7.486 1.356l29.493 2.262-.074-2.775-.389-14.697-.17-6.408c-.01-.406.15-1.592-.113-1.892-.35-.398-1.913-.57-2.399-.715l-4.883-1.456-14.324-4.27-14.158-4.22-4.844-1.444c-.373-.111-1.675-.259-1.935-.577-.326-.4-.18-2.107-.232-2.614a97.755 97.755 0 0 0-1.067-7.388c-3.208-17.656-10.706-35.59-24.61-47.369-9.191-7.786-20.72-12.09-32.643-13.046Zm-2.204 35.406c1.237-1.463 3.316-3.849 5.502-3.453 1.776.322 2.744 2.539 3.363 4.014 2.489 5.925 3.261 12.717 4.035 19.05.486 3.974.876 7.965 1.126 11.961l-26.597-2.061c.419-2.845.754-5.716 1.258-8.547.253-1.419.951-2.696 1.548-4.007 2.67-5.864 5.585-12.015 9.765-16.957Z" fill="#FD4300"/><path fill-rule="evenodd" clip-rule="evenodd" d="m28.168 0-.217.004C22.068.16 16.88 3.974 12.856 8.009c-1.99 1.995-3.805 4.342-4.659 7.072-.986 3.155-.661 6.625.089 9.79a242.949 242.949 0 0 0 5.96 20.848c1.121 3.354 2.747 6.642 3.593 10.075.697 2.829-2.24 4.889-2.352 7.795-.114 2.933 1.845 5.687 4.537 6.735 1.147.446 2.534.073 3.59.53.968.419 1.306 1.653 1.492 2.6.253 1.292.207 2.582.135 3.886-.044.797.153 2.098-.233 2.81-.265.487-.748.647-1.165.981-.568.456-.947 1.024-1.445 1.548-.822.865-1.612 1.334-1.835 2.595l-.356-.86c-.613 1.129-1.066 1.67-.484 2.74-1.806-.178-2.877 3.122-3.35 4.374-.868 2.29-1.463 4.67-2.333 6.962-1.191 3.143-2.756 6.243-3.517 9.531-.638 2.764-1.144 5.602-1.711 8.384-.32 1.567-.599 3.158-1.184 4.652-.227.58-.65.971-.91 1.488-.358.707-.218 1.081-.236 1.856-.03 1.382-.895 2.279-1.167 3.621-.291 1.434-.529 2.884-.822 4.321-.591 2.894-1.686 5.785-1.95 8.717-.305 3.404-.962 6.767-1.292 10.172-.289 2.976.202 6.17-.415 9.049-.547 2.554.131 4.891.373 7.427.06.644-.924 4.479.659 3.743-.298.904-.714 1.334-.737 2.326-.02.928.217 1.881.411 2.781.375 1.738.624 3.632 1.358 5.26.83 1.842 2.094 2.063 3.814 2.695 1.164.427 3.26 1.954 4.176.321.547 1.676 1.615.518 2.812.424-.008 0 .685.258.815.276.42.057.918-.143 1.337-.178 1.043-.087 2.068.054 3.089.266 2.353.491 4.63 1.171 7.017 1.513 4.664.668 9.235.352 13.906.645 9.141.572 18.434.092 27.582-.156.982-.027 2.04.112 3.009-.04 1.045-.164 1.272-.662 2.086-1.161 1.353-.828 2.854-.022 4.258.28 4.12.889 8.424.954 12.577 1.813 8.439 1.746 16.214 5.19 24.297 8.095 3.505 1.259 7.618 3.299 11.397 3.387 4.579.1 3.498-4.442 2.656-7.362 2.646.707 6.801 3.939 9.491 2.063 3.205-2.235-.873-5.951-1.065-8.578 5.728 1.197 12.226 3.824 18.041 1.689 1.119-.411 2.092-1.279 3.293-1.42 1.249-.147 2.569.297 3.831.289 2.876-.018 5.669-.403 8.543-.047 6.41.795 12.728 1.23 19.19 1.402 6.505.172 13.01.56 19.518.544 3.303-.008 6.667-.403 9.964-.226 1.294.069 4.08 1.016 4.99-.308.913 1.102 1.688.365 2.86.488-.217-.023.61.459.734.505.616.231 1.192.161 1.835.154 1.712-.018 3.312.789 5.016.711.43-.019.756-.146 1.122-.295.086-.035.066-.41.205-.441.833-.188.618.326 1.147.585.586.287 1.454-.178 1.121.706 1.591-.071 3.099.469 4.548-.481-.685 1.524 1.707.258 2.332.233 1.039-.042 1.949.481 2.985.602 1.242.144 2.491-.437 3.707-.082.952.277 1.279.944 2.27.603.842-.29 1.368-.919 1.777-1.607.564-.95.636-1.374 1.996-1.39 1.009-.013 2.022.206 3.041.204 1.166-.003 2.448-.127 3.513.431 1.147.602 1.821 1.518 3.094 1.989 5.721 2.118 12.002 1.558 17.972 1.522 2.518-.016 4.367.218 5.074-2.675.597-2.445.836-5.001 1.406-7.466.699-3.019 1.466-5.821 3.016-8.521 1.503-2.618 2.768-5.323 4.077-8.042 2.722-5.656 6.51-10.469 10.735-15.065 1.605-1.747 3.444-3.692 3.519-6.207.054-2.171-.895-4.421-2.141-6.151-1.113-1.544-2.946-3.286-5.019-2.926-1.249.217-2.067 1.231-2.999 1.992-1.019.831-2.128 1.398-3.356 1.851-2.862 1.058-5.262 2.215-7.741 4.04a56.172 56.172 0 0 0-7.022 6.154c-4.164 4.3-8.431 8.767-10.823 14.334-.943 2.194-1.545 4.309-2.188 6.583-.632 2.233-2.351 1.618-4.284 1.297-2.356-.391-4.724-.601-7.096-.849-.892-.094-2.151-.121-2.689-.971-.592-.936.087-2.15.141-3.122.028-.519-.143-.901-.185-1.408-.05-.575.119-1.101.12-1.674.001-1.233-.572-2.331-1.525-3.078-1.781-1.398-4.38-2.231-6.49-3-2.88-1.05-5.966-1.566-8.932-2.316-3.34-.844-6.7-1.605-10.057-2.371-3.3-.753-6.594-1.528-9.929-2.108-1.956-.34-4.077-.216-5.974-.838-2.015-.661-1.681-2.703-1.675-4.512.01-2.987-.357-6.063-.792-9.017-.924-6.279-3.126-12.424-5.128-18.425-1.929-5.779-4.318-11.326-8.262-16.016-3.839-4.566-8.552-8.698-13.44-12.09-5.094-3.536-10.761-6.09-16.078-9.246 1.162-.895 2.548-1.66 3.216-3.037.753-1.556.434-3.416.402-5.08-.036-1.876-.093-3.524-.759-5.312-.364-.979-1.772-2.836-1.556-3.9.361-1.789 4.245-3.095 5.675-3.83 2.243-1.154 4.491-2.326 6.558-3.783 1.984-1.398 3.85-3.08 5.052-5.225.341-.609.621-1.248.839-1.912.242-.74.073-.992.808-1.046 1.173-.087 2.931 1.098 3.92 1.622 5.095 2.7 10.692 6.334 16.704 6.093 2.182-.087 4.634-.777 5.405-3.068 1.016-3.017-1.104-6.133-2.965-8.311 3.629.574 10.32 2.369 13.184-.891 1.908-2.173.469-5.621-1.131-7.505-2.114-2.489-5.128-4.004-7.913-5.587 3.417-1.312 7.199-2.15 10.203-4.346 2.873-2.098 2.518-5.323.249-7.799-2.427-2.646-6.669-4.001-10.006-4.984-4.092-1.205-8.158-1.108-12.376-1.028-7.569.145-14.071 2.955-20.279 7.203-3.282 2.247-6.518 4.67-9.429 7.391-2.731 2.552-5.644 4.924-8.334 7.503-2.607 2.5-4.658 5.596-7.409 7.93-2.34 1.985-4.905 4.799-7.877 5.68-3.152.934-5.989 2.48-9.167 3.4-3.606 1.043-6.703 2.787-10.044 4.451-14.023 6.985-29.077 11.53-43.86 16.545-7.562 2.564-15.174 4.372-22.894 6.33-3.877.984-7.477 1.51-11.478 1.331-.922-.04-1.803-.065-2.713.064-.667.095-1.174.349-1.77-.053-.857-.576-1.18-2.077-1.69-2.932 2.847-.889 5.634-1.85 6.933-4.789.819-1.851 1.243-4.01 1.602-5.997.193-1.07.197-2.148.362-3.218.09-.59.37-1.208.348-1.812.064.336 2.185-.768 2.493-.974 1.187-.791 1.403-2.388 1.393-3.735-.011-1.522-.467-3.195-1.494-4.349-.485-.546-1.063-.956-1.77-1.161-.5-.147-1.161.045-1.603-.102-1.96-.653-2.18-5.537-2.457-7.315-.613-3.918-1.224-7.659-2.546-11.415a111.326 111.326 0 0 0-9.21-19.735C38.51 6.608 35.345.076 28.382 0h-.215Zm60.198 164.482c2.818.491 5.519 1.495 8.241 2.346 2.543.795 5.12 1.301 7.729 1.818 5.191 1.028 10.496 1.97 15.612 3.311 1.441.377 2.199 1.23 3.456 1.822.932.439 1.806-.006 2.776-.043 2.11-.081 4.451.612 6.481 1.129 4.791 1.219 9.042 3.336 13.378 5.677.388.209 3.011 1.418 2.887 1.918-.101.409-3.436-.688-3.966-.769-2.685-.412-5.308-1.265-7.974-1.794-2.188-.435-4.4-.73-6.579-1.212-2.424-.537-7.588-2.405-7.793 1.628-.222 4.358 4.556 5.698 7.429 7.731-.32.556-4.929-1.278-5.5-1.463-1.96-.637-3.777-1.783-5.773-2.272-3.471-.85-3.05 3.011-1.134 4.729 2.129 1.907 5.651 2.484 6.83 5.42-1.549.563-3.573-.494-4.995-1.019a361.898 361.898 0 0 0-5.622-2.026c-4.218-1.476-8.224-3.509-12.465-4.916-8.7-2.884-17.896-3.711-26.991-4.224.81-3.166 1.697-6.313 2.425-9.5.311-1.364.597-2.734.833-4.113.164-.96.024-3.255.68-4.012.8-.921 2.88.373 4.013.349 1.11-.025 1.92-.601 2.944-.783.974-.173 2.126.101 3.078.268Zm163.476 18.325c0 1.514.26 3.349-1.717 3.526-1.598.143-4.726.327-6.001-.818 1.222-.6 2.611-.704 3.909-1.05 1.353-.361 2.601-.953 3.809-1.658Zm-32.627-27.575c.601.005 1.616.678 2.164.866a46.78 46.78 0 0 0 3.049.907c3.079.821 7.044.949 8.458 4.277.705 1.662 1.195 5.934 3.647 5.918 2.18-.014 3.485-3.182 5.04-4.31 1.607-1.164 4.155-.372 5.889.134 1.761.514 4.494 1.173 4.297 3.421-.143 1.616-.432 3.087-.418 4.738.017 2.102.193 4.199.193 6.3-1.237-1.706-2.315-5.136-4.506-5.822-2.213-.693-3.465 3.201-4.041 4.693-.713 1.85-1.61 3.947-1.665 5.951-.017.629.363 2.358-.072 2.875-.386.46-1.869.126-2.348.076-2.967-.311-5.917-.698-8.893-.957-1.528-.133-1.944-.471-1.795-2.126.117-1.301.154-2.54-.008-3.845-.722-5.828-4.286-11.158-10.311-12.17-3.631-.61-7.871-.164-11.496.422-1.397.225-2.914.907-4.333.847-1.049-.043-.711-.103-.926-1.097a3.27 3.27 0 0 0-.996-1.77c-.415-.38-.941-.165-1.332-.663-.283-.36-.241-.85-.374-1.265-.261-.808-.732-1.897-1.669-2.101-1.509-.329-3.113 1.706-3.874 2.755-.787 1.085-1.025 4.324-2.29 4.748-1.46.489-3.197-1.438-3.502-2.652-.409-1.633.107-3.4.353-5.017.018-.116.09-1.19.169-1.26.213-.189 1.818-.136 2.102-.151 1.399-.067 2.8-.07 4.199-.074 5.488-.013 10.864-.557 16.315-1.136-.792 1.3-2.147 3.434-.756 4.806 1.031 1.017 2.892.507 4.187.716 1.83.296 4.914 2.044 6.658.766 2.457-1.802-.323-4.898-1.235-6.601-.195-.365-.92-1.65-.613-2.078.266-.371.344-.124.733-.121Zm40.922 20.028c1.254.385 2.518.756 3.8 1.041 1.503.335 3.835.01 4.566 1.676.557 1.266.28 3.309-.172 4.571-.518 1.444-1.733 1.816-3.167 1.926-1.674.129-3.369-.143-5.023-.373-.652-.091-1.347-.255-2.01-.256-.393-.001-1.186.361-1.536.065-.452-.384-.154-2.563-.119-3.086.088-1.294.332-2.57.399-3.866.047-.931-.301-2.195.782-2.394.675-.123 1.893.516 2.48.696Zm-101.313-25.612c.938.164 1.87.28 2.822.266.587-.009 1.289-.21 1.831.114 1.002.599.852 2.175.818 3.159a50.175 50.175 0 0 1-.272 3.593c-.12 1.136-.739 3.006.135 3.98.616-.68.92-2.901 2.11-2.82 1.308.089.703 2.194.587 2.948-.641 4.167-1.372 8.336-1.945 12.515-.272 1.987-.624 3.959-.806 5.955-.122 1.34-.163 2.547-1.65 2.824-1.378.258-2.927-.182-4.32-.215-1.434-.035-2.256-.133-3.081-1.438 1.976-.436 5.106-.17 6.219-2.274 1.297-2.455-1.44-4.664-2.787-6.342-1.034-1.289-3.148-5.574-5.067-3.029-.691.916-.816 2.315-1.164 3.38-.568 1.732-1.261 3.439-1.942 5.128-6.224-3.236-12.611-6.153-19.399-7.97 1.731-2.945 3.873-5.598 5.168-8.79 1.452-3.579 2.655-7.254 4.139-10.821 2.353 1.383 4.868-1.97 7.211-2.105 3.701-.213 7.764 1.309 11.393 1.942Zm36.87 24.123c1.29.774 3.188 2.279 3.498 3.835.535 2.691-2.514.892-3.455.303-1.97-1.232-3.901-1.626-6.163-.866-2.902.973-5.576 2.617-8.691 1.369-1.55-.622-4.987-1.951-4.06-4.335.64-1.643 2.511-.233 3.5.356 2.59 1.542 4.734.565 7.322-.548 2.587-1.114 5.501-1.642 8.049-.114Zm91.898-13.806c1.036 1.479-1.07 1.159-1.994 1.303-1.934.301-3.925 1.854-3.392 4.051.52 2.141 2.555 3.48 2.943 5.729.333 1.93.012 4.374-1.84 5.434-1.04.595-3.312.841-4.359.157-1.598-1.044.387-2.599 1.444-3.116 1.401-.686 2.533-1.057 1.839-2.858-.845-2.195-2.487-3.879-2.341-6.391.121-2.081 1.211-4.446 3.199-5.31 1.422-.619 3.531-.384 4.501 1.001Zm-141.438-6.379c-1.791-.077-1.862 2.102-1.771 3.174.123 1.465-.141 3.027-.172 4.497-.04 1.948-.445 8.324 2.974 7.377 2.199-.609 4.008-2.731 5.776-4.094 1.626-1.255 5.76-2.761 6.028-5.14.303-2.687-2.957-3.19-4.825-3.617-2.666-.61-5.255-2.078-8.01-2.197Zm8.724-70.833c2.84.276 5.664.701 8.366 1.65 1.829.644 4.637 1.104 5.933 2.681 1.121 1.364.635 3.308.999 4.92.493 2.18 1.988 1.882 3.437.52 1.734-1.629 2.236-2.809 4.651-1.28 4.998 3.166 8.962 7.84 12.927 12.169-3.066.935-9.081 1.161-10.1 5.019-.556 2.109 1.122 3.644 2.63 4.795 1.947 1.486 3.979 2.861 5.883 4.407 1.777 1.442 5.762 7.186 6.889 2.136.699-3.126-.609-6.356-.054-9.445 2.411 3.915 4.859 7.82 7.069 11.855 1.882 3.435 2.976 7.108 3.878 10.906-1.407.092-2.871-.627-4.262-.202-1.339.409-1.966 1.685-2.06 3.007-.16 2.241.868 4.522 1.385 6.674.355 1.478.762 4.832 2.55 5.313 2.037.548 3.316-2.608 4.225-3.891.865 1.339.85 3.298.977 4.833.086 1.055.671 3.028-.508 3.611-1.103.546-3.429-.138-4.609-.188-2.188-.094-4.42-.272-6.609-.207-2.069.061-5.113 1.175-5.921-1.385-.55-1.744-1.034-8.008-3.969-4.609-1.304 1.509-2.323 3.23-3.583 4.768-1.27 1.551-2.425 1.652-4.322 1.574-3.756-.155-7.423.571-11.097 1.158-3.225.514-2.801-2.242-2.754-4.696.074-3.803-.675-7.78-1.084-11.562-.971-8.994-2.964-17.879-6.031-26.385 2.565-.88 7.164 2.669 9.061-.026 1.559-2.216-.444-5.269-1.259-7.34-1.017-2.585-1.532-5.285-3.191-7.575-.523-.724-1.268-1.693-2.282-1.45-.869.21-1.216 1.327-1.705 1.957-1.553 2-3.538 3.5-4.918 5.682-.845 1.334-1.502 2.761-1.776 4.327-.076.431.02 1.313-.281 1.675-.933 1.12-3.874 1.103-5.182 1.79-4.462 2.345-6.03 9.172-7.763 13.477-.489 1.212-.973 2.428-1.232 3.713-.174.859-.165 1.951-.628 2.721-1.01 1.682-4.147.18-5.686-.081a293.556 293.556 0 0 0-7.74-1.219c-1.58-.223-3.881-.8-5.086.61-1.248 1.462-.53 3.765.097 5.334 1.023 2.56 2.33 5.006 3.41 7.543.861 2.024 1.29 4.631 2.945 6.19 1.433 1.351 3.806 1.739 5.494.639.963-.628 3.436-6.698 4.088-6.427-1.178 4.689-2.905 9.47-4.73 13.945-.56 1.374-1.522 4.177-2.938 4.923-1.174.618-3.837-.55-5.038-.777-1.138-.214-3.386-1.145-4.474-.463-1.32.827-1.481 3.033-1.629 4.403-.11 1.015.09 1.773-1.137 1.723-.864-.036-1.737-.46-2.566-.674-1.926-.494-3.924-.822-5.885-1.141-4.533-.737-9.066-1.472-13.597-2.228-3.896-.65-7.742-.646-11.262-2.507-1.784-.943-3.83-1.231-5.73-1.862a28.84 28.84 0 0 0-5.735-1.267c-4.311-.513-8.506-1.016-12.767-1.895a291.552 291.552 0 0 1-6.978-1.525c-2.064-.48-4.06-1.243-6.114-1.713-1.71-.392-3.113-.098-3.846-2.051-.525-1.401-.403-2.971-.537-4.437-.617-6.699 1.713-13.437 2.19-20.099.154-2.158.201-4.323.362-6.479.074-.988.03-3.864 1.174-4.397.104.791.023 2.12.914 2.512-.435-.192.137 2.142.167 2.377.122.931-.182 1.928-.021 2.842-.127.322-.072.564.166.727.161.132.28.299.353.501.011.652-.178.268-.187.493-.09 2.242.286 4.566.126 6.863-.17 2.427-.709 4.808-1.118 7.203-.367 2.149-.762 4.302-1.068 6.461-.215 1.515-.374 3.254.436 4.633 1.536 2.618 5.986 2.333 8.577 2.762a528.27 528.27 0 0 0 12.944 1.959c1.66.232 3.34.762 5.019.789 1.794.028 2.753-.702 3.884-2.035 2.279-2.685 3.748-5.736 5.646-8.657 1.066-1.641 1.953-2.073 3.747-2.574 1.667-.466 3.004-1.69 4.36-2.709 2.849-2.139 6.527-4.466 8.396-7.617 1.967-3.316-.805-4.416-3.459-5.321.646-1.729 1.913-3.117 2.956-4.604 1.187-1.691 2.262-3.447 3.54-5.075 2.603-3.316 5.204-6.616 7.73-9.995 2.16-2.887 4.343-5.623 7.099-7.962 2.769-2.35 5.851-4.276 8.891-6.243 1.588-1.027 4.376-3.653 6.383-3.385 1.947.261 2.717 3.913 3.203 5.448.558 1.761.755 4.217 2.056 5.604 1.911 2.038 3.895-1.172 4.808-2.652 1.67-2.71 3.379-5.395 5.046-8.107.76-1.237 1.858-2.413 2.309-3.815.006-.017.217-1.222.004-1.054l-.015.014.015-.016c.476-.476 2.238-.575 2.897-.632l.06-.006c1.386-.132 2.789-.028 4.171.106Zm18.615 75.985c1.597-.01 3.188.177 4.777.308 1.396.115 2.675-.1 4.069-.185 1.724-.104 2.576.078 2.179 1.871-.288 1.304-.635 3.042-1.965 3.593-1.797.745-4.217.645-6.132.927-1.405.207-2.807.394-4.207.63-.929.157-1.406.321-1.842-.739-.363-.889-.129-2.077-.005-2.995.096-.705.039-1.944.369-2.571.493-.935 1.786-.833 2.757-.839Zm-74.425-17.879c-2.346 2.159-3.924 4.919-5.695 7.537-1.082 1.599-3.197 4.147-1.66 6.084 1.308 1.652 4.351 1.274 6.182 1.354 2.877.125 5.227 1.434 7.965 2.109 6.896 1.701 1.169-9.972.214-12.407-.67-1.71-1.362-3.411-2.173-5.058-.365-.743-1.095-2.909-2.004-3.192-1.318-.412-1.995 2.805-2.83 3.573Zm59.249-24.543c1.096 2.11 1.274 5.031 1.793 7.335 1.589 7.046 2.518 14.222 3.248 21.403-3.632-1.451-7.466-1.551-11.301-1.906-2.779-.258-5.33-.552-8.109-.433-.474.02-1.836.263-2.226-.143-.524-.544.11-2.063.265-2.636.842-3.11 1.213-6.323 2.17-9.414.976-3.152 2.162-6.3 3.425-9.347.923-2.229 2.191-4.403 4.428-5.496 1.959-.956 5.091-1.703 6.307.637Zm14.958 13.713c-1.497 2.272-3.392 4.26-4.854 6.553-1.036 1.626-2.25 4.635.24 5.669.873.363 1.905.206 2.82.222 1.416.024 2.818.147 4.236.113 1.342-.032 2.67-.196 4.008-.266.843-.044 1.902.021 2.645-.467 1.991-1.308.552-3.979-.09-5.687-.681-1.815-1.6-3.532-2.487-5.252-.616-1.193-1.535-3.624-2.934-4.11-1.657-.576-2.894 2.177-3.584 3.225Zm-72.564-25.741c-3.289 3.851-6.145 8.052-8.834 12.343a387.031 387.031 0 0 0-3.86 6.33c-.832 1.387-1.457 3.16-2.47 4.416-2.314 2.864-2.958-3.385-3.299-4.744-1.258-5.009-2.815-9.977-4.201-14.955h1.42c5.661-.003 11.089-.087 16.6-1.767 1.56-.475 2.983-1.507 4.644-1.623Zm11.957.971c-1.791 1.332-13.254 9.151-8.432 12.169.998.624 2.629.341 3.756.43 1.445.115 2.913.256 4.34.514 1.848.334 3.644.916 5.5 1.211 1.476.235 3.432.509 4.751-.417 2.176-1.527.855-4.526.137-6.468-1.021-2.758-1.988-6.451-4.521-8.094-.59-.383-1.312-1.748-1.946-1.873-.993-.196-2.859 1.988-3.585 2.528ZM49.427 40.396c.864.666.904 2.048 1.128 3.025.754 3.283 1.806 6.48 2.43 9.798.61 3.236.8 6.423.502 9.703-.2 2.188-.223 4.88-1.543 6.743-1.58 2.229-4.71 2.114-7.077 2.775-2.277.635-4.534 2.602-2.05 4.648.882.726 2.041.844 2.914 1.544 1.076.864 1.694 2.412 2.151 3.678.377 1.042.366 1.241-.759 1.61-.514.168-1.033.274-1.573.23-1.231-.104-2.33-.922-3.36-1.537-2.628-1.569-5.664-3.663-8.802-3.9-1.003-.075-2.143.338-3.118.01-.91-.306-.63-.493-.788-1.345-.625-3.373-.88-6.685-2.587-9.737-.843-1.506-3.072-4.586-4.566-2.242-.624.98-.85 1.458-2.234 1.157-1.126-.244-2.363-1.14-2.14-2.45.21-1.237 1.824-2.078 2.802-2.62 1.303-.72 2.216-.637 3.635-.808 3.898-.47 1.165-6.21.603-8.364-.353-1.354-.766-3.103.16-4.326 1.412-1.86 4.486-1.248 6.423-.984 2.678.365 5.601.559 8.108-.665 2.652-1.295 3.782-4.215 6.268-5.635.92-.525 2.53-1.037 3.473-.308ZM37.79 64.11c-1.843-.025-.947 2.62-.443 3.51 1.063 1.876 3.34 2.602 5.339 1.91 1.581-.547 3.292-2.965.815-3.366-1.188-.192-2.363-.114-3.489-.683-.641-.324-1.47-1.361-2.222-1.371Zm4.622-14.07c-1.145.7.81 5.17 1.139 6.076.535 1.476 1.012 2.43-.351 3.568-.948.791-2.818 1.474-1.925 3.052.826 1.46 3.66.847 4.814.133 1.675-1.038 1.181-3.027.812-4.66-.242-1.07-2.45-9.415-4.489-8.169ZM222.693 20.69c-3.531 1.519-7.141 2.891-10.877 3.806-3.264.8-6.475 1.663-9.839 1.475-3.113-.174-3.485 2.906-1.707 5.039.966 1.158 2.087 1.13 3.495 1.174 1.648.053 3.145.513 4.734.926 2.421.627 4.871 1.16 7.217 2.047 1.211.457 2.405.995 3.485 1.718.678.455 2.193 1.274 1.392 1.91-1.158.917-4.595-.34-5.973-.423a145.865 145.865 0 0 1-9.602-.89c-1.562-.197-3.24-.393-4.72-.965-.968-.374-2.04-1.302-3.137-1.067-2.313.498-1.167 3.99-.117 5.126 1.56 1.688 3.928 2.433 5.942 3.391 1.408.67 2.808 1.38 4.175 2.13.646.355 3.656 1.682 3.561 2.69-.1 1.06-2.476.525-3.064.429-3.922-.643-7.461-2.17-11.085-3.733-1.586-.684-3.194-1.34-4.747-2.099-1.085-.53-2.151-1.338-3.35-1.579-2.825-.568-2.701 2.61-3.814 4.327-3.306 5.102-9.695 7.279-14.666 10.228-1.881 1.115-3.674 2.4-5.4 3.743-1.232.96-1.725 2.28-3.102 1.014-1.146-1.054-1.7-2.601-2.435-3.942-.856-1.562-1.999-2.94-2.876-4.49-1.297-2.287-1.685-4.47 1.162-5.312 2.989-.884 5.354-2.202 7.895-4.082 6.234-4.615 11.407-10.509 17.623-15.16 5.759-4.308 11.866-8.352 19.085-9.509 6.843-1.097 14.35-.827 20.745 2.078ZM35.918 53.831c.147 1.27.457 3.98 2.21 4.082 2.129.123.7-6.39-.507-7.122-1.93-1.174-1.826 1.964-1.703 3.04Zm19.807-.519c2.657.222 3.414 3.153.759 4.19l-.759-4.19Zm-9.852-2.572c.341 1.33.22 3.465 1.28 4.486 1.494 1.438 2.145-.673 2.133-1.877-.01-1.19-.596-4.169-2.179-4.326-1.352-.134-.227 1.445-1.234 1.717ZM17.198 21.147c.971 2.035-.073 4.044-.654 6.045 1.192.387 2.799.094 3.527 1.363.46.8.38 2.005.242 2.871-.113.71-.692 1.668-.21 2.327.63.864 2.195.464 2.89 1.425 1.058 1.46.465 4.796-1.018 5.896-2.085 1.544-.84-2.246-.713-2.936.32-1.73-1.46-1.494-2.674-2.192-.652-.375-.768-.447-.918-1.247-.138-.737-.065-1.321.11-2.115.59-2.694-.443-2.254-2.568-2.847-1.833-.512-1.686-1.987-1.22-3.538.365-1.215 1.453-3.209.274-4.245-.468-.411-1.179-.151-1.28-1.01-.068-.579.704-1.529 1.11-1.862 1.397-1.148 2.534.874 3.102 2.065Z" fill="#252525"/></svg>