<svg width="401" height="300" fill="none" xmlns="http://www.w3.org/2000/svg"><path fill-rule="evenodd" clip-rule="evenodd" d="M167.877 117.541c-4.601.294-9.24.174-13.846.028-.453-.015-1.538-.226-1.815.045-.318.313-.25 2.033-.303 2.459l-1.193 9.683-.548 4.446c-.052.421-.568 2.243-.322 2.608.448.665 3.656.817 4.502.98l10.068 1.94c.949.182 3.369.225 3.808.974.279.475.109 1.762.142 2.301l.274 4.449 1.075 17.481 21.378-1.718 5.202-.418c.412-.034 1.278.053 1.615-.175.736-.498 1.363-2.63 1.76-3.396l3.036-5.859 2.926-5.646c.25-.482.873-1.285.858-1.812-.018-.593-.903-1.656-1.18-2.163l-2.432-4.461-12.038-22.088c-.204-.374-.658-1.73-1.056-1.937-.773-.4-3.476.405-4.309.5-5.853.668-11.721 1.404-17.602 1.779Z" fill="#FD4300"/><path fill-rule="evenodd" clip-rule="evenodd" d="m100 104.893 4.268 5.064 11.316-13.968-5.673-2.535c-1.678-.75-1.464-.393-2.526 1.093-2.461 3.45-4.923 6.898-7.385 10.346ZM172.745 214.718l-.018 7.36 22.511-1.109-1.023-3.087c-.266-.804-.603-3.234-1.25-3.773-.707-.589-3.817.018-4.766.052l-15.454.557ZM154.869 29.004l-26.298 16.614 5.806 6.79c.464.543.546.886 1.076.833.617-.06 1.655-1.03 2.169-1.35l18.642-11.603 5.641-3.511c-2.346-2.59-4.691-5.182-7.036-7.773ZM358.539 115.56c-.317-2.574-1.615-5.191-2.564-7.575a287.178 287.178 0 0 0-3.505-8.368c-.765-1.755-1.042-1.324-3.04-1.245l-7.006.274 5.394 19.583c.312 1.13.815 5.366 1.795 5.938.34.199 1.513-.057 1.898-.071l3.305-.124 4.491-.168c-.208-2.751-.431-5.505-.768-8.244Z" fill="#252525"/><path fill-rule="evenodd" clip-rule="evenodd" d="M210.232 280.845c-4.018-1.015-8.389-.053-12.437-.025-2.385.017-4.765-.142-7.149-.019-.798.041-4.451-.065-4.576.415-.095.369.631 1.298.913 1.451.788.43 1.343-.123 2.139-.327 2.157-.557 4.679-.213 6.895-.319 2.319-.111 4.637-.249 6.956-.355 2.31-.107 5.257.372 7.259-.821ZM13.387 72.587c-.308-.706-.435-1.827-1.143-2.269-.656-.41-2.03-.11-2.789-.121-1.612-.022-5.112.04-6.165 1.508-1.28 1.784 2.486 3.056 3.743 3.022 2.182-.06 4.168-1.736 6.354-2.14Zm40.128-22.392c.166-.452-.417-.75-.839-.895-1.071-.366-1.776.243-2.72.702-2.382 1.157-4.971 1.922-7.477 2.758-2.181.727-4.205 1.747-6.344 2.567-1.516.58-4.717.468-5.59 1.934-1.725 2.895 2.792.723 3.588.442 2.284-.805 4.715-1.301 6.954-2.222 2.154-.885 4.351-1.786 6.484-2.745.973-.438 1.94-.81 2.932-1.192.928-.357 2.025-1.255 3.012-1.35Zm65.182 50.187c-.569-.349-2.902-2.296-3.685-2.04-.612.202-1.297 2.439-1.679 3.027-1.91 2.941-3.97 5.761-6.018 8.606l2.727 1.466c1.853-4.392 5.427-7.679 8.655-11.059Zm35.368 15.699c2.926.007 5.824-.36 8.746-.319 3.275.046 6.492.134 9.763-.133 3.219-.264 6.426-.276 9.644-.472 1.013-.062 6.651-.492 3.348-2.104-1.111-.543-2.447.133-3.654.377-1.398.282-2.81.388-4.223.558-1.347.162-2.778.61-4.137.577-1.425-.035-2.495-.289-3.928-.083-2.97.427-5.928.188-8.897-.087-2.047-.19-6.541-1.341-6.662 1.686Zm79.614 166.583c1.883-1.519 4.861-.861 7.099-1.345 2.47-.535.525-3.153-.423-4.547-.987-1.454-2.474-4.358-4.134-2.207-1.734 2.247-1.939 5.416-2.542 8.099Zm-59.27-65.979c-.063 1.365-.739 2.769.681 3.238 1.362.449 3.7-.234 5.112-.356 1.84-.159 3.651-.462 5.485-.652.819-.084 1.642-.147 2.466-.072.566.052 1.933.668 2.44.413.623-.313.924-2.002.416-2.653-.551-.706-3.881-.006-5.072.084-3.881.295-7.664-.176-11.528-.002Zm-.238-4.379c1.787-.736 3.91-.391 5.791-.402 2.214-.011 4.402.11 6.61.254.977.063 3.828.787 4.648.162.431-.329.585-3.146.22-3.578-.596-.705-2.468.144-3.235.258-2.053.305-4.149.298-6.221.278-1.939-.017-3.885-.103-5.823-.108-2.296-.005-1.985 1.168-1.99 3.136ZM112.706 96.802c-.73-.423-3.126-2.368-4.021-2.073-.761.252-1.57 2.573-2.025 3.302-.866 1.39-1.781 2.752-2.679 4.121-.574.876-2.104 2.458-1.843 3.642.139.63 1.414 1.719 2.057 1.528.664-.197 1.758-2.668 2.127-3.155 1.995-2.635 4.501-4.618 6.384-7.365Zm232.329 2.854c2.557 5.011 2.886 10.678 4.271 16.057.323 1.251.82 2.487 1.093 3.746.153.702-.128 1.904.265 2.501.983 1.495 5.532 1.02 6.513-.296.576-.773.129-1.575-.117-2.377-.331-1.084-.172-2.028-.364-3.11-.385-2.168-2.339-4.357-3.266-6.358-1.012-2.186-1.478-4.817-2.928-6.77-.971-1.306-3.694-4.003-5.467-3.393ZM178.312 295.153c3.421-.45 8.803-1.467 8.623-6.065-.178-4.57-6.17-5.382-9.505-5.783-.978-.117-1.084-.173-2.077.419-.682.407-1.361.842-1.997 1.317-1.238.925-2.641 2.185-2.905 3.798-.672 4.098 4.858 5.95 7.861 6.314ZM158.756 35.527c1.552.164-.513-1.344-.904-1.527-1.188-.554-2.507-.454-3.768-.243-3.051.51-5.752 3.072-8.359 4.656-2.761 1.676-5.486 3.572-8.365 5.036-1.316.67-2.404 1.237-3.498 2.236-.557.509-.75.862-1.5.862-.415 0-1.342-.971-1.784-.41-1.235 1.569 4.987 2.076 5.636 1.97 3.244-.53 6.058-1.762 8.841-3.43 2.842-1.704 5.86-3.088 8.716-4.746 1.234-.717 2.291-1.668 3.417-2.52.161-.122.453-.533.616-.69a.579.579 0 0 0 .657-.203 26.1 26.1 0 0 1 .295-.991Zm62.751 245.361c-3.155 1.12-8.313 1.992-9.793 5.693-1.677 4.192 5.86 7.181 8.818 7.409 3.107.239 8.629-1.019 9.062-4.883.249-2.224-1.514-3.643-3.162-4.752-1.684-1.134-4.087-1.377-4.925-3.467ZM19.624 47.384c-2.23.256-3.746.476-5.522 1.923-1.474 1.202-2.689 2.415-3.29 4.268-1.388 4.283 2.044 7.96 6.453 7.461.486-.055.96-.234 1.454-.185.454.046.77.371 1.154.436.903.154 1.078-.005 1.819-.707 1.511-1.434 3.028-3.01 3.865-4.945 2.017-4.66-1.015-8.167-5.933-8.25ZM70.33 38.46c.217-4.824-7.125-5.616-10.51-5.25-3.844.417-10.15 4.32-8.687 9.108 1.289 4.215 8.558 3.893 11.7 3.037.672-.183 1.716-.581 2.378-.447.993.202 1.042 1.02 1.978.28.588-.466 1.12-1.821 1.535-2.49.828-1.33 1.256-2.716 1.606-4.239Zm103.195 198.068c-.101 1.033-.496 2.361.616 2.852.687.304 2.593-.029 3.283-.004 2.881.102 5.837-.127 8.699.102.847.068 3.377.927 4.13.351.737-.563.162-2.324.113-3.113-.201-3.217.23-6.344.369-9.543.037-.859.391-2.947-.267-3.583-.802-.775-2.582-.327-3.538-.23-2.982.302-6.05.744-9.047.751-.823.002-2.645-.582-3.359-.274-1.096.472-.838 2.122-.899 3.175-.183 3.176-.304 6.338-.1 9.516ZM106.481 92.519c-3.91-2.897-7.962-5.643-11.872-8.46-1.392-1.002-2.427-2.434-3.732-3.412-.818-.615-1.067-.882-2.185-.289-1.293.685-2.494 1.762-3.686 2.613-1.002.714-2.008 1.422-3.01 2.134-.93.659-1.24.808-.582 1.903 1.158 1.926 3.564 3.663 5.137 5.247 3.88 3.909 7.672 7.952 12.033 11.329 1.499-4.374 4.6-7.93 7.897-11.065Zm43.829-67.507c-6.787-2.682-7.302-11.763-9.676-17.55-.735 3.962 1.215 10.401-2.077 13.513-2.025 1.914-3.198-.787-4.285-2.257-1.656-2.238-3.433-4.377-5.014-6.673.486 2.77 1.876 5.877 1.616 8.692-.204 2.21-1.617 5.239-3.673 2.732-1.412-1.722-3.22-3.332-4.867-4.859-1.979-1.835-4.238-3.02-6.39-4.586.833 4.14 2.422 7.816 4.763 11.32 1.201 1.798 2.517 3.525 3.65 5.368.927 1.506 1.365 3.38 2.593 4.659 1.147 1.195 2.834 2.15 4.208 3.067 1.956 1.307 2.425.935 4.224-.307 3.481-2.404 7.262-4.33 10.766-6.703-.649-.858-1.685-1.705-1.651-2.873.028-.945.751-1.805 1.719-1.692.759.089 1.109.884 1.954.616.713-.227 1.689-1.931 2.14-2.467Zm233.719 72.313c-3.146.371-6.082 1.492-9.306 1.288-1.305-.083-2.279.158-2.851-1.151-.458-1.047.01-2.636-1.427-2.921-1.066-.21-2.384.779-3.172 1.339-1.415 1.006-2.669 1.9-4.271 2.61-2.841 1.26-5.724 2.356-8.829 2.493.751 2.281 1.542 4.566 2.582 6.734.997 2.078 1.978 3.846 2.275 6.161.127.991.127 2.07 1.099 2.506.954.427 2.655.075 3.688.093 2.364.043 4.731.098 7.096.104 1.802.003 3.595.433 5.35.408 2.182-.032 4.65-.98 6.778-1.43 4.032-.853 9.674-1.382 12.887-4.132-2.974-.468-6.003-.15-8.925.491-1.337.294-4.406 1.822-5.302.292-1.068-1.823 1.022-4.34 2.497-5.187 1.664-.956 4.147-.853 5.32-2.576-2.215.187-4.549.269-6.691.92-1.641.499-3.758 1.921-4.408-.541-1.052-3.99 2.866-5.882 5.61-7.5Zm-234.735 34.158c.556-5.282 1.576-10.619 1.666-15.936.039-2.297-2.557-1.886-4.374-2.539-2.64-.949-5.229-2.072-7.821-3.142-2.585-1.067-5.183-2.096-7.777-3.141-2.354-.948-4.614-2.382-6.988-3.224-1.292-.459-1.393-.011-2.143 1.174a71.156 71.156 0 0 1-2.289 3.393c-1.666 2.333-3.449 4.579-5.272 6.79 5.485 3.302 11.21 6.354 16.87 9.347 5.776 3.054 12.059 4.903 18.128 7.278Zm117.168-20.035c2.901.007 5.726-.411 8.615-.5 2.856-.087 5.617.038 8.449.112 2.72.071 5.387.623 8.099.752.66.031 1.346.028 2.002.101.659.074 1.05.319 1.663.423 1.504.255 2.969-.106 4.487-.025 5.597.299 11.112 1.449 16.711 1.74 5.756.3 11.373.747 17.102 1.437 3.028.365 6.061.579 9.103.792.624.044 1.959.437 2.301-.275.415-.864-.993-3.816-1.252-4.731-.337-1.189-.614-2.405-1.066-3.558-.265-.674-.823-2.874-1.361-3.302-.749-.596-1.868-.023-2.743.103-1.772.256-3.573.409-5.354.584-2.638.261-5.277.884-7.913.963-2.975.089-5.935-.038-8.907-.149-5.952-.223-12.047-.108-17.968-.716-6.842-.702-13.716-.988-20.574-1.504-1.626-.122-3.256-.153-4.883-.251-1.164-.069-3.54-.887-4.628-.508-1.105.385-.895 1.693-1.021 2.71-.238 1.939-.547 3.873-.862 5.802Zm-71.245 53.822c-4.129.635-8.179.884-12.353 1.004-1.841.052-3.67.141-5.504.325-1.533.154-2.392.221-2.449 1.9-.249 7.362-.65 14.645-.876 22.01-.128 4.158.019 8.321.005 12.481-.006 1.579-.329 2.717 1.406 2.901 2.108.224 4.32-.07 6.441-.05 1.952.019 3.905.067 5.857.109 1.253.027 3.577.651 3.998-.867.134-.485-.107-1.337-.095-1.874.024-.999.147-2.008.207-3.007.138-2.291.239-4.584.378-6.875.569-9.386 2.1-18.695 2.985-28.057ZM147.943 48.42c2.723 2.089 5.821 3.526 8.732 5.353 1.396.877 2.743 1.816 4.11 2.735 1.407.945 3.041 1.517 4.37 2.567 2.572 2.032 5.755 3.326 8.581 5.09 2.871 1.79 5.733 3.585 8.669 5.268 1.3.745 2.721 1.193 4.053 1.865 1.598.805 3.047 1.86 4.666 2.63 3.466 1.65 6.928 3.3 10.38 4.98 6.775 3.299 13.72 6.346 20.637 9.335 1.474.637 3.024.916 4.578 1.293.733.177 1.664.27 2.325.622.205.11.423.126.587.31.312.354.047.85.239 1.113 1.077 1.474 4.068-2.669 4.764-3.673 1.074-1.551.638-1.802-1.02-2.446-1.674-.65-3.362-1.261-5.018-1.955-3.049-1.278-6.167-2.724-9.08-4.29-3.029-1.628-6.185-2.972-9.182-4.67-3.362-1.906-6.698-3.85-10.099-5.687-5.737-3.1-11.007-7.009-16.58-10.374-3.078-1.857-5.971-4.068-8.949-6.114-2.906-1.996-5.66-4.225-8.627-6.09-1.633-1.026-3.33-1.88-4.856-3.064-1.14-.886-2.277-1.794-3.707-1.05-1.544.802-3.002 2.152-4.502 3.085-1.692 1.053-3.381 2.11-5.071 3.166Zm126.423 34.55c-.884-.462-4.13-1.697-2.606-3.21 1.085-1.076 3.648.354 4.699.71-.022-1.488-.02-2.515-.499-3.934-.481-1.426-.347-2.505.826-3.585.536-.495 2.482-.921 2.708-1.57.35-1.007-1.395-.688-1.991-.829-3.148-.744-2.958-4.045-3.036-6.572-.093-2.97-.788-5.827-3.084-7.758-1.037-.872-1.411-.874-2.689-.3-.47.21-.894.55-1.414.643-.735.133-1.227-.346-1.881-.314-1.013.05-2.047 1.726-3.033 2.261-1.277.694-2.534.487-3.796.983-1.123.442-2.208 1.639-3.255 2.276-1.425.867-1.101 1.718-1.01 3.421.076 1.422.031 2.354-1.367 2.881-.45.17-1.243.094-1.627.367-.566.404-.259.708-.442 1.383-.462 1.71-1.443.666-2.694.438-1.523-.278-3.202.797-2.406 2.432.285.586.896 1.119 1.508 1.3.724.216 1.627-.376 2.295-.11 1.702.683.342 2.3.423 3.401 1.033-.56 1.384-2.168 2.452-.386.772 1.287.465 3.243.273 4.65-.444 3.252-1.441 7.236-3.557 9.846-.305.375-.76 1.081-1.333.992-.476-.073-.533-.691-.945-.85-.884-.34-2.237.164-2.575.982-.572 1.383-.513 3.412-.558 4.875-.052 1.685-.25 3.59.159 5.243.698 2.822 3.323 3.805 5.877 4.428 1.423.347 2.983.752 4.424.264 1.571-.532 2.652-1.96 3.76-3.112.833-.866 2.449-1.852 2.557-3.105.051-.586-.366-1.395-.461-1.995a15.688 15.688 0 0 1-.168-2.882c.046-1.771.542-3.573.391-5.344-.156-1.813-1.503-1.943-2.237-3.34-.437-.832-.54-2.13.524-2.413.617-.164 1.775.305 2.444.352a50.68 50.68 0 0 0 3.079.1c1.887.018 3.309-.079 5.017-.9 1.758-.845 3.328-1.373 5.248-1.718Zm-43.75 198.572c.071-1.545.286-3.09.764-4.565.407-1.253 1.28-2.351 1.427-3.646.306-2.703-.59-5.243-3.195-6.218-2.527-.946-5.264-.931-7.902-.753-1.532.103-2.83-.422-4.333-.352-1.582.073-2.978-.144-4.55-.311-2.918-.31-5.405-1.595-8.239-2.138-1.387-.267-1.867.325-2.715 1.302a15.63 15.63 0 0 1-3.173 2.768c-1.821 1.214-5.079 3.444-5.252-.319-.146-3.158 3.017-5.498 4.97-7.543-1.979-.841-1.809-3.964-4.108-2.707-.998.545-1.786 1.352-2.708 2.006-.775.55-2.555 2.083-3.576 1.964-1.439-.168-1.593-2.215-1.378-3.35.392-2.063 2.548-3.25 4.078-4.461.924-.732 2.307-1.308 3.093-2.168.835-.913.649-1.937.621-3.085-.012-.523.38-2.491.167-2.942-.328-.696-1.463-.511-2.272-.583-1.502-.134-2.992-.398-4.487-.539-1.173-.111-2.299.153-3.472.196-2.964.109-5.961-.045-8.929-.054-.538-.002-2.794-.387-3.169.079-.323.401-.015 2.262-.017 2.743-.01 2.986 0 5.969.089 8.954.175 5.889-.021 11.937-1.231 17.726-.219 1.049-.908 2.212.154 2.728.818.397 3.001-.22 3.893-.278 2.892-.19 5.815-.003 8.691-.214 5.007-.366 10.186-.029 15.294.089 6.794.159 13.551.894 20.343 1.068 2.953.075 5.956-.464 8.87-.375 1.145.036 1.47.325 1.534 1.553.077 1.459-.557 2.242.718 3.425ZM88.041 73.259c-2.61-4.409-5.07-8.905-7.677-13.315-1.178-1.991-2.5-3.884-3.815-5.786-.674-.974-1.418-1.959-1.933-3.032-.472-.982-.612-2.112-1.168-3.055-1.05 2.323-3.306 3.597-5.667 4.429-1.834.646-3.623 1.571-5.537 1.97-5.005 1.044-9.956 3.294-14.868 4.925-10.428 3.462-21.576 5.363-31.616 9.862 3.426 3.391 2.361 10.622 8.078 11.716 2.274.435 4.65-.265 6.826-.864 2.749-.758 5.5-1.51 8.25-2.258 2.986-.814 6.001-1.445 9.01-2.155 1.512-.357 3.034-.604 4.548-.926 1.262-.268 1.277-.53 1.938-1.718 1.118-2.01 3.192-4.065 4.946-1.414.714 1.08.563 2.435 1.189 3.505.534.913 1.678 1.388 2.481 2.005.558-1.575 1.224-3.707 2.457-4.917 1.344-1.32 2.68-.258 3.164 1.293.582 1.864-.276 4.132-.65 5.966-.184.896-.531 1.927-.32 2.846.279 1.222 1.343 2.481 1.978 3.541 5.927-4.418 11.983-8.93 18.386-12.618Zm115.882 74.226c-1.735-2.353-3.57-4.438-4.873-7.074-1.393-2.817-2.519-5.851-4.004-8.596-1.475-2.727-2.832-5.505-4.179-8.304-.94-1.954-2.009-6.644-4.701-6.527-1.344.059-2.716.543-4.068.676-1.585.156-3.177.147-4.76.341-3.473.425-6.854 1.184-10.36 1.39-3.012.177-6.063.267-9.079.136-.822-.035-2.961-.676-3.723-.309-.888.428-.591 2.096-.666 2.95-.283 3.211-.717 6.424-1.205 9.609-.084.543-.923 3.258-.548 3.716.58.708 3.07.235 3.881.298 3.203.246 6.351.978 9.541 1.332 1.619.179 3.239.221 4.867.227 1.581.005 3.887-.431 5.387.11.964.349 1.511 1.168 1.2 2.212-.343 1.151-1.46 1.408-2.494 1.623-.759.158-2.961.07-3.439.768-.517.755.389 2.178.645 2.895.489 1.373.211 1.963.175 3.306-.038 1.414.78 2.658.671 4.087-.106 1.397-.165 2.513-.029 3.938.12 1.251.037 2.622.213 3.838.406 2.814 6.49 1.112 8.378 1.069 3.903-.087 7.821.544 11.708.357 1.144-.055 3.796.153 4.603-.818.818-.984.947-3.229 1.475-4.446 1.376-3.181 3.428-5.969 5.384-8.804Zm34.749-62.626c-.284 3.265-.442 5.779-2.397 8.526-2.088 2.934-4.488 2.67-7.784 2.993-2.958.29-5.279 1.267-7.655 3.016-2.794 2.057-5.808 3.765-8.786 5.535-5.665 3.368-12.421 4.299-18.854 5.3-1.617.252-4.603.976-2.7 2.893 2.046 2.061 3.192 5.102 4.567 7.68 3.151 5.912 5.567 12.262 9.162 17.925 1.452 2.287 3.19 5.047 5.419 6.662 2.116 1.533 6.364-1.314 8.517-2.255 2.8-1.224 5.738-2.153 8.375-3.663 2.46-1.408 4.964-2.623 7.55-3.783 2.539-1.139 4.998-2.272 7.657-3.103 3.129-.979 6.436-1.326 9.614-2.178 3.261-.873 5.835-1.8 8.47-3.961 1.225-1.004 2.717-2.008 3.21-3.595.505-1.624.133-3.694.057-5.359-.081-1.74-.351-3.522-.316-5.263.036-1.755.896-3.132 1.416-4.762.82-2.573 1.753-7.238-.844-8.97-.183 2.748-1.152 5.215-2.06 7.793-.875 2.484-2.31 4.003-4.457 5.451-.817.551-1.7 1.318-2.667 1.568-1.026.265-2.461.129-3.527.141-2.397.025-4.995-.603-6.842-2.219-3.738-3.273-4.554-9.137-4.193-13.789.208-2.675.649-5.37 1.875-7.785.422-.83 1.261-1.716.792-2.688-.489-1.017-2.683-1.633-3.599-2.11Zm-73.754 57.007c-4.41-.576-9.001-1.044-13.284-2.288-1.558-.453-3.438-1.027-3.454-2.895-.006-.574.424-1.61.177-2.149-.254-.553-1.832-.59-2.563-.736-8.494-1.684-16.384-4.977-23.966-9.1-7.669-4.171-14.753-9.092-21.99-13.952-7.06-4.742-12.926-10.532-18.794-16.622a109.41 109.41 0 0 0-2.494-2.49c-.614-.598-1.467-1.816-2.275-2.14-1.451-.585-3.48 1.626-4.764 2.284-1.67.856-3.66.986-4.762-.818-.728-1.192-.051-1.41.053-2.531.085-.922-.546-1.445-1.1-2.087-.429 1.01-.998 2.86-2.455 2.63-1.31-.207-1.453-2.012-1.547-3.041-.108-1.2.265-2.724-.547-3.695-.638-.764-1.886-1.322-2.704-.63-1.645 1.392-.578 5.538-2.9 6.572-3.273 1.457-2.954-5.191-3.023-6.52-7.328.81-14.216 4.01-21.552 5.058-2.985.427-6.434.287-9.04-1.417-2.395-1.567-4.884-5.014-5.908-7.66-2.457 1.822-5.027 3.218-8.182 2.406-3.208-.827-6.03-2.606-7.209-5.83-1.183-3.237-.84-5.701 2.113-7.528 1.209-.747 2.165-1.113 3.495-1.474 1.473-.4 3.339-.69 4.73-1.322-1.435-2.095-3.066-4.148-3.717-6.651-.736-2.824-.369-6 .771-8.67 2.061-4.825 7.854-8.053 13.072-6.95 4.553.962 7.775 4.904 9.069 9.215.587 1.96.071 3.173 2.47 2.112 2.722-1.204 5.105-2.976 7.918-4.04 2.44-.922 5.1-1.696 7.361-3.02 1.17-.686 1.115-.745.638-2.002-.592-1.562-.958-3.017-.826-4.714.377-4.86 4.4-8.305 8.704-9.904 4.88-1.813 10.931-1.097 14.588 2.82 1.777 1.904 2.99 4.406 3.144 7.025.07 1.16-.623 2.925-.237 3.996.336.931 1.926 1.645 2.54 2.536.973 1.413 1.423 3.104 2.389 4.542.837 1.244 1.685 2.479 2.49 3.746 1.954 3.076 3.786 6.227 5.383 9.505.731 1.499 1.417 3.02 2.087 4.547.46 1.047.839 2.961 1.666 3.796.835.844 2.08.574 2.798 1.641.903 1.345.045 2.534-.671 3.705 5.444 1.595 8.787 6.205 13.144 9.583 4.398 3.41 9.225 6.362 13.953 9.286 4.921 3.044 9.752 5.944 15.11 8.156 4.993 2.061 9.818 4.49 14.797 6.577.698.293 1.242.681 1.932.226.638-.42.767-1.776 1.434-2.326 1.69-1.392 5.667-.619 7.679-.651 2.901-.045 5.845-.209 8.744-.059.982.05 1.93.442 2.892.312 1.474-.198 2.85-.499 4.384-.561 1.277-.052 2.551-.147 3.83-.101.606.022 1.631.282 2.175-.131.678-.514.27-1.747.733-2.495.3-.485.894-.618 1.185-1-.037.049.463-.814.325-.705.893-.705 3.393-.918 4.449-.667.305.073.355.586.739.587.382.001.412-.385.682-.477.28-.097.356-.485.731-.544.414-.066.945.401 1.394.427.506.029.988-.306 1.459-.437.625-.173 1.107-.046 1.628-.108.95-.113 1.971-.219 2.958-.335 1.435-.168 2.832-.616 4.232-.956.614-.15 1.227-.324 1.86-.372.731-.056 1.682.289 2.372.126.59-.139.109-.35.621-.527.552-.191 1.15-.244 1.71-.438 1.288-.446 2.476-1.186 3.633-1.892 2.694-1.645 5.104-3.694 7.768-5.383-.608-.885-2.872-1.035-3.83-1.347-1.318-.431-2.611-.936-3.901-1.445-2.931-1.157-5.84-2.37-8.749-3.582-5.517-2.299-11.066-4.516-16.339-7.337-4.954-2.649-10.244-4.713-15.156-7.457-2.499-1.396-5-2.865-7.43-4.38-2.263-1.41-4.698-2.371-7.042-3.66-4.58-2.52-8.787-5.654-13.384-8.12-1.086-.583-2.291-1.816-3.463-2.132-1.007-.273-2.029.289-2.939.683-.964.418-1.869 1.103-2.951 1.126-1.191.026-2.555-.616-3.679-1.005-2.089-.723-3.904-2.726-4.664-4.812-.371-1.02-.542-2.153-.68-3.226-.162-1.271.267-2.767-.043-3.976-.589-2.3-3.311-4.461-4.833-6.111-1.89-2.049-3.528-4.342-5.02-6.693-3.335-5.254-5.649-11.487-3.79-17.672.283-.943.788-2.5 1.623-3.128 1.158-.872 1.653.146 2.655.65 1.244.629 2.425.994 3.591 1.847 1.414 1.034 2.577 2.295 3.88 3.45.007-2.669-.409-5.01.167-7.683.296-1.372.958-4.227 2.704-4.471 1.811-.254 3.109 3.028 3.897 4.225 1.466 2.226 3.103 4.314 4.734 6.418.211-3.265-.222-11.026 3.883-12.31 3.677-1.151 5.578 8.76 6.469 10.978.831 2.069 1.998 4.113 3.26 5.951 1.322 1.926 2.764.945 4.814 1.035 1.894.084 2.746 1.395 2.725 3.253-.026 2.35-1.894 4.068-3.187 5.842 2.797 1.352 6.42 3.111 8.09 5.896.371.617.626 1.325.649 2.053.022.72-.636 2.038-.295 2.704.25.486 1.094.663 1.543.927.928.549 1.753 1.258 2.671 1.826 6.016 3.724 11.672 8.173 17.475 12.105 5.24 3.55 10.791 6.713 16.091 10.26 6.739 4.512 13.826 8.35 21.04 12.06 1.664.855 3.207 1.805 4.804 2.763 1.639.983 3.594 1.646 5.344 2.442 1.226.557 2.562 1.618 3.849 1.965 1.531.413 2.175-1.21 3.959-.79 1.539.363 3.217.524 4.141 1.91.81 1.214.735 3.072 2.04 3.857 1.513.91 1.937-.066 2.287-1.33.397-1.437 1.521-3.081.142-4.117-1.302-.977-3.148-1.085-4.672-1.447-.772-.183-1.797-.851-2.532-.912-.919-.075-1.134.78-1.915.782-.415 0-.78-.401-1.176-.529-.089-.029-.323.299-.431.269-.386-.109-.418-.238-.795-.393-1.344-.552-3.122-1.422-2.716-3.1.217-.9 1.692-2.349.663-3.175-.968-.776-2.266.843-2.799-.777-.379-1.15.544-1.46-.63-2.406-.863-.697-1.658-.886-1.181-2.163.308-.823 1.906-2.073 1.448-3.065-.649-1.404-3.118.015-2.88-2.52.17-1.817 2.454-3.128 2.469-4.915.011-1.279-1.202-1.27-1.517-2.101-.312-.822-.027-.818.428-1.395.337-.428.557-.57.809-1.076.307-.614.836-1.408.637-2.122-.179-.642-.93-1.024-1.119-1.735-.712-2.678 4.946-8.764 6.387-5.076 1.07-1.238 2.473-3.83 4.365-3.623 1.143.126.654.452 1.052 1.113.288.48 1.087.723 1.313 1.241.448-1.392-.027-3.972 1.219-4.993 1.214-.996 1.977.756 2.494 1.73.332-.92.546-2.645 1.692-2.975 1.227-.352 1.992 1.182 2.59 1.964.643-.915 1.85-3.61 3.24-3.282 1.043.246 1.559 1.987 2.046 2.79 1.141-.749 2.938-2.553 4.415-2.362 1.438.185 1.312 1.534 2.994.982 1.22-.4 2.487-1.464 3.782-1.543 1.365-.084 2.087.873 3.603.64 1.609-.246 1.855-.62 2.904.693.518.649.38.933 1.279 1.07.76.114 1.425-.388 2.222-.071.589.233 1.001.78 1.247 1.34.292.663-.046 1.811.245 2.332.56 1.003 2.676.118 3.625.815 1.282.94.075 2.367.757 3.408.548.836 2.091.623 2.705 1.752.557 1.022.426 2.372-.22 3.32-.271.397-1.033.727-1.212 1.087-.368.743-.059.656.155 1.416.41 1.452.082 2-1.037 2.993-.647.575-.783.41-.826 1.283-.033.674.54 1.299.434 2.053-.173 1.225-1.378 1.995-1.741 3.2-.468 1.55-1.744 2.398-2.707 3.674 1.138.686 2.633 1.255 3.185 2.544.603 1.405.491 3.406.064 4.831-.41 1.367-1.287 2.239-2.13 3.323-1.027 1.32-.939 2.368-1.003 3.98-.134 3.406-1.596 6.5-4.937 7.582-1.325.429-2.522 1.06-3.867 1.46-1.645.49-2.848.53-4.554.433-1.067-.06-2.316-.29-2.687.84-.186.565-.118 2.764.136 3.266.433.859 1.661.745 2.401 1.488 1.335 1.34.958 2.482 3.21 2.513 7.297.102 14.571-.461 21.868.067 3.598.26 7.12.883 10.732 1.066 3.976.2 7.963.268 11.936.51 3.75.227 7.42.718 11.19.524 3.521-.181 6.903-.423 10.41-.812 1.2-.133 3.058.058 3.906-.86.47-.508.578-1.38 1.047-1.94.433-.517 1.02-.89 1.552-1.294 1.289-.978 2.504-1.858 4.204-1.826 1.49.028 2.678 1.105 3.892 1.896 1.409.919 1.993 1.341 3.664.985 1.666-.355 3.193-1.013 4.818-1.497 3.428-1.02 6.64-2.488 9.763-4.228 1.538-.858 2.622-1.434 4.393-.918 1.816.529 2.332 1.05 2.354 2.936.006.598-.222 1.662.466 2.008.5.25 1.599-.45 2.023-.633 1.873-.813 3.713-1.66 5.671-2.253 1.787-.542 3.597-1.023 5.392-1.54 1.501-.434 3.503-1.06 4.999-.254 3.778 2.036-1.782 7.21-3.226 8.93 1.801-.431 5.666-.185 6.613 1.748 1.121 2.287-1.126 4.555-2.395 6.218 1.777.808 5.362.113 5.863 2.66.42 2.137-1.804 4.291-3.253 5.541-3.752 3.237-9.57 5.504-14.525 5.547-1.257.01-2.482-.235-3.733-.294-.915-.044-1.741.273-2.63.274-1.253.002-2.364-.245-3.656-.068-1.49.204-2.968.454-4.464.623-1.388.156-2.777.298-4.17.406-.918.073-2.303-.13-3.156.178-1.104.399-.782.798-.872 1.859-.11 1.304-.77 2.482-1.731 3.352-3.489 3.158-9.432 2.4-11.185-2.236-.427-1.128.14-1.717-.021-2.733-.162-1.023-1.114-.988-2.045-1.057-2.836-.21-5.708-.23-8.555-.426-5.512-.38-11.19-1.153-16.7-1.022-5.75.137-11.536-.209-17.28-.521-2.68-.146-5.457-1.085-8.095-.883-2.802.215-5.778-.388-8.595-.681-6.296-.655-13.325-.844-19.144-3.46.46 6.307 1.225 12.711-3.894 17.416-2.145 1.971-4.839 4.229-7.652 5.069a144.058 144.058 0 0 1-10.788 2.786c-6.859 1.494-13.674 5.072-19.862 8.285-2.911 1.512-6.327 2.101-9.482 2.948-1.503.404-3.196.936-4.772.88-1.554-.055-2.632-1.111-4.003-1.741-1.312 3.09-3.083 5.92-4.403 8.97-.655 1.513-1.171 3.122-1.933 4.585-.582 1.116-1.523 1.716-1.612 3.009-.216 3.14.358 6.416.204 9.592-.168 3.463-.706 6.979-1.023 10.446-.686 7.494-.366 15.04-.923 22.544-.509 6.855-.191 13.658-.951 20.519-.211 1.905-.445 3.807-.598 5.718-.1 1.254-.794 4.14-.14 5.264.286.491.972.544 1.431.79.717.385 1.369.972 1.904 1.584 1.13 1.292 1.4 2.829 1.658 4.475 1.463-.787 7.597-4.826 6.678-.403-.284 1.372-1.529 2.112-2.511 2.987-.719.641-1.406 1.322-2.172 1.91-.516.396-1.611.888-1.86 1.536-.445 1.157 1.854 2.81 2.94 2.797 1.524-.017 3.427-2.304 4.718-3.034 3.429-1.936 3.119 2.245 1.827 4.063-.976 1.371-.151 1.266 1.19 1.544 2.097.435 4.033.807 6.164 1.073 4.073.508 8.081-.148 12.123.792 4.025.937 6.417 3.448 7.004 7.588.309 2.188.6 1.09 2.437 1.603 1.696.474 2.654 2.414 3.63 3.729 1.95 2.624 5.594 9.235 2.608 12.329-1.267 1.314-4.345.98-6.014 1.204-1.073.144-2.365.645-3.448.386-1.03-.246-1.715-1.168-2.458-1.843-.01 4.153-.035 7.761-3.326 10.76-2.655 2.42-6.206 3.531-9.767 3.286-3.49-.24-7.073-1.66-9.285-4.465-1.167-1.48-1.997-3.296-2.298-5.161-.139-.859-.179-1.762-.045-2.626.08-.513.568-1.443.258-1.938-.543-.868-3.203-.147-4.081-.058-2.319.234-4.63.526-6.94.836-1.909.256-3.856.527-5.772.165-1.646-.311-2.276-.488-1.979 1.46.595 3.919-.397 7.396-3.62 9.806-3.225 2.411-6.202 2.889-10.146 2.254-3.604-.58-6.9-3.983-7.95-7.369-1.397-4.506.043-8.611 3.408-11.687-2.041-1.034-3.394-1.645-4.114-4.033-.753-2.496-.049-5.122.306-7.625.765-5.376.467-10.609.73-16.002.115-2.38.607-4.803.614-7.176.005-1.353-.07-1.305-1.463-1.316-.864-.006-1.78.054-2.144-.953-.878-2.429 3.242-2.224 4.279-3.191 1.236-1.153.382-5.701.346-7.302-.117-5.199.397-10.277.497-15.462.046-2.343.189-4.806-.005-7.14-.077-.932-.61-1.684-.575-2.611.046-1.188.274-2.297.213-3.532-.537-10.866-.655-21.933.739-32.727.083-.647.54-2.102.296-2.751-.371-.983-1.546-.635-2.367-.995-2.297-1.007-2.865-2.605-2.991-4.946l-.22-4.162c-.037-.713-.073-1.426-.111-2.138-.046-.827.294-1.756.275-2.449-.007-.223-.103-.556-.105-.687-.266-.131-.369-.323-.311-.577a1.671 1.671 0 0 1 .114-.697c.014.135-.16-.765-.175-.685.024-.123.475-.854.43-.942-.211-.413-.657.089-.806-.681-.124-.647.297-1.407.156-2.164-.378-2.021-.022-3.834.265-5.879Z" fill="#252525"/><path fill-rule="evenodd" clip-rule="evenodd" d="M53.098 173.593c25.523.059 51.107.688 76.566 1.442 2.805.083 5.62.321 8.427.441.488.02 2.094-.184 2.456.339.589.853-.759 1.721-1.394 2.11-2.186 1.338-5.078 1.104-7.555 1.189a215.05 215.05 0 0 1-10.254.081c-11.878-.165-23.76-1.068-35.613-1.77-7.3-.432-14.624-.697-21.936-.912-3.609-.106-7.22-.165-10.829-.284-.974-.032-2.75.272-2.75-1.009 0-1.335 1.947-1.555 2.882-1.627ZM83.622 187.949c18.061.779 36.134 1.312 54.197 2.033 1.171.047 3.663-.299 4.103 1.138.458 1.494-1.447 2.993-2.707 3.38-1.636.503-3.72.221-5.428.269a69.538 69.538 0 0 1-6.773-.11c-8.727-.591-17.441-1.358-26.17-1.951a805.986 805.986 0 0 1-14.816-1.158c-1.316-.113-5.224.239-6.146-.833-.568-.661.034-1.682.595-2.191.924-.839 1.987-.649 3.145-.577ZM136.912 207.694c-5.869.316-11.803-.149-17.573-1.118-.786-.133-2.603-.148-3.105-.878-.767-1.114.674-2.087 1.644-2.185 2.687-.273 5.883.664 8.594.83 2.837.173 5.712-.13 8.556-.152 1.625-.013 3.25-.024 4.876-.03.954-.002 2.324-.244 3.266-.027 2.634.605-.716 2.823-1.889 3.079-.407.089-4.355.674-4.369.481ZM264.992 66.892c.039-.689-.14-2.43.713-2.756 1.662-.636 1.552 3.444 2.199 4.019 2.378 2.106 1.737-6.009 4.003-3.392 1.84 2.127.362 7.25-2.228 8.206-1.907.704-3.205-.65-3.947-2.22-.017-.036-1.047-3.873-.74-3.857ZM267.145 57.602c1.148-.219 2.641.973 1.939 2.128-.514.844-3.997 2.153-4.94 2.175-1.158.027-1.06-.894-.69-1.832.578-1.468 2.122-2.488 3.691-2.471ZM58.009 39.114c.352-1.469.873-3.209 2.61-1.793 1.168.951 2.022 3.296 2.139 4.763.14 1.757-.824 2.65-2.383 1.664-1.581-1-2.184-2.842-2.366-4.634ZM20.347 57.578c-.566 3.926-4.049.272-3.892-2.123.082-1.247.796-2.269 2.152-1.521 1.214.67 1.636 2.43 1.74 3.644ZM218.615 287.052c.259-.975.316-2.982 1.443-3.41 1.668-.632 2.392 2.14 2.448 3.256.06 1.21-.362 3.78-2.094 3.567-1.42-.175-1.514-2.354-1.797-3.413ZM176.623 288.608c.319-1.194.381-3.35 1.815-3.711 1.579-.398 2.062 1.754 2.081 2.971.018 1.137-.618 4.082-2.227 3.9-1.239-.141-1.404-2.196-1.669-3.16Z" fill="#252525"/></svg>